<svg xmlns="http://www.w3.org/2000/svg" width="89.5" height="155.242" viewBox="0 0 89.5 155.242">
  <path id="Tracé_4256" data-name="Tracé 4256" d="M976.04,637.339l-1.453,7.881c-.023.127-2.574,12.918-22.469,30.4a78.533,78.533,0,0,0-13.825,15.788,42.657,42.657,0,0,0,0,46.927,78.536,78.536,0,0,0,13.825,15.789c19.9,17.478,22.446,30.27,22.468,30.392l1.424,8.068,1.424-8.068c.022-.126,2.456-12.811,22.468-30.392a78.552,78.552,0,0,0,13.825-15.789,42.658,42.658,0,0,0,0-46.927A78.565,78.565,0,0,0,999.9,675.617c-19.9-17.478-22.446-30.269-22.468-30.391ZM974.564,776.6c-.647-1.253-1.434-2.645-2.393-4.165l2.393-2.417Zm0-10.693-4.024,4.066q-1.193-1.719-2.665-3.605l6.69-6.759Zm0-10.409-8.523,8.611c-.906-1.08-1.88-2.191-2.933-3.335L974.564,749.2Zm0-10.409L961.12,758.677q-1.483-1.526-3.149-3.117L974.564,738.8Zm0-10.409-18.71,18.9c-.6-.543-1.2-1.088-1.829-1.64-.5-.437-.982-.883-1.466-1.33l22-22.232Zm0-10.409-24.1,24.346q-1.583-1.571-3.052-3.215l27.148-27.429Zm0-10.409-29.047,29.347q-1.436-1.728-2.748-3.522l31.795-32.124Zm0-10.409L941.08,737.289c-.122-.183-.252-.362-.373-.545-.723-1.1-1.38-2.226-1.983-3.373l35.84-36.21Zm0-10.409L937.4,730.6a39.731,39.731,0,0,1-1.662-4.618l38.826-39.229Zm0-10.409-39.631,40.042a39.792,39.792,0,0,1-.712-5.579l40.343-40.762Zm0-10.409L934.2,713.014a39.743,39.743,0,0,1,1.036-7.345l39.328-39.735Zm0-10.409L937.22,699.554A39.925,39.925,0,0,1,940.708,693a75.659,75.659,0,0,1,13.318-15.205c11.665-10.248,17.577-18.92,20.539-24.655Zm2.891-8.689c2.961,5.735,8.874,14.408,20.539,24.655A75.7,75.7,0,0,1,1011.312,693a39.924,39.924,0,0,1,3.487,6.559l-37.344-37.731Zm0,12.8,39.328,39.735a39.757,39.757,0,0,1,1.036,7.346l-40.364-40.782Zm0,10.409L1017.8,717.1a39.8,39.8,0,0,1-.712,5.579l-39.631-40.042Zm0,10.409,38.826,39.229a39.619,39.619,0,0,1-1.662,4.619L977.455,693.05Zm0,10.409,35.839,36.21c-.6,1.147-1.26,2.275-1.983,3.373-.121.183-.25.363-.373.545l-33.484-33.831Zm0,10.409,31.794,32.124q-1.314,1.793-2.748,3.522l-29.046-29.347Zm0,10.409,27.148,27.429q-1.474,1.64-3.052,3.215l-24.1-24.346Zm0,10.409,22,22.232c-.484.447-.968.893-1.466,1.33-.628.552-1.234,1.1-1.829,1.639l-18.71-18.9Zm0,10.409,16.593,16.765q-1.665,1.589-3.149,3.117l-13.444-13.583Zm0,10.409,11.455,11.574c-1.053,1.144-2.026,2.256-2.932,3.335l-8.523-8.611Zm0,10.409,6.69,6.758q-1.477,1.884-2.665,3.606l-4.024-4.065Zm0,10.409,2.393,2.417c-.958,1.52-1.745,2.912-2.393,4.165Z" transform="translate(-931.26 -637.339)" fill="#d4af37"/>
</svg>
