<svg xmlns="http://www.w3.org/2000/svg" width="14.999" height="14.998" viewBox="0 0 14.999 14.998">
  <path id="Icon_awesome-facebook-messenger" data-name="Icon awesome-facebook-messenger" d="M8.078.563A7.246,7.246,0,0,0,.563,7.837a7.11,7.11,0,0,0,2.361,5.381c.252.227.2.359.243,1.761a.6.6,0,0,0,.843.531c1.6-.7,1.621-.76,1.892-.686,4.635,1.276,9.66-1.691,9.66-6.986A7.218,7.218,0,0,0,8.078.563Zm4.513,5.6L10.384,9.655a1.13,1.13,0,0,1-1.63.3L7,8.641a.454.454,0,0,0-.544,0l-2.37,1.8a.356.356,0,0,1-.517-.474L5.773,6.47a1.13,1.13,0,0,1,1.63-.3L9.159,7.484a.454.454,0,0,0,.544,0l2.371-1.8a.356.356,0,0,1,.517.472Z" transform="translate(-0.563 -0.563)" fill="#3488ea"/>
</svg>
