<svg xmlns="http://www.w3.org/2000/svg" width="26.939" height="33.127" viewBox="0 0 26.939 33.127">
  <g id="Composant_53_2" data-name="Composant 53 – 2" transform="translate(0.25 0.253)">
    <path id="Tracé_4451" data-name="Tracé 4451" d="M423.981,267.019a12.371,12.371,0,0,1-1.179-1.289,3.743,3.743,0,0,1,.259-4.549.665.665,0,0,0,.136-.69,3.515,3.515,0,0,0-3.268-2.516c-.834-.006-1.668,0-2.5,0a3.482,3.482,0,0,0-3.471,3.469q-.009,4.5,0,9c0,.439-.105.617-.364.617s-.351-.156-.351-.626q0-4.425,0-8.851a4.169,4.169,0,0,1,3.227-4.218l.164-.046a4.775,4.775,0,0,1-2.774-4.256,4.559,4.559,0,0,1,1.455-3.555,4.793,4.793,0,0,1,7.016.362,4.852,4.852,0,0,1-1.643,7.45,4.246,4.246,0,0,1,3.217,3.046,4.134,4.134,0,0,1,3.156-.471c0-.753-.007-1.5,0-2.256a4.82,4.82,0,0,1,3.077-4.679,8.93,8.93,0,0,1,.9-.292,5.623,5.623,0,0,1-3.314-5.223,5.4,5.4,0,0,1,2-4.273,5.63,5.63,0,0,1,8.024.749,5.428,5.428,0,0,1,1.121,4.864,5.625,5.625,0,0,1-3.129,3.854,11.923,11.923,0,0,1,1.378.572,4.7,4.7,0,0,1,2.553,4.3c.018,4.436,0,8.871.008,13.307,0,.255-.029.482-.34.513-.246.024-.375-.151-.375-.509q0-4.654,0-9.309V257.61a4.134,4.134,0,0,0-3.624-4.239,11.55,11.55,0,0,0-1.8-.043,18.561,18.561,0,0,0-2.342.08,4.1,4.1,0,0,0-3.394,3.711c-.05.964-.03,1.932-.024,2.9a.424.424,0,0,0,.182.3A3.848,3.848,0,0,1,429.034,266a9.644,9.644,0,0,1-1.007.967,10.9,10.9,0,0,1,1.066.659,3.1,3.1,0,0,1,1.249,2.407c.047,1.341.02,2.685.019,4.028,0,.23-.1.405-.358.4s-.363-.185-.363-.43c0-1.211,0-2.421,0-3.632a2.619,2.619,0,0,0-1.354-2.454,2.848,2.848,0,0,0-1.206-.363,12.857,12.857,0,0,0-2.463.044,2.6,2.6,0,0,0-2.251,2.681c-.005,1.17,0,2.34,0,3.51,0,.1.021.228-.031.3-.083.108-.218.244-.331.244s-.227-.149-.325-.248c-.035-.035-.034-.114-.034-.173,0-1.292-.037-2.586.03-3.874a3.234,3.234,0,0,1,2.268-3.018C423.97,267.03,423.995,267.01,423.981,267.019Zm9.343-24.459a4.933,4.933,0,1,0,4.975,4.776A4.931,4.931,0,0,0,433.324,242.56Zm-14.579,14.463a4.076,4.076,0,1,0-.452-8.135,4.076,4.076,0,0,0,.452,8.135Zm7.245,9.74a3.128,3.128,0,1,0-3.124-3.121A3.142,3.142,0,0,0,425.99,266.763Z" transform="translate(-413.238 -241.836)" fill="#d4af38" stroke="#d4af37" stroke-width="0.5"/>
  </g>
</svg>
