<svg xmlns="http://www.w3.org/2000/svg" width="16.143" height="19.647" viewBox="0 0 16.143 19.647">
  <g id="Groupe_3902" data-name="Groupe 3902" transform="translate(-257.272 -6019.315)">
    <g id="Icon_ionic-ios-document" data-name="Icon ionic-ios-document" transform="translate(254.795 6015.378)">
      <path id="Tracé_3562" data-name="Tracé 3562" d="M21.23,7.216h3.01a.164.164,0,0,0,.165-.165h0a.979.979,0,0,0-.354-.757l-2.524-2.1a1.062,1.062,0,0,0-.681-.245h0a.244.244,0,0,0-.245.245v2.4A.628.628,0,0,0,21.23,7.216Z" transform="translate(-7.037 -0.004)" fill="#d4af37"/>
      <path id="Tracé_3563" data-name="Tracé 3563" d="M12.7,6.584V3.938H8.371A1.062,1.062,0,0,0,7.313,5V16.11a1.062,1.062,0,0,0,1.058,1.058H16.31a1.062,1.062,0,0,0,1.058-1.058V8.072H14.193A1.491,1.491,0,0,1,12.7,6.584Z" fill="#d4af37"/>
    </g>
    <g id="Icon_feather-smartphone" data-name="Icon feather-smartphone" transform="translate(261.092 6026.631)">
      <path id="Tracé_3556" data-name="Tracé 3556" d="M9.189,3h8.444c.933,0,1.689.53,1.689,1.183v9.465c0,.653-.756,1.183-1.689,1.183H9.189c-.933,0-1.689-.53-1.689-1.183V4.183C7.5,3.53,8.256,3,9.189,3Z" transform="translate(-7.5 -3)" fill="#fff" stroke="#d4af37" stroke-linecap="round" stroke-linejoin="round" stroke-width="1"/>
      <path id="Tracé_3557" data-name="Tracé 3557" d="M18.2,27.2h0" transform="translate(-14.566 -18.489)" fill="#fff" stroke="#d4af37" stroke-linecap="round" stroke-linejoin="round" stroke-width="2"/>
      <path id="Tracé_3558" data-name="Tracé 3558" d="M18.2,27.2h0" transform="translate(-14.566 -21.01)" fill="#fff" stroke="#d4af37" stroke-linecap="round" stroke-linejoin="round" stroke-width="2"/>
      <path id="Tracé_3559" data-name="Tracé 3559" d="M18.2,27.2h0" transform="translate(-9.768 -18.489)" fill="#fff" stroke="#d4af37" stroke-linecap="round" stroke-linejoin="round" stroke-width="2"/>
      <path id="Tracé_3560" data-name="Tracé 3560" d="M18.2,27.2h0" transform="translate(-9.768 -21.01)" fill="#fff" stroke="#d4af37" stroke-linecap="round" stroke-linejoin="round" stroke-width="2"/>
    </g>
    <g id="Icon_feather-smartphone-2" data-name="Icon feather-smartphone" transform="translate(257.772 6027.598)">
      <path id="Tracé_3556-2" data-name="Tracé 3556" d="M8.6,3h1.762c.263,0,.476.412.476.921v7.364c0,.508-.213.921-.476.921H8.406a.97.97,0,0,1-.906-.921V3.921c0-.508.357-.913,1.1-.921Z" transform="translate(-7.5 -1.341)" fill="#fff" stroke="#d4af37" stroke-linecap="round" stroke-linejoin="round" stroke-width="1"/>
    </g>
  </g>
</svg>
