<svg xmlns="http://www.w3.org/2000/svg" width="18.974" height="19.018" viewBox="0 0 18.974 19.018">
  <g id="linkedin" transform="translate(-763.834 -798.513)">
    <rect id="Rectangle_2487" data-name="Rectangle 2487" width="3.711" height="11.987" transform="translate(764.694 805.044)" fill="none" stroke="#fff" stroke-width="1"/>
    <path id="Tracé_5406" data-name="Tracé 5406" d="M5.657,86.1a2.212,2.212,0,1,0-2.2-2.212,2.212,2.212,0,0,0,2.2,2.212" transform="translate(760.874 717.373)" fill="none" stroke="#fff" stroke-width="1"/>
    <path id="Tracé_5407" data-name="Tracé 5407" d="M13.858,93.71c0-1.685.775-2.689,2.261-2.689,1.364,0,2.02.964,2.02,2.689V100h3.693V92.414c0-3.21-1.82-4.763-4.361-4.763a4.181,4.181,0,0,0-3.614,1.98V88.017H10.3V100h3.559Z" transform="translate(760.476 717.027)" fill="none" stroke="#fff" stroke-width="1"/>
  </g>
</svg>
