<svg xmlns="http://www.w3.org/2000/svg" width="18.392" height="18.392" viewBox="0 0 18.392 18.392">
  <g id="Groupe_4540" data-name="Groupe 4540" transform="translate(0 0.5)">
    <g id="Groupe_50" data-name="Groupe 50" transform="translate(0.5)">
      <path id="Tracé_126" data-name="Tracé 126" d="M-81.7,300.838c-2.362,0-2.658.01-3.585.052a6.387,6.387,0,0,0-2.111.4,4.27,4.27,0,0,0-1.54,1,4.259,4.259,0,0,0-1,1.54,6.368,6.368,0,0,0-.4,2.111c-.042.928-.052,1.224-.052,3.585s.01,2.658.052,3.585a6.368,6.368,0,0,0,.4,2.111,4.259,4.259,0,0,0,1,1.54,4.269,4.269,0,0,0,1.54,1,6.387,6.387,0,0,0,2.111.4c.928.042,1.224.052,3.585.052s2.658-.01,3.585-.052a6.387,6.387,0,0,0,2.111-.4,4.269,4.269,0,0,0,1.54-1,4.269,4.269,0,0,0,1-1.54,6.387,6.387,0,0,0,.4-2.111c.042-.928.052-1.224.052-3.585s-.01-2.658-.052-3.585a6.387,6.387,0,0,0-.4-2.111,4.27,4.27,0,0,0-1-1.54,4.269,4.269,0,0,0-1.54-1,6.387,6.387,0,0,0-2.111-.4c-.928-.042-1.224-.052-3.585-.052" transform="translate(90.397 -300.838)" fill="none" stroke="#fff" stroke-width="1"/>
      <path id="Tracé_127_-_Contour" data-name="Tracé 127 - Contour" d="M-77.683,318.22a4.673,4.673,0,0,1-4.668-4.668,4.673,4.673,0,0,1,4.668-4.668,4.673,4.673,0,0,1,4.668,4.668A4.673,4.673,0,0,1-77.683,318.22Z" transform="translate(86.379 -304.856)" fill="none" stroke="#fff" stroke-width="1"/>
      <circle id="Ellipse_138" data-name="Ellipse 138" cx="0.715" cy="0.715" r="0.715" transform="translate(12.955 2.83)" fill="#fff"/>
    </g>
  </g>
</svg>
