<svg xmlns="http://www.w3.org/2000/svg" width="100.208" height="76.331" viewBox="0 0 100.208 76.331">
  <g id="Groupe_5" data-name="Groupe 5" transform="translate(-814.231 -469.5)">
    <g id="Groupe_4" data-name="Groupe 4" transform="translate(442.5 835.5) rotate(-90)">
      <path id="Rectangle_1" data-name="Rectangle 1" d="M5,0A5,5,0,0,0,0,5V63a5,5,0,0,0,5,5H34a5,5,0,0,0,5-5V5a5,5,0,0,0-5-5H5M5-3H34a8.009,8.009,0,0,1,8,8V63a8.009,8.009,0,0,1-8,8H5a8.009,8.009,0,0,1-8-8V5A8.009,8.009,0,0,1,5-3Z" transform="translate(310 388)"/>
      <path id="Tracé_16" data-name="Tracé 16" d="M382.977,450.78h-7.286a1.5,1.5,0,0,1,0-3h7.286a1.5,1.5,0,0,1,0,3Z" transform="translate(-50.191)"/>
    </g>
    <path id="Union_1" data-name="Union 1" d="M15.727,28.972l-7.2-1.235a1.5,1.5,0,0,1-1.1-.82l-.012-.024A1.5,1.5,0,0,1,7.488,25.5l3.68-6.306A1.5,1.5,0,0,1,13.757,20.7l-1.121,1.924,5.71-2.662a10.7,10.7,0,0,0,6-11.511l0-.017-.449-1.791a1.5,1.5,0,1,1,2.91-.73l.047.189a13.681,13.681,0,0,1-7.234,16.579L13.45,25.555l2.771.473a1.5,1.5,0,0,1,.972.615,1.49,1.49,0,0,1-1.209,2.351A1.5,1.5,0,0,1,15.727,28.972Zm2.5-25.827a1.5,1.5,0,0,1-.111-.308h0l.289.592A1.553,1.553,0,0,1,18.23,3.145Z" transform="translate(888.965 510.062) rotate(17)"/>
    <path id="Tracé_19" data-name="Tracé 19" d="M526.152,521.913a1.326,1.326,0,0,1-.718-.209,1.2,1.2,0,0,1-.352-1.71l46.76-66.536a1.327,1.327,0,0,1,1.789-.336,1.2,1.2,0,0,1,.352,1.71l-46.76,66.536A1.306,1.306,0,0,1,526.152,521.913Z" transform="translate(316.452 18.587)"/>
    <path id="Tracé_19_-_Contour" data-name="Tracé 19 - Contour" d="M526.152,521.913a1.306,1.306,0,0,0,1.072-.545l46.76-66.536a1.2,1.2,0,0,0-.352-1.71,1.327,1.327,0,0,0-1.789.336l-46.76,66.536a1.2,1.2,0,0,0,.352,1.71,1.326,1.326,0,0,0,.718.209m0,2a3.322,3.322,0,0,1-1.8-.526,3.248,3.248,0,0,1-1.431-2.094,3.164,3.164,0,0,1,.523-2.449l46.76-66.536a3.329,3.329,0,0,1,4.506-.869,3.247,3.247,0,0,1,1.431,2.094,3.164,3.164,0,0,1-.523,2.449l-46.76,66.536A3.308,3.308,0,0,1,526.152,523.913Z" transform="translate(316.452 18.587)" fill="#fff"/>
    <path id="Union_2" data-name="Union 2" d="M8.446,26.135,1.25,24.9a1.5,1.5,0,0,1-1.1-.82l-.012-.024a1.5,1.5,0,0,1,.065-1.394l3.681-6.306a1.5,1.5,0,0,1,2.589,1.508L5.354,19.787l5.71-2.662a10.7,10.7,0,0,0,6-11.5L17.058,5.6,16.61,3.806a1.5,1.5,0,1,1,2.91-.73l.047.189a13.681,13.681,0,0,1-7.235,16.579L6.169,22.718l2.77.473a1.5,1.5,0,0,1,.973.615,1.575,1.575,0,0,1,.12.2A1.49,1.49,0,0,1,8.7,26.157,1.5,1.5,0,0,1,8.446,26.135Z" transform="translate(838.299 495.705) rotate(171)"/>
  </g>
</svg>
