<svg id="logo-sixseven" xmlns="http://www.w3.org/2000/svg" xmlns:xlink="http://www.w3.org/1999/xlink" width="175.217" height="39.733" viewBox="0 0 175.217 39.733">
  <defs>
    <clipPath id="clip-path">
      <path id="Tracé_151" data-name="Tracé 151" d="M189.583,50.945a5.591,5.591,0,0,1-.766-7.876A5.292,5.292,0,0,1,190,41.995a5.459,5.459,0,0,1,2.553-.9,5.571,5.571,0,0,1,6.115,4.973v.04a5.553,5.553,0,0,1-5.631,6.075h0a5.171,5.171,0,0,1-3.454-1.236M182.5,16.823l.054,4.059,14.192-.2-2.553,4.327-8.507,14.421.013.013-.323.551a15.481,15.481,0,0,0-1.949,4.811,9.227,9.227,0,0,0-.161,2.849,9.107,9.107,0,0,0,3.629,6.411,9.889,9.889,0,0,0,7.284,2.11,9.874,9.874,0,0,0,8.789-10.792,9.113,9.113,0,0,0-3.252-6.236,8.315,8.315,0,0,0-6.451-2.11,6.052,6.052,0,0,0-.618.108c-.255.054-.578.121-.954.215l6.021-10.268v-.013L203.963,16.5Z" transform="translate(-182.5 -16.5)" fill="#a0864a"/>
    </clipPath>
  </defs>
  <g id="Groupe_53" data-name="Groupe 53" transform="translate(35.515 0)">
    <path id="Tracé_132" data-name="Tracé 132" d="M40.226,387.148c.465,1.675,1.768,2.605,3.815,2.605,1.768,0,2.792-.868,2.792-2.233,0-1.768-1.675-1.892-4.032-2.885-3.226-1.365-4.87-2.7-4.87-5.149,0-2.947,2.45-5.087,6.483-5.087,2.667,0,4.591,1.024,5.428,2.792l-2.761,1.892a2.89,2.89,0,0,0-2.823-1.768c-1.52,0-2.45.775-2.45,1.954,0,1.644,1.83,1.892,4.467,2.978,2.978,1.179,4.373,2.574,4.373,5.025,0,3.288-2.481,5.428-6.948,5.428-3.288,0-5.459-1.21-6.7-3.784Z" transform="translate(-37 -374.4)" fill="#fff"/>
    <path id="Tracé_133" data-name="Tracé 133" d="M96.2,376.4h3.877v16.967H96.2Z" transform="translate(-77.838 -375.78)" fill="#fff"/>
    <path id="Tracé_134" data-name="Tracé 134" d="M121.5,393.367l6.421-9.119-5.49-7.847h4.28l2.388,3.536a13.459,13.459,0,0,1,1.179,2.047,22.747,22.747,0,0,1,1.21-2.078l2.357-3.474h4.249l-5.49,7.878,6.39,9.088h-4.311l-3.164-4.467a10.667,10.667,0,0,1-1.3-2.326,25.764,25.764,0,0,1-1.365,2.357L125.78,393.4H121.5Z" transform="translate(-95.29 -375.78)" fill="#fff"/>
    <path id="Tracé_135" data-name="Tracé 135" d="M187.795,387.217c.465,1.675,1.768,2.605,3.815,2.605,1.768,0,2.792-.868,2.792-2.233,0-1.768-1.675-1.892-4.032-2.885-3.226-1.365-4.87-2.667-4.87-5.118,0-2.947,2.45-5.087,6.483-5.087,2.668,0,4.591,1.024,5.428,2.792l-2.761,1.892a2.89,2.89,0,0,0-2.823-1.768c-1.489,0-2.45.775-2.45,1.954,0,1.644,1.83,1.892,4.467,2.978,2.978,1.179,4.373,2.574,4.373,5.025,0,3.288-2.481,5.428-6.917,5.428-3.288,0-5.459-1.21-6.7-3.784Z" transform="translate(-138.818 -374.469)" fill="#fff"/>
    <path id="Tracé_136" data-name="Tracé 136" d="M248.233,377.788a4.365,4.365,0,0,0-4.684,3.753h9.274c-.31-2.45-1.892-3.753-4.591-3.753m-4.932,6.359c.186,3.195,1.985,5.056,4.808,5.056,2.481,0,4.063-.993,5.335-3.35l3.257,1.83a9.09,9.09,0,0,1-8.5,5.056c-5.428,0-8.9-3.6-8.9-9.119,0-5.273,3.629-9.119,8.9-9.119,5.459,0,8.685,3.257,8.685,8.9v.744Z" transform="translate(-176.552 -374.469)" fill="#fff"/>
    <path id="Tracé_137" data-name="Tracé 137" d="M301.5,376.4h4.249l3.691,8.53A20.749,20.749,0,0,1,310.4,388a15.429,15.429,0,0,1,.993-3.071l3.691-8.53H319.3l-8.9,17.99Z" transform="translate(-219.459 -375.78)" fill="#fff"/>
    <path id="Tracé_138" data-name="Tracé 138" d="M372.7,377.788a4.365,4.365,0,0,0-4.684,3.753h9.274c-.279-2.45-1.892-3.753-4.591-3.753m-4.963,6.359c.186,3.195,1.985,5.056,4.808,5.056a5.435,5.435,0,0,0,5.3-3.35l3.257,1.83a9.09,9.09,0,0,1-8.5,5.056c-5.428,0-8.9-3.6-8.9-9.119,0-5.273,3.629-9.119,8.9-9.119,5.459,0,8.685,3.257,8.685,8.9v.744Z" transform="translate(-262.366 -374.469)" fill="#fff"/>
    <path id="Tracé_139" data-name="Tracé 139" d="M434.6,375.089h3.691v2.792a7.033,7.033,0,0,1,6.545-3.381c2.543,0,4.342.806,5.3,2.388.837,1.272.837,2.823.837,4.87v10.3h-3.908V383.34c0-3.784-.465-5.552-3.691-5.552a4.707,4.707,0,0,0-4.094,1.892c-.682,1.024-.775,2.481-.775,4.622v7.723h-3.877V375.089Z" transform="translate(-311.275 -374.469)" fill="#fff"/>
    <path id="Tracé_140" data-name="Tracé 140" d="M143.482,490.93l-4.733-6.459h-.724v6.459H136.8V477.4h2.506c2.951,0,4.4,1.225,4.4,3.675a3.19,3.19,0,0,1-3.508,3.4l4.9,6.459Zm-5.512-7.461h1.225c2.116,0,3.062-.5,3.062-2.394s-.947-2.561-3.062-2.561h-1.225Z" transform="translate(-136.8 -451.642)" fill="#a0864a"/>
    <path id="Tracé_141" data-name="Tracé 141" d="M161.5,477.4h6.682v1.169h-5.457V482.8h5.457v1.169h-5.457v5.846h5.457v1.169H161.5Z" transform="translate(-147.747 -451.642)" fill="#a0864a"/>
    <path id="Tracé_142" data-name="Tracé 142" d="M184.9,487.866a2.753,2.753,0,0,0,2.784,2.116,2.55,2.55,0,0,0,2.728-2.84c0-1.67-1-2.283-2.561-3.118-2.116-1.114-3.4-2-3.4-3.9a3.208,3.208,0,0,1,3.508-3.229,3.285,3.285,0,0,1,3.007,1.726l-.947.557a2.184,2.184,0,0,0-2.116-1.169,1.97,1.97,0,0,0-2.172,1.837v.334c0,1.67,1.225,2,3.007,3.007,2,1.058,2.9,1.949,2.9,4.009a3.657,3.657,0,0,1-3.953,3.953,3.871,3.871,0,0,1-3.786-2.617Z" transform="translate(-157.674 -451.418)" fill="#a0864a"/>
    <path id="Tracé_143" data-name="Tracé 143" d="M210.731,478.569H207V477.4h8.686v1.169h-3.731V490.93h-1.225Z" transform="translate(-167.912 -451.642)" fill="#a0864a"/>
    <path id="Tracé_144" data-name="Tracé 144" d="M235.8,476.5l5.679,14.087h-1.336l-1.726-4.566h-5.512l-1.782,4.566H229.9Zm2.227,8.463-2.339-5.9-2.394,5.9Z" transform="translate(-178.061 -451.244)" fill="#a0864a"/>
    <path id="Tracé_145" data-name="Tracé 145" d="M261.369,477.4v8.853c0,2.673,1.225,3.953,3.731,3.953s3.675-1.281,3.675-3.953V477.4H270v8.463c0,3.675-1.615,5.457-4.9,5.457s-4.9-1.782-4.9-5.457V477.4Z" transform="translate(-191.49 -451.642)" fill="#a0864a"/>
    <path id="Tracé_146" data-name="Tracé 146" d="M297.282,490.93l-4.733-6.459h-.724v6.459H290.6V477.4h2.506c2.951,0,4.4,1.225,4.4,3.675a3.19,3.19,0,0,1-3.508,3.4l4.844,6.459Zm-5.457-7.461h1.225c2.116,0,3.062-.5,3.062-2.394s-.947-2.561-3.062-2.561h-1.225Z" transform="translate(-204.963 -451.642)" fill="#a0864a"/>
    <path id="Tracé_147" data-name="Tracé 147" d="M317.9,476.5l5.679,14.087h-1.336l-1.726-4.621h-5.512l-1.782,4.566H312Zm2.227,8.463-2.339-5.9-2.394,5.9Z" transform="translate(-214.448 -451.244)" fill="#a0864a"/>
    <path id="Tracé_148" data-name="Tracé 148" d="M342.4,476.4l9.577,11.3V476.957h1.169v13.92l-9.577-11.3v10.969H342.4Z" transform="translate(-227.921 -451.199)" fill="#a0864a"/>
    <path id="Tracé_149" data-name="Tracé 149" d="M375.831,478.569H372.1V477.4h8.686v1.169h-3.731V490.93h-1.225Z" transform="translate(-241.084 -451.642)" fill="#a0864a"/>
  </g>
  <g id="Groupe_55" data-name="Groupe 55" transform="translate(0 0)">
    <g id="Groupe_54" data-name="Groupe 54" transform="translate(0 0)" clip-path="url(#clip-path)">
      <path id="Tracé_150" data-name="Tracé 150" d="M194.259,0V43.275H170.7V0Z" transform="translate(-172.286 -2.218)" fill="#a0864a"/>
    </g>
  </g>
</svg>
