<?xml version="1.0" encoding="utf-8"?>
<!-- Generator: Adobe Illustrator 26.0.3, SVG Export Plug-In . SVG Version: 6.00 Build 0)  -->
<svg version="1.1" id="Calque_1" xmlns="http://www.w3.org/2000/svg" xmlns:xlink="http://www.w3.org/1999/xlink" x="0px" y="0px"
	 viewBox="0 0 542 548.6" style="enable-background:new 0 0 542 548.6;" xml:space="preserve">
<style type="text/css">
	.st0{filter:url(#glow);}
	.st1{fill:#3C3C3B;}
	.st2{fill:url(#SVGID_1_);}
	.st3{fill:url(#SVGID_00000025436662253743628520000013990426180072862352_);}
	.st4{fill:url(#SVGID_00000022549946726454834070000003074214328420930437_);}
	.st5{fill:url(#SVGID_00000028283052435867764290000017054212600300775576_);}
	.st6{fill:url(#SVGID_00000000204664396871647040000007237339014491808143_);}
	.st7{fill:url(#SVGID_00000092450021535521180190000018219333841341351101_);}
	.st8{fill:url(#SVGID_00000162341531505819871200000015648064751624719257_);}
	.st9{fill:url(#SVGID_00000128473049514721495160000013721224764222142878_);}
	.st10{fill:url(#SVGID_00000129918759286608850870000015235384206344991669_);}
	.st11{fill:url(#SVGID_00000168805404453743085180000004312406011989871511_);}
	.st12{clip-path:url(#SVGID_00000111900111612357647110000014517912071493932935_);}
	.st13{fill:url(#SVGID_00000174597703908599926320000002802846770152589989_);}
</style>
<filter  id="glow">
	<feFlood  flood-color="rgb(255,255,255)" flood-opacity="0.3" in="SourceGraphic"></feFlood>
	<feComposite  in2="SourceGraphic" operator="in"></feComposite>
	<feGaussianBlur  stdDeviation="10"></feGaussianBlur>
	<feComponentTransfer  result="glow1">
		<feFuncA  intercept="0" slope="4" type="linear"></feFuncA>
	</feComponentTransfer>
	<feMerge>
		<feMergeNode  in="glow1"></feMergeNode>
		<feMergeNode  in="SourceGraphic"></feMergeNode>
	</feMerge>
</filter>
<g class="st0">
	<path class="st1" d="M47.4,415.5c1.5,5.4,5.7,8.4,12.3,8.4c5.7,0,9-2.8,9-7.2c0-5.7-5.4-6.1-13-9.3C45.3,403,40,398.7,40,390.8
		c0-9.5,7.9-16.4,20.9-16.4c8.6,0,14.8,3.3,17.5,9l-8.9,6.1c-1.3-3.4-4.7-5.7-9.1-5.7c-4.9,0-7.9,2.5-7.9,6.3
		c0,5.3,5.9,6.1,14.4,9.6c9.6,3.8,14.1,8.3,14.1,16.2c0,10.6-8,17.5-22.4,17.5c-10.6,0-17.6-3.9-21.6-12.2L47.4,415.5z"/>
	<path class="st1" d="M96.2,376.4h12.5v54.7H96.2V376.4z"/>
	<path class="st1" d="M121.5,431.1l20.7-29.4l-17.7-25.3h13.8l7.7,11.4c1.5,2.1,2.7,4.3,3.8,6.6c1.2-2.3,2.5-4.6,3.9-6.7l7.6-11.2
		h13.7l-17.7,25.4l20.6,29.3H164l-10.2-14.4c-1.7-2.3-3.1-4.8-4.2-7.5c-1.3,2.6-2.8,5.1-4.4,7.6l-9.9,14.3H121.5z"/>
	<path class="st1" d="M194.9,415.5c1.5,5.4,5.7,8.4,12.3,8.4c5.7,0,9-2.8,9-7.2c0-5.7-5.4-6.1-13-9.3c-10.4-4.4-15.7-8.6-15.7-16.5
		c0-9.5,7.9-16.4,20.9-16.4c8.6,0,14.8,3.3,17.5,9l-8.9,6.1c-1.3-3.4-4.7-5.7-9.1-5.7c-4.8,0-7.9,2.5-7.9,6.3
		c0,5.3,5.9,6.1,14.4,9.6c9.6,3.8,14.1,8.3,14.1,16.2c0,10.6-8,17.5-22.3,17.5c-10.6,0-17.6-3.9-21.6-12.2L194.9,415.5z"/>
	<path class="st1" d="M268.1,385.1c-8.2,0-13.1,3.9-15.1,12.1h29.9C281.9,389.3,276.8,385.1,268.1,385.1 M252.2,405.6
		c0.6,10.3,6.4,16.3,15.5,16.3c8,0,13.1-3.2,17.2-10.8l10.5,5.9c-6.2,11-15.1,16.3-27.4,16.3c-17.5,0-28.7-11.6-28.7-29.4
		c0-17,11.7-29.4,28.7-29.4c17.6,0,28,10.5,28,28.7v2.4H252.2z"/>
	<path class="st1" d="M301.5,376.4h13.7l11.9,27.5c1.3,3.2,2.3,6.5,3.1,9.9c0.7-3.4,1.8-6.7,3.2-9.9l11.9-27.5h13.6l-28.7,58
		L301.5,376.4z"/>
	<path class="st1" d="M392.7,385.1c-8.2,0-13.1,3.9-15.1,12.1h29.9C406.6,389.3,401.4,385.1,392.7,385.1 M376.7,405.6
		c0.6,10.3,6.4,16.3,15.5,16.3c8,0,13.1-3.2,17.1-10.8l10.5,5.9c-6.2,11-15.1,16.3-27.4,16.3c-17.5,0-28.7-11.6-28.7-29.4
		c0-17,11.7-29.4,28.7-29.4c17.6,0,28,10.5,28,28.7v2.4H376.7z"/>
	<path class="st1" d="M434.6,376.4h11.9v9c5-7.7,11.5-10.9,21.1-10.9c8.2,0,14,2.6,17.1,7.7c2.7,4.1,2.7,9.1,2.7,15.7v33.2h-12.6
		V403c0-12.2-1.5-17.9-11.9-17.9c-5.9,0-10.6,2.2-13.2,6.1c-2.2,3.3-2.5,8-2.5,14.9v24.9h-12.5V376.4z"/>
	
		<linearGradient id="SVGID_1_" gradientUnits="userSpaceOnUse" x1="30.9739" y1="681.913" x2="30.9739" y2="692.508" gradientTransform="matrix(14.77 0 0 -24.3 -313.4097 17191.1641)">
		<stop  offset="0" style="stop-color:#CDBF9A"/>
		<stop  offset="1.000000e-02" style="stop-color:#CDBF9A"/>
		<stop  offset="0.24" style="stop-color:#AF9251"/>
		<stop  offset="0.45" style="stop-color:#806C3B"/>
		<stop  offset="1" style="stop-color:#B79955"/>
	</linearGradient>
	<path class="st2" d="M148.8,501.7l-8.5-11.6h-1.3v11.6h-2.2v-24.3h4.5c5.3,0,7.9,2.2,7.9,6.6c0,3.8-2.4,6.1-6.3,6.1l8.8,11.6H148.8
		z M138.9,488.3h2.2c3.8,0,5.5-0.9,5.5-4.3s-1.7-4.6-5.5-4.6h-2.2V488.3z"/>
	
		<linearGradient id="SVGID_00000040560087445981836830000012290574972761566346_" gradientUnits="userSpaceOnUse" x1="31.0833" y1="681.9225" x2="31.0833" y2="692.5096" gradientTransform="matrix(12 0 0 -24.32 -205.54 17205.0684)">
		<stop  offset="0" style="stop-color:#CDBF9A"/>
		<stop  offset="1.000000e-02" style="stop-color:#CDBF9A"/>
		<stop  offset="0.24" style="stop-color:#AF9251"/>
		<stop  offset="0.45" style="stop-color:#806C3B"/>
		<stop  offset="1" style="stop-color:#B79955"/>
	</linearGradient>
	<path style="fill:url(#SVGID_00000040560087445981836830000012290574972761566346_);" d="M161.5,477.4h12v2.1h-9.8v7.6h9.8v2.1
		h-9.8v10.5h9.8v2.1h-12V477.4z"/>
	
		<linearGradient id="SVGID_00000152982776469775668120000015144380719467276450_" gradientUnits="userSpaceOnUse" x1="31.0047" y1="682.4908" x2="31.0047" y2="692.5809" gradientTransform="matrix(13.87 0 0 -25.5169 -239.2498 18035.7656)">
		<stop  offset="0" style="stop-color:#CDBF9A"/>
		<stop  offset="1.000000e-02" style="stop-color:#CDBF9A"/>
		<stop  offset="0.24" style="stop-color:#AF9251"/>
		<stop  offset="0.45" style="stop-color:#806C3B"/>
		<stop  offset="1" style="stop-color:#B79955"/>
	</linearGradient>
	<path style="fill:url(#SVGID_00000152982776469775668120000015144380719467276450_);" d="M185.7,496.6c0.6,2.3,2.6,3.9,5,3.8
		c3.1,0,4.9-1.9,4.9-5.1c0-3-1.8-4.1-4.6-5.6c-3.8-2-6.1-3.6-6.1-7s2.5-5.8,6.3-5.8c2.2-0.1,4.3,1.1,5.4,3.1l-1.7,1
		c-0.7-1.4-2.2-2.2-3.8-2.1c-2-0.2-3.8,1.3-3.9,3.3c0,0.2,0,0.4,0,0.6c0,3,2.2,3.6,5.4,5.4c3.6,1.9,5.2,3.5,5.2,7.2
		c0,4.4-2.7,7.1-7.1,7.1c-3.2,0-5.5-1.6-6.8-4.7L185.7,496.6z"/>
	
		<linearGradient id="SVGID_00000064344105792222165260000006359448676740280716_" gradientUnits="userSpaceOnUse" x1="30.9484" y1="681.913" x2="30.9484" y2="692.508" gradientTransform="matrix(15.61 0 0 -24.3 -268.2696 17191.1836)">
		<stop  offset="0" style="stop-color:#CDBF9A"/>
		<stop  offset="1.000000e-02" style="stop-color:#CDBF9A"/>
		<stop  offset="0.24" style="stop-color:#AF9251"/>
		<stop  offset="0.45" style="stop-color:#806C3B"/>
		<stop  offset="1" style="stop-color:#B79955"/>
	</linearGradient>
	<path style="fill:url(#SVGID_00000064344105792222165260000006359448676740280716_);" d="M213.7,479.5H207v-2.1h15.6v2.1h-6.7v22.2
		h-2.2L213.7,479.5z"/>
	
		<linearGradient id="SVGID_00000132777243710380401190000010478596445550954632_" gradientUnits="userSpaceOnUse" x1="30.8348" y1="682.3575" x2="30.8348" y2="692.5495" gradientTransform="matrix(20.9099 0 0 -25.26 -404.5173 17857.043)">
		<stop  offset="0" style="stop-color:#CDBF9A"/>
		<stop  offset="1.000000e-02" style="stop-color:#CDBF9A"/>
		<stop  offset="0.24" style="stop-color:#AF9251"/>
		<stop  offset="0.45" style="stop-color:#806C3B"/>
		<stop  offset="1" style="stop-color:#B79955"/>
	</linearGradient>
	<path style="fill:url(#SVGID_00000132777243710380401190000010478596445550954632_);" d="M240.5,476.5l10.2,25.3h-2.4l-3.1-8.2
		h-9.9l-3.2,8.2h-2.2L240.5,476.5z M244.5,491.7l-4.2-10.6l-4.3,10.6H244.5z"/>
	
		<linearGradient id="SVGID_00000135652499313174604810000005542633622995073210_" gradientUnits="userSpaceOnUse" x1="30.8959" y1="682.2418" x2="30.8959" y2="692.5609" gradientTransform="matrix(17.6801 0 0 -24.95 -277.2917 17642.5996)">
		<stop  offset="0" style="stop-color:#CDBF9A"/>
		<stop  offset="1.000000e-02" style="stop-color:#CDBF9A"/>
		<stop  offset="0.24" style="stop-color:#AF9251"/>
		<stop  offset="0.45" style="stop-color:#806C3B"/>
		<stop  offset="1" style="stop-color:#B79955"/>
	</linearGradient>
	<path style="fill:url(#SVGID_00000135652499313174604810000005542633622995073210_);" d="M262.3,477.4v15.9c0,4.8,2.2,7.1,6.7,7.1
		s6.6-2.3,6.6-7.1v-15.9h2.2v15.2c0,6.6-2.9,9.8-8.8,9.8s-8.8-3.2-8.8-9.8v-15.2H262.3z"/>
	
		<linearGradient id="SVGID_00000057869262051204968970000010818326588318093745_" gradientUnits="userSpaceOnUse" x1="30.9746" y1="681.913" x2="30.9746" y2="692.5081" gradientTransform="matrix(14.75 0 0 -24.3 -158.96 17191.2051)">
		<stop  offset="0" style="stop-color:#CDBF9A"/>
		<stop  offset="1.000000e-02" style="stop-color:#CDBF9A"/>
		<stop  offset="0.24" style="stop-color:#AF9251"/>
		<stop  offset="0.45" style="stop-color:#806C3B"/>
		<stop  offset="1" style="stop-color:#B79955"/>
	</linearGradient>
	<path style="fill:url(#SVGID_00000057869262051204968970000010818326588318093745_);" d="M302.6,501.7l-8.5-11.6h-1.3v11.6h-2.2
		v-24.3h4.5c5.3,0,7.9,2.2,7.9,6.6c0,3.8-2.4,6.1-6.3,6.1l8.7,11.6L302.6,501.7z M292.8,488.3h2.2c3.8,0,5.5-0.9,5.5-4.3
		s-1.7-4.6-5.5-4.6h-2.2V488.3z"/>
	
		<linearGradient id="SVGID_00000077294381338146357170000000216056856624004994_" gradientUnits="userSpaceOnUse" x1="30.8348" y1="682.3575" x2="30.8348" y2="692.5495" gradientTransform="matrix(20.91 0 0 -25.26 -322.3392 17857.043)">
		<stop  offset="0" style="stop-color:#CDBF9A"/>
		<stop  offset="1.000000e-02" style="stop-color:#CDBF9A"/>
		<stop  offset="0.24" style="stop-color:#AF9251"/>
		<stop  offset="0.45" style="stop-color:#806C3B"/>
		<stop  offset="1" style="stop-color:#B79955"/>
	</linearGradient>
	<path style="fill:url(#SVGID_00000077294381338146357170000000216056856624004994_);" d="M322.6,476.5l10.2,25.3h-2.4l-3.1-8.3
		h-9.9l-3.2,8.2H312L322.6,476.5z M326.6,491.7l-4.2-10.6l-4.3,10.6L326.6,491.7z"/>
	
		<linearGradient id="SVGID_00000174564222074115170540000018046127602389317765_" gradientUnits="userSpaceOnUse" x1="30.8633" y1="682.7091" x2="30.8633" y2="692.6041" gradientTransform="matrix(19.27 0 0 -26.02 -242.7106 18384.7617)">
		<stop  offset="0" style="stop-color:#CDBF9A"/>
		<stop  offset="1.000000e-02" style="stop-color:#CDBF9A"/>
		<stop  offset="0.24" style="stop-color:#AF9251"/>
		<stop  offset="0.45" style="stop-color:#806C3B"/>
		<stop  offset="1" style="stop-color:#B79955"/>
	</linearGradient>
	<path style="fill:url(#SVGID_00000174564222074115170540000018046127602389317765_);" d="M342.4,476.4l17.2,20.3v-19.3h2.1v25
		l-17.2-20.3v19.7h-2.1V476.4z"/>
	
		<linearGradient id="SVGID_00000114059890573708146820000017511173250048752018_" gradientUnits="userSpaceOnUse" x1="30.9487" y1="681.913" x2="30.9487" y2="692.508" gradientTransform="matrix(15.6 0 0 -24.3 -102.8593 17191.1836)">
		<stop  offset="0" style="stop-color:#CDBF9A"/>
		<stop  offset="1.000000e-02" style="stop-color:#CDBF9A"/>
		<stop  offset="0.24" style="stop-color:#AF9251"/>
		<stop  offset="0.45" style="stop-color:#806C3B"/>
		<stop  offset="1" style="stop-color:#B79955"/>
	</linearGradient>
	<path style="fill:url(#SVGID_00000114059890573708146820000017511173250048752018_);" d="M378.8,479.5h-6.7v-2.1h15.6v2.1H381v22.2
		h-2.2L378.8,479.5z"/>
</g>
<g>
	<defs>
		<path id="SVGID_00000015345161069387989180000010448400909804190618_" d="M235.2,272.8c-17.8-14.6-20.3-40.9-5.7-58.6
			c2.5-3.1,5.5-5.8,8.8-8c5.7-3.8,12.2-6.1,19-6.7c22.8-2.3,43.2,14.2,45.5,37c0,0.1,0,0.2,0,0.3c1.1,11-1.9,21-9.2,30
			c-6.8,8.6-16.8,14-27.8,15c-1.6,0.2-3.2,0.2-4.9,0.2l0,0C251.5,282.2,242.4,278.9,235.2,272.8 M182.5,18.9l0.4,30.2l105.6-1.5
			l-19,32.2l-63.3,107.3l0.1,0.1l-2.4,4.1c-7.4,12.6-12.3,24.5-14.5,35.8c-1.5,7-1.9,14.1-1.2,21.2c2,19.2,11,35.1,27,47.7
			c16.3,12.5,34.4,17.8,54.2,15.7c20-2.1,36.4-10.9,49.2-26.6c12.9-15.8,18.3-33.7,16.2-53.7c-1.9-18.8-10-34.3-24.2-46.4
			c-14.3-12.2-30.3-17.5-48-15.7c-1.1,0.1-2.7,0.4-4.6,0.8s-4.3,0.9-7.1,1.6l44.8-76.4v-0.1l46.5-78.7L182.5,18.9z"/>
	</defs>
	<clipPath id="SVGID_00000079460497553868249160000017271283868533890488_">
		<use xlink:href="#SVGID_00000015345161069387989180000010448400909804190618_"  style="overflow:visible;"/>
	</clipPath>
	<g style="clip-path:url(#SVGID_00000079460497553868249160000017271283868533890488_);">
		
			<linearGradient id="SVGID_00000054268030522343241620000010307761713564998793_" gradientUnits="userSpaceOnUse" x1="30.5479" y1="693.9399" x2="30.5309" y2="693.1019" gradientTransform="matrix(175.33 0 0 -322 -5096.23 223483.3438)">
			<stop  offset="0" style="stop-color:#CCBE98"/>
			<stop  offset="1" style="stop-color:#A0864A"/>
		</linearGradient>
		<path style="fill:url(#SVGID_00000054268030522343241620000010307761713564998793_);" d="M346,0v322H170.7V0H346z"/>
	</g>
</g>
</svg>
