<!--svg xmlns="http://www.w3.org/2000/svg" xmlns:xlink="http://www.w3.org/1999/xlink" width="450.43" height="485.77" viewBox="0 0 450.43 485.77"-->
<svg xmlns="http://www.w3.org/2000/svg" xmlns:xlink="http://www.w3.org/1999/xlink" width="580" height="513.4" viewBox="0 0 580 513.4">
<filter id="glow">
    <feFlood flood-color="rgb(255,255,255)" flood-opacity="0.3" in="SourceGraphic" />
    <feComposite operator="in" in2="SourceGraphic" />
    <feGaussianBlur stdDeviation="10" />
    <feComponentTransfer result="glow1">
      <feFuncA type="linear" slope="4" intercept="0" />
    </feComponentTransfer>
    <feMerge>
       <feMergeNode in="glow1" />
       <feMergeNode in="SourceGraphic" />
    </feMerge>
</filter>
<defs>
    <linearGradient id="a" x1="0.5" y1="5.895" x2="0.5" y2="-4.7" gradientUnits="objectBoundingBox">
        <stop offset="0" stop-color="#cdbf9a"/>
        <stop offset="0.01" stop-color="#cdbf9a"/>
        <stop offset="0.24" stop-color="#af9251"/>
        <stop offset="0.45" stop-color="#806c3b"/>
        <stop offset="1" stop-color="#b79955"/>
    </linearGradient>
    <linearGradient id="b" x1="0.5" y1="5.891" x2="0.5" y2="-4.696" xlink:href="#a"/>
    <linearGradient id="c" x1="0.497" y1="5.639" x2="0.497" y2="-4.451" xlink:href="#a"/>
    <linearGradient id="d" x1="0.5" y1="5.895" x2="0.5" y2="-4.7" xlink:href="#a"/>
    <linearGradient id="e" x1="0.5" y1="5.707" x2="0.5" y2="-4.485" xlink:href="#a"/>
    <linearGradient id="f" x1="0.5" y1="5.742" x2="0.5" y2="-4.577" xlink:href="#a"/>
    <linearGradient id="i" x1="0.5" y1="5.545" x2="0.5" y2="-4.35" xlink:href="#a"/>
    <linearGradient id="j" x1="0.5" y1="5.895" x2="0.5" y2="-4.7" xlink:href="#a"/>
    <clipPath id="k">
    <path d="M600.71,343.32a41.66,41.66,0,0,1,3.06-66.63,40.8,40.8,0,0,1,19-6.66,41.49,41.49,0,0,1,45.55,37.34q1.71,16.56-9.21,30a39.76,39.76,0,0,1-27.76,15,47.389,47.389,0,0,1-4.86.25h0a39.74,39.74,0,0,1-25.79-9.25M548,89.42l.43,30.21L654,118.12l-19,32.19L571.66,257.58l.12.08-2.43,4.13q-11.15,18.88-14.54,35.82a70.936,70.936,0,0,0-1.2,21.23q3,28.86,27,47.68,24.51,18.78,54.2,15.74,30-3.08,49.15-26.62,19.29-23.7,16.22-53.68-2.9-28.27-24.19-46.39-21.46-18.37-48-15.66c-1.13.12-2.68.37-4.64.77s-4.33.92-7.12,1.58L661,165.87v-.07l46.45-78.66Z" transform="translate(-402.54 -87.14)" fill="rgba(0,0,0,0)"/></clipPath>
    <linearGradient id="l" x1="0.517" y1="0.108" x2="0.5" y2="0.946" gradientUnits="objectBoundingBox">
        <stop offset="0" stop-color="#ccbe98"/>
        <stop offset="1" stop-color="#a0864a"/>
    </linearGradient>
</defs>
<g filter="url(#glow)">
    <path d="M412.94,486c1.54,5.44,5.68,8.39,12.3,8.39,5.67,0,9-2.83,9-7.21,0-5.68-5.44-6.15-13-9.34-10.41-4.37-15.73-8.63-15.73-16.55,0-9.46,7.93-16.43,20.93-16.43,8.63,0,14.78,3.31,17.5,9L435.05,460c-1.3-3.43-4.73-5.68-9.1-5.68-4.85,0-7.92,2.49-7.92,6.27,0,5.32,5.91,6.15,14.42,9.58,9.57,3.78,14.07,8.27,14.07,16.19,0,10.64-8,17.5-22.35,17.5-10.64,0-17.61-3.9-21.63-12.18Z" transform="translate(-402.54 -87.14)" fill="#3c3c3b"/>
    <path d="M461.77,446.88H474.3v54.73H461.77Z" transform="translate(-402.54 -87.14)" fill="#3c3c3b"/>
    <path d="M487,501.61l20.69-29.43-17.74-25.3h13.84l7.68,11.35a43.233,43.233,0,0,1,3.79,6.62,74.125,74.125,0,0,1,3.9-6.74l7.56-11.23h13.72L522.7,472.29l20.57,29.32H529.51l-10.17-14.42a36.382,36.382,0,0,1-4.25-7.45,75.83,75.83,0,0,1-4.38,7.57l-9.93,14.3Z" transform="translate(-402.54 -87.14)" fill="#3c3c3b"/>
    <path d="M560.49,486c1.53,5.44,5.67,8.39,12.29,8.39,5.67,0,9-2.83,9-7.21,0-5.68-5.43-6.15-13-9.34-10.4-4.37-15.72-8.63-15.72-16.55,0-9.46,7.92-16.43,20.92-16.43,8.63,0,14.78,3.31,17.5,9L582.59,460c-1.3-3.43-4.73-5.68-9.1-5.68-4.85,0-7.92,2.49-7.92,6.27,0,5.32,5.91,6.15,14.42,9.58,9.58,3.78,14.07,8.27,14.07,16.19,0,10.64-8,17.5-22.34,17.5-10.64,0-17.62-3.9-21.64-12.18Z" transform="translate(-402.54 -87.14)" fill="#3c3c3b"/>
    <path d="M633.66,455.62c-8.15,0-13.12,3.91-15.13,12.06h29.92c-1-7.92-6.15-12.06-14.79-12.06m-15.95,20.46c.59,10.28,6.38,16.31,15.48,16.31,8,0,13.13-3.19,17.15-10.76l10.52,5.92c-6.15,11-15.13,16.31-27.43,16.31-17.5,0-28.73-11.59-28.73-29.44,0-17,11.71-29.44,28.73-29.44,17.61,0,28,10.53,28,28.73v2.37Z" transform="translate(-402.54 -87.14)" fill="#3c3c3b"/>
    <path d="M667,446.88h13.72l11.94,27.54a69.909,69.909,0,0,1,3.07,9.93,53.791,53.791,0,0,1,3.2-9.93l11.94-27.54h13.59l-28.73,58.05Z" transform="translate(-402.54 -87.14)" fill="#3c3c3b"/>
    <path d="M758.27,455.62c-8.15,0-13.12,3.91-15.13,12.06h29.91c-.94-7.92-6.14-12.06-14.78-12.06m-16,20.46c.59,10.28,6.39,16.31,15.49,16.31,8,0,13.12-3.19,17.14-10.76l10.53,5.92c-6.15,11-15.14,16.31-27.43,16.31-17.5,0-28.73-11.59-28.73-29.44,0-17,11.7-29.44,28.73-29.44,17.61,0,28,10.53,28,28.73v2.37Z" transform="translate(-402.54 -87.14)" fill="#3c3c3b"/>
    <path d="M800.13,446.88H812v9c5-7.7,11.54-10.88,21.11-10.88,8.16,0,13.95,2.61,17.14,7.69,2.72,4.14,2.72,9.1,2.72,15.72v33.22H840.32V473.48c0-12.18-1.53-17.86-11.94-17.86-5.91,0-10.64,2.25-13.24,6.15-2.24,3.31-2.48,8-2.48,14.9v24.94H800.13Z" transform="translate(-402.54 -87.14)" fill="#3c3c3b"/>
    <path d="M514.3,572.21l-8.53-11.59h-1.33v11.59h-2.21v-24.3h4.45c5.27,0,7.89,2.17,7.89,6.62,0,3.81-2.41,6.09-6.32,6.09L517,572.21Zm-9.86-13.39h2.21c3.77,0,5.54-.89,5.54-4.35s-1.67-4.63-5.54-4.63h-2.21Z" transform="translate(-402.54 -87.14)" fill="url(#a)"/>
    <path d="M527,547.91h12V550h-9.83v7.61H539v2.08h-9.83v10.47H539v2.07H527Z" transform="translate(-402.54 -87.14)" fill="url(#b)"/>
    <path d="M551.26,567.11a4.94,4.94,0,0,0,5,3.78c3.06,0,4.9-1.87,4.9-5.14,0-3-1.77-4.11-4.63-5.61-3.84-2-6.08-3.57-6.08-7s2.55-5.84,6.29-5.84a5.73,5.73,0,0,1,5.37,3.09l-1.7,1a4,4,0,0,0-3.81-2.14,3.64,3.64,0,0,0-3.91,3.91c0,3,2.21,3.64,5.37,5.37,3.57,1.94,5.2,3.5,5.2,7.17,0,4.36-2.72,7.11-7.1,7.11-3.2,0-5.47-1.6-6.77-4.73Z" transform="translate(-402.54 -87.14)" fill="url(#c)"/>
    <path d="M579.27,550h-6.7v-2.07h15.61V550h-6.7v22.23h-2.21Z" transform="translate(-402.54 -87.14)" fill="url(#d)"/>
    <path d="M606,547l10.23,25.26h-2.41l-3.1-8.22h-9.93l-3.23,8.22h-2.24Zm4,15.13-4.15-10.57-4.32,10.57Z" transform="translate(-402.54 -87.14)" fill="url(#e)"/>
    <path d="M627.82,547.91v15.87c0,4.76,2.15,7.11,6.67,7.11s6.63-2.35,6.63-7.11V547.91h2.21v15.16c0,6.56-2.89,9.79-8.84,9.79s-8.84-3.23-8.84-9.79V547.91Z" transform="translate(-402.54 -87.14)" fill="url(#f)"/>
    <path d="M668.15,572.21l-8.54-11.59h-1.32v11.59h-2.21v-24.3h4.45c5.27,0,7.89,2.17,7.89,6.62,0,3.81-2.42,6.09-6.33,6.09l8.74,11.59Zm-9.86-13.39h2.21c3.77,0,5.54-.89,5.54-4.35s-1.67-4.63-5.54-4.63h-2.21Z" transform="translate(-402.54 -87.14)" fill="url(#a)"/>
    <path d="M688.17,547l10.24,25.26H696L692.9,564H683l-3.23,8.22H677.5Zm4,15.13L688,551.51l-4.32,10.57Z" transform="translate(-402.54 -87.14)" fill="url(#e)"/>
    <path d="M707.93,546.89l17.2,20.33V547.91h2.07v25L710,552.56v19.65h-2.07Z" transform="translate(-402.54 -87.14)" fill="url(#i)"/>
    <path d="M744.37,550h-6.69v-2.07h15.6V550h-6.7v22.23h-2.21Z" transform="translate(-402.54 -87.14)" fill="url(#j)"/>
</g>
 <g clip-path="url(#k)">
    <path d="M79.53-114V208H-95.8V-114Z" transform="translate(229.47 97.333)" fill="url(#l)"/>
</g>
</svg>