<svg xmlns="http://www.w3.org/2000/svg" xmlns:xlink="http://www.w3.org/1999/xlink" width="116.925" height="108.488" viewBox="0 0 116.925 108.488">
  <defs>
    <clipPath id="clip-path">
      <path id="Tracé_5553" data-name="Tracé 5553" d="M196.181,83.036a10.8,10.8,0,0,1-1.48-15.213,10.223,10.223,0,0,1,2.285-2.077,10.545,10.545,0,0,1,4.932-1.739,10.761,10.761,0,0,1,11.812,9.605v.078a10.726,10.726,0,0,1-10.877,11.734h0a9.988,9.988,0,0,1-6.672-2.388M182.5,17.123l.1,7.84,27.414-.389-4.932,8.359L188.653,60.788l.026.026-.623,1.064a29.9,29.9,0,0,0-3.764,9.294,17.825,17.825,0,0,0-.312,5.5,17.591,17.591,0,0,0,7.009,12.383,19.1,19.1,0,0,0,14.071,4.076,19.073,19.073,0,0,0,16.978-20.846,17.6,17.6,0,0,0-6.282-12.046,16.061,16.061,0,0,0-12.461-4.076,11.7,11.7,0,0,0-1.194.208c-.493.1-1.116.234-1.843.415l11.63-19.834v-.026L223.959,16.5Z" transform="translate(-182.5 -16.5)"/>
    </clipPath>
    <linearGradient id="linear-gradient" x1="-0.799" y1="2.155" x2="-0.8" y2="2.152" gradientUnits="objectBoundingBox">
      <stop offset="0" stop-color="#ccbe98"/>
      <stop offset="1" stop-color="#a0864a"/>
    </linearGradient>
  </defs>
  <g id="logo-sixseven" transform="translate(-37 -16.5)">
    <g id="Groupe_4635" data-name="Groupe 4635" transform="translate(37 109.412)">
      <path id="Tracé_5534" data-name="Tracé 5534" d="M39.7,385.07a2.967,2.967,0,0,0,3.193,2.181c1.48,0,2.336-.727,2.336-1.869,0-1.48-1.4-1.584-3.375-2.414-2.7-1.142-4.076-2.259-4.076-4.309,0-2.466,2.051-4.258,5.426-4.258,2.233,0,3.842.857,4.543,2.336l-2.31,1.584a2.418,2.418,0,0,0-2.362-1.48c-1.272,0-2.051.649-2.051,1.635,0,1.376,1.532,1.584,3.738,2.492,2.492.987,3.66,2.155,3.66,4.206,0,2.752-2.077,4.543-5.815,4.543-2.752,0-4.569-1.012-5.607-3.167Z" transform="translate(-37 -374.4)" fill="#3c3c3b"/>
      <path id="Tracé_5535" data-name="Tracé 5535" d="M96.2,376.4h3.245v14.2H96.2Z" transform="translate(-80.831 -375.881)" fill="#3c3c3b"/>
      <path id="Tracé_5536" data-name="Tracé 5536" d="M121.5,390.6l5.374-7.632-4.595-6.568h3.583l2,2.959a11.261,11.261,0,0,1,.986,1.713,19.03,19.03,0,0,1,1.012-1.739l1.973-2.908h3.557l-4.6,6.594,5.348,7.606h-3.608l-2.648-3.738a8.929,8.929,0,0,1-1.09-1.947,21.557,21.557,0,0,1-1.142,1.973l-2.57,3.712H121.5Z" transform="translate(-99.563 -375.881)" fill="#3c3c3b"/>
      <path id="Tracé_5537" data-name="Tracé 5537" d="M187.274,385.144a2.967,2.967,0,0,0,3.193,2.181c1.48,0,2.336-.727,2.336-1.869,0-1.48-1.4-1.584-3.375-2.414-2.7-1.142-4.076-2.233-4.076-4.283,0-2.466,2.051-4.257,5.426-4.257,2.233,0,3.842.857,4.543,2.336l-2.31,1.584a2.418,2.418,0,0,0-2.362-1.48c-1.246,0-2.051.649-2.051,1.635,0,1.376,1.532,1.584,3.738,2.492,2.492.986,3.66,2.155,3.66,4.206,0,2.752-2.077,4.543-5.789,4.543-2.752,0-4.569-1.012-5.607-3.167Z" transform="translate(-146.283 -374.474)" fill="#3c3c3b"/>
      <path id="Tracé_5538" data-name="Tracé 5538" d="M246.777,377.252a3.653,3.653,0,0,0-3.92,3.141h7.762c-.26-2.051-1.584-3.141-3.842-3.141m-4.128,5.322c.156,2.674,1.661,4.232,4.024,4.232a4.606,4.606,0,0,0,4.465-2.8l2.726,1.532a7.608,7.608,0,0,1-7.113,4.232c-4.543,0-7.451-3.011-7.451-7.632a7.246,7.246,0,0,1,7.451-7.632c4.569,0,7.269,2.726,7.269,7.451v.623Z" transform="translate(-186.782 -374.474)" fill="#3c3c3b"/>
      <path id="Tracé_5539" data-name="Tracé 5539" d="M301.5,376.4h3.557l3.089,7.139a17.379,17.379,0,0,1,.8,2.57,12.907,12.907,0,0,1,.831-2.57l3.089-7.139H316.4l-7.451,15.057Z" transform="translate(-232.835 -375.881)" fill="#3c3c3b"/>
      <path id="Tracé_5540" data-name="Tracé 5540" d="M371.228,377.252a3.653,3.653,0,0,0-3.92,3.141h7.762c-.234-2.051-1.584-3.141-3.842-3.141m-4.154,5.322c.156,2.674,1.661,4.232,4.024,4.232a4.549,4.549,0,0,0,4.439-2.8l2.726,1.532a7.608,7.608,0,0,1-7.113,4.232c-4.543,0-7.451-3.011-7.451-7.632a7.246,7.246,0,0,1,7.451-7.632c4.569,0,7.269,2.726,7.269,7.451v.623Z" transform="translate(-278.888 -374.474)" fill="#3c3c3b"/>
      <path id="Tracé_5541" data-name="Tracé 5541" d="M434.6,374.993h3.089v2.336a5.886,5.886,0,0,1,5.478-2.83c2.129,0,3.634.675,4.439,2,.7,1.064.7,2.362.7,4.076v8.619h-3.271V381.9c0-3.167-.389-4.647-3.089-4.647a3.939,3.939,0,0,0-3.427,1.584c-.571.857-.649,2.077-.649,3.868v6.464h-3.245V374.993Z" transform="translate(-331.382 -374.474)" fill="#3c3c3b"/>
    </g>
    <g id="Groupe_4637" data-name="Groupe 4637" transform="translate(74.772 16.5)">
      <g id="Groupe_4636" data-name="Groupe 4636" transform="translate(0)" clip-path="url(#clip-path)">
        <path id="Tracé_5552" data-name="Tracé 5552" d="M216.209,0V83.592H170.7V0Z" transform="translate(-173.763 -4.283)" fill="url(#linear-gradient)"/>
      </g>
    </g>
  </g>
</svg>
