<?xml version="1.0" encoding="utf-8"?>
<!-- Generator: Adobe Illustrator 26.3.1, SVG Export Plug-In . SVG Version: 6.00 Build 0)  -->
<svg version="1.1" id="Calque_1" xmlns="http://www.w3.org/2000/svg" xmlns:xlink="http://www.w3.org/1999/xlink" x="0px" y="0px"
	 viewBox="0 0 108.1 206" style="enable-background:new 0 0 108.1 206;" xml:space="preserve">
<style type="text/css">
	.st0{fill:url(#Soustraction_1_00000029734311515426875020000018347101114730798251_);}
</style>
<g id="Groupe_4528">
	
		<linearGradient id="Soustraction_1_00000000191716007029953330000016193002947116449965_" gradientUnits="userSpaceOnUse" x1="-240.167" y1="521.1711" x2="-240.0725" y2="522.4773" gradientTransform="matrix(103.3135 0 0 -184.033 24862.1738 96116.9609)">
		<stop  offset="0" style="stop-color:#A0864A"/>
		<stop  offset="0.276" style="stop-color:#A0864A"/>
		<stop  offset="0.8827" style="stop-color:#A0864A;stop-opacity:0"/>
	</linearGradient>
	<path id="Soustraction_1" style="fill:url(#Soustraction_1_00000000191716007029953330000016193002947116449965_);" d="M51.3,206
		c-2.9,0-5.7-0.2-8.5-0.7c-2.8-0.5-5.5-1.2-8.2-2.1c-2.7-1-5.3-2.1-7.9-3.5c-2.6-1.5-5.1-3.1-7.5-4.9c-2.7-2.1-5.2-4.5-7.5-7.1
		c-2.1-2.4-4-5.1-5.7-7.9c-1.6-2.8-2.9-5.7-3.8-8.8c-1-3.1-1.6-6.4-2-9.7c-0.5-5-0.2-10,0.8-14.9c0.8-4.2,2.1-8.3,3.7-12.2
		c1.8-4.4,4-8.8,6.4-12.9l1.7-2.9l-0.1-0.1l44.4-75.2L82.4,0h24.8L75.6,53.9v0.1l-31.4,53.6c1.9-0.5,3.5-0.8,4.8-1.1l0.2,0
		c1.1-0.2,2.1-0.4,3.2-0.6c1.6-0.2,3.1-0.2,4.7-0.2c2.6,0,5.2,0.2,7.8,0.7c2.5,0.5,5,1.2,7.4,2.1c2.5,1,4.8,2.1,7.1,3.5
		c2.4,1.5,4.6,3.1,6.7,4.9c2.4,2.1,4.7,4.3,6.7,6.8c3.9,4.8,6.8,10.3,8.5,16.3c0.9,3.1,1.5,6.3,1.8,9.4c0.4,3.4,0.4,6.8,0.1,10.2
		c-0.3,3.3-0.9,6.5-1.9,9.7c-1,3.2-2.2,6.2-3.8,9.1c-1.7,3-3.6,5.9-5.8,8.6c-2.2,2.7-4.6,5.1-7.2,7.4c-5,4.3-10.9,7.4-17.2,9.3
		c-3.3,1-6.6,1.6-10,2C55.2,205.9,53.3,206,51.3,206z M51.7,126.8c-1,0-2,0.1-3,0.2c-2.4,0.2-4.7,0.7-6.9,1.5
		c-2.2,0.8-4.4,1.9-6.4,3.2c-2.3,1.5-4.4,3.4-6.2,5.6c-7.5,9.1-8.8,21.7-3.3,32.1c0.9,1.7,1.9,3.3,3.2,4.8c1.2,1.5,2.6,2.9,4.2,4.2
		c2.4,2.1,5.2,3.7,8.2,4.8c3,1.1,6.1,1.7,9.3,1.7c0.2,0,0.4,0,0.6,0c1.1,0,2.3,0,3.4-0.1c1.9-0.2,3.8-0.5,5.6-1.1
		c5.5-1.6,10.3-4.9,13.9-9.4c1.2-1.5,2.3-3.1,3.3-4.9c0.9-1.6,1.6-3.3,2.2-5.1c0.5-1.8,0.9-3.6,1.1-5.4c0.2-1.9,0.2-3.8,0-5.7v-0.2
		c-0.5-5.4-2.6-10.6-5.9-14.8C69.1,131,60.6,126.9,51.7,126.8L51.7,126.8z"/>
</g>
</svg>
