<svg xmlns="http://www.w3.org/2000/svg" xmlns:xlink="http://www.w3.org/1999/xlink" width="580" height="513.4" viewBox="0 0 580 513.4">
<filter id="glow">
    <feFlood flood-color="rgb(255,255,255)" flood-opacity="0.1" in="SourceGraphic" />
    <feComposite operator="in" in2="SourceGraphic" />
    <feGaussianBlur stdDeviation="5" />
    <feComponentTransfer result="glow1">
      <feFuncA type="linear" slope="4" intercept="0" />
    </feComponentTransfer>
    <feMerge>
       <feMergeNode in="glow1" />
       <feMergeNode in="SourceGraphic" />
    </feMerge>
</filter>
<defs>
    <linearGradient id="a" x1="0.477" x2="0.469" y2="1.519" gradientUnits="objectBoundingBox">
        <stop offset="0" stop-color="#cec09b"/>
        <stop offset="0.23" stop-color="#b09351"/>
        <stop offset="1" stop-color="#806c3b"/>
    </linearGradient>
</defs>
<g transform="translate(1129 -5109)">
    <g filter="url(#glow)">
        <path d="M12.8,512.3,3.8,500H2.3v12.3H0V486.6H4.7c5.6,0,8.4,2.3,8.4,7,0,4-2.6,6.4-6.7,6.4l9.2,12.3ZM2.3,498.1H4.6c4,0,5.9-.9,5.9-4.6s-1.8-4.9-5.9-4.9H2.3Z" transform="translate(-1129 5109)" fill="#806c3b"/>
        <path d="M48.5,509A13.883,13.883,0,0,1,29,509a13.452,13.452,0,0,1,9.7-23,13.492,13.492,0,0,1,13.8,13.5A13.075,13.075,0,0,1,48.5,509Zm1.5-9.5a11.3,11.3,0,1,0-11.3,11.4A11.333,11.333,0,0,0,50,499.5Z" transform="translate(-1129 5109)" fill="#806c3b"/>
        <path d="M68.1,500.5l-8.5-13.9h2.8l6.9,11.8,7-11.8H79l-8.5,13.9v11.8H68.2l-.1-11.8Z" transform="translate(-1129 5109)" fill="#806c3b"/>
        <path d="M94.2,485.6,105,512.4h-2.6l-3.3-8.7H88.7l-3.4,8.7H82.9Zm4.2,16L94,490.4l-4.6,11.2Z" transform="translate(-1129 5109)" fill="#806c3b"/>
        <path d="M115.1,486.6h2.3v23.5h8.8v2.2H115V486.6Z" transform="translate(-1129 5109)" fill="#806c3b"/>
        <path d="M154.7,486.6H157V497h14V486.6h2.3v25.7H171V499H157v13.3h-2.3Z" transform="translate(-1129 5109)" fill="#806c3b"/>
        <path d="M194.8,485.6l10.8,26.8H203l-3.3-8.7H189.2l-3.4,8.7h-2.4Zm4.3,16-4.4-11.2-4.6,11.2Z" transform="translate(-1129 5109)" fill="#806c3b"/>
        <path d="M218.4,492.7l-1.9,19.6h-2.4l3.5-26.8,9.9,22.9,10.2-22.9,3.3,26.8h-2.4l-1.9-19.6-9.2,20.7Z" transform="translate(-1129 5109)" fill="#806c3b"/>
        <path d="M253,486.6h2.3v25.7H253Z" transform="translate(-1129 5109)" fill="#806c3b"/>
        <path d="M269,486.6h2.3v23.5h8.8v2.2H269V486.6Z" transform="translate(-1129 5109)" fill="#806c3b"/>
        <path d="M291,486.6h2.3v25.7H291Z" transform="translate(-1129 5109)" fill="#806c3b"/>
        <path d="M309.2,486.6v16.8c0,5,2.3,7.5,7,7.5,4.8,0,7-2.5,7-7.5V486.6h2.3v16c0,7-3.1,10.4-9.4,10.4s-9.4-3.4-9.4-10.4v-16Z" transform="translate(-1129 5109)" fill="#806c3b"/>
        <path d="M339.1,506.9a5.168,5.168,0,0,0,5.3,4c3.2,0,5.2-2,5.2-5.4,0-3.2-1.9-4.4-4.9-5.9-4.1-2.1-6.4-3.8-6.4-7.4S341,486,345,486a6.038,6.038,0,0,1,5.7,3.3l-1.8,1.1a4.182,4.182,0,0,0-4-2.3,3.784,3.784,0,0,0-4.1,4.1c0,3.1,2.3,3.8,5.7,5.7,3.8,2,5.5,3.7,5.5,7.6,0,4.6-2.9,7.5-7.5,7.5-3.4,0-5.8-1.7-7.2-5Z" transform="translate(-1129 5109)" fill="#806c3b"/>
        <path d="M394.6,512.3l-9-12.3h-1.4v12.3h-2.3V486.6h4.7c5.6,0,8.3,2.3,8.3,7,0,4-2.6,6.4-6.7,6.4l9.2,12.3Zm-10.5-14.2h2.3c4,0,5.9-.9,5.9-4.6s-1.8-4.9-5.9-4.9h-2.3Z" transform="translate(-1129 5109)" fill="#806c3b"/>
        <path d="M429.3,509a13.883,13.883,0,0,1-19.5,0,13.452,13.452,0,0,1,9.7-23,13.492,13.492,0,0,1,13.8,13.5A13.075,13.075,0,0,1,429.3,509Zm1.5-9.5a11.3,11.3,0,1,0-11.3,11.4A11.333,11.333,0,0,0,430.8,499.5Z" transform="translate(-1129 5109)" fill="#806c3b"/>
        <path d="M466,509a13.883,13.883,0,0,1-19.5,0,13.452,13.452,0,0,1,9.7-23A13.492,13.492,0,0,1,470,499.5,13.075,13.075,0,0,1,466,509Zm1.5-9.5a11.3,11.3,0,1,0-11.3,11.4A11.333,11.333,0,0,0,467.5,499.5Z" transform="translate(-1129 5109)" fill="#806c3b"/>
        <path d="M481.4,486.6h12.7v2.2H483.7v8.1h10v2.2h-10v13.3h-2.3V486.6Z" transform="translate(-1129 5109)" fill="#806c3b"/>
        <path d="M511.2,488.8h-7.1v-2.2h16.5v2.2h-7.1v23.5h-2.3V488.8Z" transform="translate(-1129 5109)" fill="#806c3b"/>
        <path d="M551,509a13.759,13.759,0,0,1-9.8,4,13.528,13.528,0,0,1-9.7-4,13.452,13.452,0,0,1,9.7-23A13.492,13.492,0,0,1,555,499.5,13.075,13.075,0,0,1,551,509Zm1.6-9.5a11.3,11.3,0,1,0-11.3,11.4A11.333,11.333,0,0,0,552.6,499.5Z" transform="translate(-1129 5109)" fill="#806c3b"/>
        <path d="M566.4,486.6h5c2.4,0,4.4.1,6,1.3a7.111,7.111,0,0,1,2.6,5.8c0,5.1-2.9,7.1-8.6,7.1h-2.7v11.6h-2.3V486.6Zm3.9,12.1c4.6,0,7.2-.5,7.2-4.9a5.62,5.62,0,0,0-1.7-4.2c-1.2-1-2.9-1-5.5-1h-1.6v10.1Z" transform="translate(-1129 5109)" fill="#806c3b"/>
    </g>
    <g transform="translate(-1129 5109)" filter="url(#glow)">
        <path d="M62.8,421.8c1.6,5.8,6,8.9,13,8.9,6,0,9.5-3,9.5-7.6,0-6-5.8-6.5-13.8-9.9-11-4.6-16.6-9.1-16.6-17.5,0-10,8.4-17.4,22.1-17.4,9.1,0,15.6,3.5,18.5,9.5l-9.4,6.5c-1.4-3.6-5-6-9.6-6-5.1,0-8.4,2.6-8.4,6.6,0,5.6,6.2,6.5,15.2,10.1,10.1,4,14.9,8.8,14.9,17.1,0,11.2-8.5,18.5-23.6,18.5-11.2,0-18.6-4.1-22.9-12.9Z" fill="#3c3c3b"/>
        <path d="M114.5,380.4h13.2v57.9H114.5Z" fill="#3c3c3b"/>
        <path d="M141.1,438.3,163,407.2l-18.8-26.8h14.6l8.1,12a37.966,37.966,0,0,1,4,7,62.342,62.342,0,0,1,4.1-7.1l8-11.9h14.5l-18.8,26.9,21.8,31H186l-10.8-15.2a34.834,34.834,0,0,1-4.5-7.9,75.367,75.367,0,0,1-4.6,8l-10.5,15.1Z" fill="#3c3c3b"/>
        <path d="M218.9,421.8c1.6,5.8,6,8.9,13,8.9,6,0,9.5-3,9.5-7.6,0-6-5.8-6.5-13.8-9.9-11-4.6-16.6-9.1-16.6-17.5,0-10,8.4-17.4,22.1-17.4,9.1,0,15.6,3.5,18.5,9.5l-9.4,6.5c-1.4-3.6-5-6-9.6-6-5.1,0-8.4,2.6-8.4,6.6,0,5.6,6.2,6.5,15.2,10.1,10.1,4,14.9,8.8,14.9,17.1,0,11.2-8.5,18.5-23.6,18.5-11.2,0-18.6-4.1-22.9-12.9Z" fill="#3c3c3b"/>
        <path d="M296.3,389.7c-8.6,0-13.9,4.1-16,12.8h31.6c-1-8.4-6.5-12.8-15.6-12.8m-16.9,21.6c.6,10.9,6.8,17.2,16.4,17.2,8.5,0,13.9-3.4,18.1-11.4l11.1,6.2c-6.5,11.6-16,17.2-29,17.2-18.5,0-30.4-12.2-30.4-31.1,0-18,12.4-31.1,30.4-31.1,18.6,0,29.6,11.1,29.6,30.4v2.5l-46.2.1Z" fill="#3c3c3b"/>
        <path d="M331.5,380.4H346l12.6,29.1a59.681,59.681,0,0,1,3.2,10.5,61.081,61.081,0,0,1,3.4-10.5l12.6-29.1h14.4l-30.4,61.4Z" fill="#3c3c3b"/>
        <path d="M428,389.7c-8.6,0-13.9,4.1-16,12.8h31.6c-.9-8.4-6.4-12.8-15.6-12.8m-16.8,21.6c.6,10.9,6.8,17.2,16.4,17.2,8.5,0,13.9-3.4,18.1-11.4l11.1,6.2c-6.5,11.6-16,17.2-29,17.2-18.5,0-30.4-12.2-30.4-31.1,0-18,12.4-31.1,30.4-31.1,18.6,0,29.6,11.1,29.6,30.4v2.5l-46.2.1Z" fill="#3c3c3b"/>
        <path d="M472.3,380.4h12.5v9.5c5.4-8.1,12.2-11.5,22.4-11.5,8.6,0,14.8,2.8,18.1,8.1,2.9,4.4,2.9,9.6,2.9,16.6v35.1H514.8V408.4c0-12.9-1.6-18.9-12.6-18.9-6.2,0-11.2,2.4-14,6.5-2.4,3.5-2.6,8.5-2.6,15.8v26.4H472.4V380.4Z" fill="#3c3c3b"/>
    </g>
    <g transform="translate(-1129 5109)">
        <path d="M261.4,270.9a43.8,43.8,0,0,1-6.3-61.6,44.046,44.046,0,0,1,9.6-8.8,44.723,44.723,0,0,1,52.4,2.7c9.3,7.6,14.6,17.5,15.9,29.8,1.2,11.7-2,22.2-9.8,31.7a42.489,42.489,0,0,1-29.3,15.9,44.917,44.917,0,0,1-5.1.3,43.541,43.541,0,0,1-27.4-10M205.7,2.4l.5,31.9,111.7-1.6-20.1,34-67,113.4.1.1-2.6,4.4c-7.8,13.3-13,25.9-15.4,37.9a75.246,75.246,0,0,0-1.3,22.5q3.15,30.45,28.6,50.4c17.3,13.2,36.4,18.8,57.3,16.6,21.1-2.2,38.5-11.5,52-28.1q20.4-25.05,17.2-56.8c-2-19.9-10.6-36.3-25.6-49.1-15.1-13-32.1-18.5-50.8-16.5-1.2.1-2.8.4-4.9.8s-4.6,1-7.5,1.7l47.4-80.8v-.1L374.4,0Z" fill="url(#a)"/>
    </g>
</g>
</svg>