<svg xmlns="http://www.w3.org/2000/svg" width="13.887" height="16.2" viewBox="0 0 13.887 16.2">
  <path id="np_hotel-bell_4830208_000000" d="M21.3,23.021V21.758a6.948,6.948,0,0,0-6.365-6.914V13.657h.579a.579.579,0,0,0,0-1.157H13.2a.579.579,0,0,0,0,1.157h.579v1.187a6.948,6.948,0,0,0-6.365,6.914v1.264a1.732,1.732,0,0,0,.579,3.365h12.73a1.732,1.732,0,0,0,.579-3.365ZM8.568,21.758a5.786,5.786,0,0,1,11.572,0v1.157H8.568Zm12.151,3.472H7.989a.579.579,0,0,1,0-1.157h12.73a.579.579,0,0,1,0,1.157Z" transform="translate(-12.5 22.454) rotate(-90)" fill="#a0864a"/>
</svg>
