<svg xmlns="http://www.w3.org/2000/svg" width="43" height="43" viewBox="0 0 43 43">
  <g id="Groupe_4590" data-name="Groupe 4590" transform="translate(5221 -7969)">
    <g id="np_parking_3104695_000000" transform="translate(-5221 7969)">
      <g id="Ellipse_139" data-name="Ellipse 139" fill="none" stroke="#a0864a" stroke-width="1">
        <circle cx="21.5" cy="21.5" r="21.5" stroke="none"/>
        <circle cx="21.5" cy="21.5" r="21" fill="none"/>
      </g>
    </g>
    <g id="Groupe_4549" data-name="Groupe 4549" transform="translate(-5208.947 7977.602)">
      <path id="Tracé_5462" data-name="Tracé 5462" d="M42.339,27.171H32.1a1.144,1.144,0,0,0-1.144,1.146V51.751A1.143,1.143,0,0,0,32.1,52.9H37.91a1.143,1.143,0,0,0,1.144-1.146V48.468h3.285a10.649,10.649,0,1,0,0-21.3Zm0,19.008H37.91a1.143,1.143,0,0,0-1.144,1.144v3.285H33.241V29.461h9.1a8.359,8.359,0,1,1,0,16.718Z" transform="translate(-30.953 -27.17)" fill="#a0864a" stroke="#fff" stroke-width="1"/>
      <path id="Tracé_5463" data-name="Tracé 5463" d="M46.813,36.914H41a1.145,1.145,0,0,0-1.144,1.144v8.027A1.143,1.143,0,0,0,41,47.231h5.813a5.159,5.159,0,1,0,0-10.317Zm0,8.027H42.146V39.2h4.667a2.952,2.952,0,0,1,2.914,2.916,2.87,2.87,0,0,1-2.914,2.822Z" transform="translate(-34.966 -31.561)" fill="#a0864a" stroke="#fff" stroke-width="1"/>
    </g>
  </g>
</svg>
