<svg xmlns="http://www.w3.org/2000/svg" xmlns:xlink="http://www.w3.org/1999/xlink" width="41.5" height="41.479" viewBox="0 0 41.5 41.479">
  <defs>
    <clipPath id="clip-path">
      <path id="path1450" d="M2633.962,791.445h22.466v20.974h-22.466Zm0,0" transform="translate(-2633.962 -791.445)"/>
    </clipPath>
    <clipPath id="clip-path-2">
      <path id="path1453" d="M2642.752,835.016H2663.9v21.826h-21.144Zm0,0" transform="translate(-2642.752 -835.016)"/>
    </clipPath>
    <clipPath id="clip-path-3">
      <path id="path1456" d="M2616.131,817.437h21.258V839.9h-21.258Zm0,0" transform="translate(-2616.131 -817.437)"/>
    </clipPath>
  </defs>
  <g id="layer1" transform="translate(420.136 104.656)">
    <g id="g3100" transform="translate(-412.094 -104.657)" clip-path="url(#clip-path)">
      <path id="path3098" d="M2653.441,793.959a8.606,8.606,0,0,0-12.152-.005,8.761,8.761,0,0,0-1.827,2.7c-.083.2-.16.408-.232.614-.047.139-.718,2.617-1.5,5.508-.052.186-.1.372-.15.557s-.1.372-.15.563c-1.074,3.985-2.235,8.3-2.235,8.3s4.29-1.151,8.275-2.225c.186-.052.372-.1.558-.15s.372-.1.552-.15l3.882-1.048.557-.155c.217-.057.4-.108.558-.15-1.079-3.99-2.235-8.306-2.235-8.306l8.311,2.235c.047-.186.1-.372.134-.558s.062-.382.083-.573a8.571,8.571,0,0,0-2.431-7.16" transform="translate(-2634.64 -791.445)" fill="#e62175"/>
    </g>
    <g id="g3104" transform="translate(-408.129 -85.004)" clip-path="url(#clip-path-2)">
      <path id="path3102" d="M2655.577,839.638c-.186.046-.372.1-.557.145s-.372.1-.552.15c-1.5.4-2.875.779-3.887,1.053-.2.052-.387.1-.558.15-.212.062-.4.108-.552.155,1.074,3.985,2.23,8.285,2.23,8.285l-8.286-2.225c-.052.181-.1.367-.139.557s-.057.382-.083.573a8.587,8.587,0,0,0,14.583,7.165,8.457,8.457,0,0,0,1.822-2.7c.088-.2.165-.4.238-.614.046-.139.717-2.617,1.5-5.513.052-.181.1-.372.149-.557s.1-.372.155-.563c1.074-3.985,2.23-8.291,2.23-8.291s-4.305,1.151-8.291,2.23" transform="translate(-2642.956 -836.329)" fill="#fdc52b"/>
    </g>
    <path id="path3106" d="M-355.9-79.571a8.631,8.631,0,0,0-2.7-1.822c-.2-.083-.4-.16-.609-.232-.145-.046-2.612-.718-5.5-1.5-.186-.047-.372-.1-.563-.15s-.366-.1-.552-.15l-8.311-2.235s1.156,4.316,2.235,8.306c.046.186.1.372.15.558s.1.367.15.552c.4,1.487.769,2.855,1.043,3.861.052.2.1.392.15.558.057.217.108.4.155.558,3.985-1.079,8.291-2.23,8.291-2.23s-1.156,4.305-2.235,8.291c.191.052.372.1.563.139s.382.057.573.083a8.576,8.576,0,0,0,1.089.077,8.592,8.592,0,0,0,6.076-2.509,8.609,8.609,0,0,0,0-12.157" transform="translate(-25.252 -10.43)" fill="#94bf1e"/>
    <g id="g3110" transform="translate(-420.136 -92.933)" clip-path="url(#clip-path-3)">
      <path id="path3108" d="M2634.654,830.837c-.052-.181-.1-.367-.15-.552s-.1-.372-.15-.552c-.4-1.487-.769-2.86-1.048-3.867-.052-.2-.1-.387-.145-.558-.062-.212-.114-.392-.155-.552-3.985,1.074-8.27,2.225-8.27,2.225s1.156-4.31,2.23-8.3c-.186-.052-.372-.1-.563-.139s-.377-.057-.573-.088a9.96,9.96,0,0,0-1.11-.077,8.588,8.588,0,0,0-3.381,16.488c.2.083.4.16.614.232.145.052,2.623.718,5.523,1.5.186.052.377.1.563.15s.366.1.557.15c3.98,1.074,8.28,2.23,8.28,2.23s-1.151-4.3-2.225-8.291" transform="translate(-2616.132 -817.952)" fill="#00a6e3"/>
    </g>
  </g>
</svg>
