<svg xmlns="http://www.w3.org/2000/svg" width="43" height="43" viewBox="0 0 43 43">
  <g id="Groupe_4622" data-name="Groupe 4622" transform="translate(4946 -7981)">
    <g id="Groupe_4546" data-name="Groupe 4546" transform="translate(-4946 7981)">
      <g id="np_parking_3104695_000000">
        <g id="Ellipse_139" data-name="Ellipse 139" fill="none" stroke="#a0864a" stroke-width="1">
          <circle cx="21.5" cy="21.5" r="21.5" stroke="none"/>
          <circle cx="21.5" cy="21.5" r="21" fill="none"/>
        </g>
      </g>
      <g id="Groupe_4544" data-name="Groupe 4544" transform="translate(11.496 9.033)">
        <path id="Tracé_5449" data-name="Tracé 5449" d="M33.569,55.679a.706.706,0,0,1-.5-.2.716.716,0,0,1-.009-.994.7.7,0,0,1,1.2.5.713.713,0,0,1-.2.5.737.737,0,0,1-.5.2Z" transform="translate(-28.696 -40.287)" fill="#a0864a"/>
        <path id="Tracé_5450" data-name="Tracé 5450" d="M63.848,55.688a.7.7,0,0,1-.5-.2.692.692,0,0,1-.009-.994.726.726,0,0,1,.994,0,.7.7,0,0,1,.2.5.717.717,0,0,1-.2.5A.745.745,0,0,1,63.848,55.688Z" transform="translate(-49.517 -40.295)" fill="#a0864a"/>
        <path id="Tracé_5451" data-name="Tracé 5451" d="M35.261,30.491H23.637a3.633,3.633,0,0,1-3.629-3.628V15.238a3.633,3.633,0,0,1,3.629-3.628H35.261a3.633,3.633,0,0,1,3.629,3.628V26.862A3.634,3.634,0,0,1,35.261,30.491ZM23.637,13.015a2.226,2.226,0,0,0-2.224,2.223V26.862a2.226,2.226,0,0,0,2.224,2.223H35.261a2.226,2.226,0,0,0,2.224-2.223V15.238a2.226,2.226,0,0,0-2.224-2.223Z" transform="translate(-19.851 -10.937)" fill="#a0864a"/>
        <path id="Tracé_5452" data-name="Tracé 5452" d="M41.539,27.816H29.624a.7.7,0,0,1-.7-.7V22.367a2.7,2.7,0,0,1,2.7-2.7h7.924a2.7,2.7,0,0,1,2.7,2.7v4.746a.705.705,0,0,1-.7.7Zm-11.212-1.4h10.51V22.367a1.294,1.294,0,0,0-1.294-1.294H31.619a1.294,1.294,0,0,0-1.294,1.294Z" transform="translate(-25.982 -16.48)" fill="#a0864a"/>
        <path id="Tracé_5453" data-name="Tracé 5453" d="M20.207,80.3a.7.7,0,0,1-.5-1.2l3.245-3.246a.7.7,0,0,1,.994.994L20.7,80.1A.7.7,0,0,1,20.207,80.3Z" transform="translate(-19.505 -54.986)" fill="#a0864a"/>
        <path id="Tracé_5454" data-name="Tracé 5454" d="M68.836,80.3a.7.7,0,0,1-.5-.2L65.1,76.85a.7.7,0,0,1,.994-.994L69.334,79.1a.7.7,0,0,1-.5,1.2Z" transform="translate(-50.723 -54.986)" fill="#a0864a"/>
        <path id="Tracé_5455" data-name="Tracé 5455" d="M46.479,10.858H43.53a.7.7,0,0,1,0-1.4h2.948a.7.7,0,1,1,0,1.4Z" transform="translate(-35.547 -9.453)" fill="#a0864a"/>
      </g>
    </g>
  </g>
</svg>
