<svg xmlns="http://www.w3.org/2000/svg" width="25.371" height="25.371" viewBox="0 0 25.371 25.371"><g transform="translate(-699.067 -799.049)"><path d="M12.686,42.106c3.388,0,3.789.013,5.126.074a7.005,7.005,0,0,1,2.355.436,4.205,4.205,0,0,1,2.408,2.408,7.018,7.018,0,0,1,.437,2.355c.06,1.338.073,1.739.073,5.126s-.013,3.789-.073,5.126a7.018,7.018,0,0,1-.437,2.355A4.2,4.2,0,0,1,20.167,62.4a7.023,7.023,0,0,1-2.355.437c-1.338.06-1.739.073-5.126.073S8.9,62.893,7.56,62.832A7.018,7.018,0,0,1,5.2,62.4a3.942,3.942,0,0,1-1.459-.948,3.944,3.944,0,0,1-.949-1.46,7.018,7.018,0,0,1-.437-2.355c-.06-1.338-.073-1.739-.073-5.126s.013-3.789.073-5.126A7.018,7.018,0,0,1,2.8,45.024a3.932,3.932,0,0,1,.949-1.459A3.932,3.932,0,0,1,5.2,42.616,7,7,0,0,1,7.56,42.18c1.338-.061,1.739-.074,5.126-.074m0-2.286c-3.445,0-3.877.015-5.231.076a9.29,9.29,0,0,0-3.079.59,6.212,6.212,0,0,0-2.247,1.463A6.212,6.212,0,0,0,.666,44.2a9.29,9.29,0,0,0-.59,3.079C.015,48.628,0,49.061,0,52.506s.015,3.877.076,5.231a9.29,9.29,0,0,0,.59,3.079,6.212,6.212,0,0,0,1.463,2.247,6.215,6.215,0,0,0,2.247,1.464,9.317,9.317,0,0,0,3.079.589c1.353.061,1.785.076,5.231.076s3.877-.015,5.231-.076A9.318,9.318,0,0,0,21,64.526a6.49,6.49,0,0,0,3.71-3.71,9.318,9.318,0,0,0,.589-3.079c.061-1.353.076-1.785.076-5.231s-.015-3.877-.076-5.231a9.318,9.318,0,0,0-.589-3.079A6.485,6.485,0,0,0,21,40.486a9.29,9.29,0,0,0-3.079-.59c-1.353-.061-1.785-.076-5.231-.076" transform="translate(699.067 759.229)" fill="#3c3c3b"/><path d="M12.84,46.146a6.515,6.515,0,1,0,6.515,6.515,6.515,6.515,0,0,0-6.515-6.515m0,10.743a4.229,4.229,0,1,1,4.229-4.229,4.229,4.229,0,0,1-4.229,4.229" transform="translate(698.913 759.076)" fill="#3c3c3b"/><path d="M21.427,45.844a1.523,1.523,0,1,1-1.522-1.522,1.523,1.523,0,0,1,1.522,1.522" transform="translate(698.62 759.12)" fill="#3c3c3b"/></g></svg>