<svg xmlns="http://www.w3.org/2000/svg" width="25.359" height="25.371" viewBox="0 0 25.359 25.371"><g transform="translate(-764.338 -799.05)"><rect width="5.236" height="16.914" transform="translate(764.842 807.507)" fill="#3c3c3b"/><path d="M6.56,87.919a3.121,3.121,0,1,0-3.1-3.121,3.109,3.109,0,0,0,3.1,3.121" transform="translate(760.874 717.373)" fill="#3c3c3b"/><path d="M15.321,96.2c0-2.378,1.094-3.794,3.19-3.794,1.925,0,2.85,1.36,2.85,3.794v8.878h5.211V94.372c0-4.53-2.568-6.721-6.153-6.721a5.9,5.9,0,0,0-5.1,2.794V88.167H10.3v16.914h5.022Z" transform="translate(763.124 719.34)" fill="#3c3c3b"/></g></svg>