<svg xmlns="http://www.w3.org/2000/svg" width="281.803" height="539.965" viewBox="0 0 281.803 539.965">
  <path id="trace-6" d="M341.435-371.923l-29.684,55.3h0L277-257.814,161.231-61.836l.229.137-4.451,7.549Q136.667-19.643,130.453,11.3h0a129.057,129.057,0,0,0-2.187,38.8h0q5.406,52.716,49.4,87.111h0q44.77,34.309,99.025,28.75h0q54.777-5.613,89.794-48.626h0q35.248-43.3,29.637-98.08h0q-5.3-51.674-44.2-84.763h0Q312.7-99.09,264.14-94.113h0q-3.1.318-8.477,1.4h0q-5.377,1.067-13.016,2.9h0L324.531-229.4l.072-.123,84.864-143.714ZM214.309,94.808Q190.1,75.1,186.89,43.832h0q-3.2-31.264,16.512-55.477h0a76.461,76.461,0,0,1,16.553-15.28h0a74.558,74.558,0,0,1,34.678-12.168h0q31.256-3.2,55.762,16.739h0q24.211,19.72,27.467,51.492h0q3.1,30.233-16.843,54.73h0q-19.709,24.208-50.713,27.388h0a87.493,87.493,0,0,1-8.867.463h0a72.662,72.662,0,0,1-47.131-16.91" transform="translate(-127.664 373.233)" fill="#beab7c" style="mix-blend-mode: multiply;isolation: isolate"/>
</svg>
