<svg xmlns="http://www.w3.org/2000/svg" width="74.356" height="82.531" viewBox="0 0 74.356 82.531">
  <g id="Groupe_3962" data-name="Groupe 3962" transform="translate(-1114.821 -1609.089)">
    <circle id="Ellipse_87" data-name="Ellipse 87" cx="14" cy="14" r="14" transform="translate(1114.821 1638.376)" fill="#d4af37" opacity="0.281"/>
    <circle id="Ellipse_88" data-name="Ellipse 88" cx="12" cy="12" r="12" transform="translate(1151.495 1667.621)" fill="#d4af37" opacity="0.281"/>
    <circle id="Ellipse_89" data-name="Ellipse 89" cx="20" cy="20" r="20" transform="translate(1149.178 1609.089)" fill="#d4af37" opacity="0.281"/>
    <g id="Groupe_3925" data-name="Groupe 3925" transform="translate(627.084 1515.711)">
      <path id="Tracé_4257" data-name="Tracé 4257" d="M527.492,132.52a60.473,60.473,0,0,1-21.38.357,23.708,23.708,0,0,0,15.1,11.268,5.079,5.079,0,0,1,3.783,4.96v8.342a3.02,3.02,0,0,1-2.484,2.951,22.851,22.851,0,0,0-10.016,4.511h30a22.851,22.851,0,0,0-10.016-4.511,3.02,3.02,0,0,1-2.484-2.951V149.1a5.08,5.08,0,0,1,3.783-4.96,23.62,23.62,0,0,0,15.446-11.916A59.872,59.872,0,0,0,527.492,132.52Z" fill="#fff"/>
    </g>
    <g id="Groupe_3926" data-name="Groupe 3926" transform="translate(627.084 1515.711)">
      <path id="Tracé_4258" data-name="Tracé 4258" d="M533.775,144.145a23.62,23.62,0,0,0,15.446-11.916c-1.025-.212-2.12-.378-3.257-.51a23.684,23.684,0,0,1-13.417,10.109A6.8,6.8,0,0,0,527.6,148.3v9.637a4.909,4.909,0,0,0,3.782,4.745,23.594,23.594,0,0,1,5.726,2.226h5.382a22.851,22.851,0,0,0-10.016-4.511,3.02,3.02,0,0,1-2.484-2.951V149.1A5.08,5.08,0,0,1,533.775,144.145Z" fill="#d4af37"/>
    </g>
    <g id="Groupe_3927" data-name="Groupe 3927" transform="translate(627.084 1515.711)">
      <path id="Tracé_4259" data-name="Tracé 4259" d="M550.723,117.383a2.015,2.015,0,0,0-1.934-1.473h-44.3a20.193,20.193,0,0,0-1,7,20.424,20.424,0,0,0,2.62,9.969,60.473,60.473,0,0,0,21.38-.357,59.872,59.872,0,0,1,21.729-.291,20.253,20.253,0,0,0,1.5-14.846Z" fill="#fff"/>
    </g>
    <g id="Groupe_3928" data-name="Groupe 3928" transform="translate(627.084 1515.711)">
      <path id="Tracé_4260" data-name="Tracé 4260" d="M551.492,122.908a20.232,20.232,0,0,0-.769-5.525,2.015,2.015,0,0,0-1.934-1.473h-44.3a15.243,15.243,0,0,0-.74,3h38.036a2.015,2.015,0,0,1,1.934,1.472,20.073,20.073,0,0,1-.033,11.127,41.876,41.876,0,0,1,5.532.719A20.377,20.377,0,0,0,551.492,122.908Z" fill="#d4af37"/>
    </g>
    <g id="Groupe_3929" data-name="Groupe 3929" transform="translate(627.084 1515.711)">
      <path id="Tracé_4261" data-name="Tracé 4261" d="M525.9,137.606a.749.749,0,0,1-.692-1.038l12.6-30.293a.753.753,0,0,1,.442-.418l15.992-5.655a.75.75,0,0,1,.5,1.414l-15.677,5.544L526.6,137.144A.749.749,0,0,1,525.9,137.606Z" fill="#2b2a28"/>
    </g>
    <g id="Groupe_3930" data-name="Groupe 3930" transform="translate(627.084 1515.711)">
      <path id="Tracé_4262" data-name="Tracé 4262" d="M542.492,165.659h-30a.751.751,0,0,1-.47-1.335,23.675,23.675,0,0,1,10.344-4.662,2.284,2.284,0,0,0,1.876-2.215V149.1a4.306,4.306,0,0,0-3.213-4.232,24.467,24.467,0,0,1-15.572-11.633.748.748,0,0,1,.8-1.1,59.513,59.513,0,0,0,21.087-.356h0a60.467,60.467,0,0,1,22.031-.29.751.751,0,0,1,.516,1.076,24.29,24.29,0,0,1-15.933,12.3,4.307,4.307,0,0,0-3.214,4.232v8.342a2.284,2.284,0,0,0,1.876,2.215,23.664,23.664,0,0,1,10.344,4.662.75.75,0,0,1-.47,1.335Zm-27.653-1.5h25.307a22.856,22.856,0,0,0-7.812-3.024,3.786,3.786,0,0,1-3.092-3.688V149.1a5.8,5.8,0,0,1,4.353-5.687,22.908,22.908,0,0,0,14.477-10.643,59.952,59.952,0,0,0-20.429.481,62.8,62.8,0,0,1-20.038.635,23.167,23.167,0,0,0,13.785,9.527,5.8,5.8,0,0,1,4.352,5.687v8.342a3.786,3.786,0,0,1-3.092,3.688A22.859,22.859,0,0,0,514.839,164.159Z" fill="#2b2a28"/>
    </g>
    <g id="Groupe_3931" data-name="Groupe 3931" transform="translate(627.084 1515.711)">
      <circle id="Ellipse_90" data-name="Ellipse 90" cx="14" cy="14" r="14" transform="translate(490.492 101.91)" fill="#fff"/>
    </g>
    <g id="Groupe_3932" data-name="Groupe 3932" transform="translate(627.084 1515.711)">
      <path id="Tracé_4263" data-name="Tracé 4263" d="M514.125,105.767a13.984,13.984,0,0,1-23.267,13.284,13.994,13.994,0,1,0,23.267-13.284Z" fill="#d4af37"/>
    </g>
    <g id="Groupe_3933" data-name="Groupe 3933" transform="translate(627.084 1515.711)">
      <path id="Tracé_4264" data-name="Tracé 4264" d="M504.492,130.66a14.75,14.75,0,1,1,14.75-14.75A14.767,14.767,0,0,1,504.492,130.66Zm0-28a13.25,13.25,0,1,0,13.25,13.25A13.264,13.264,0,0,0,504.492,102.66Z" fill="#2b2a28"/>
    </g>
    <g id="Groupe_3934" data-name="Groupe 3934" transform="translate(627.084 1515.711)">
      <path id="Tracé_4265" data-name="Tracé 4265" d="M504.492,116.66h-14a.75.75,0,0,1,0-1.5h13.25V101.91a.75.75,0,0,1,1.5,0v14A.75.75,0,0,1,504.492,116.66Z" fill="#2b2a28"/>
    </g>
    <g id="Groupe_3935" data-name="Groupe 3935" transform="translate(627.084 1515.711)">
      <path id="Tracé_4266" data-name="Tracé 4266" d="M494.592,126.558a.749.749,0,0,1-.53-1.279l19.8-19.8a.75.75,0,1,1,1.061,1.061l-19.8,19.8A.75.75,0,0,1,494.592,126.558Z" fill="#2b2a28"/>
    </g>
    <g id="Groupe_3936" data-name="Groupe 3936" transform="translate(627.084 1515.711)">
      <path id="Tracé_4267" data-name="Tracé 4267" d="M514.392,126.558a.75.75,0,0,1-.531-.218l-19.8-19.8a.75.75,0,1,1,1.061-1.061l19.8,19.8a.749.749,0,0,1-.53,1.279Z" fill="#2b2a28"/>
    </g>
    <g id="Groupe_3937" data-name="Groupe 3937" transform="translate(627.084 1515.711)">
      <path id="Tracé_4268" data-name="Tracé 4268" d="M515.434,134.415a50.985,50.985,0,0,1-9.465-.8.75.75,0,0,1-.512-.372,22.679,22.679,0,0,1-1.669-17.589.749.749,0,0,1,.7-.492h44.3a2.776,2.776,0,0,1,2.655,2.018,21,21,0,0,1-1.555,15.393.752.752,0,0,1-.819.393,58.752,58.752,0,0,0-21.427.292A62.729,62.729,0,0,1,515.434,134.415Zm-8.834-2.21a59.878,59.878,0,0,0,20.742-.42,61.154,61.154,0,0,1,21.461-.4,19.482,19.482,0,0,0,1.2-13.795,1.27,1.27,0,0,0-1.212-.928H505.028a20.742,20.742,0,0,0-.786,6.248A19.514,19.514,0,0,0,506.6,132.205Z" fill="#2b2a28"/>
    </g>
    <g id="Groupe_3938" data-name="Groupe 3938" transform="translate(627.084 1515.711)">
      <path id="Tracé_4269" data-name="Tracé 4269" d="M529.209,105.66h-1.384a.75.75,0,0,1,0-1.5h1.384a.75.75,0,0,1,0,1.5Z" fill="#2b2a28"/>
    </g>
    <g id="Groupe_3939" data-name="Groupe 3939" transform="translate(627.084 1515.711)">
      <path id="Tracé_4270" data-name="Tracé 4270" d="M533.825,105.66H532.44a.75.75,0,0,1,0-1.5h1.385a.75.75,0,0,1,0,1.5Z" fill="#2b2a28"/>
    </g>
    <g id="Groupe_3940" data-name="Groupe 3940" transform="translate(627.084 1515.711)">
      <path id="Tracé_4271" data-name="Tracé 4271" d="M530.825,108.66a.75.75,0,0,1-.75-.75v-1.385a.75.75,0,0,1,1.5,0v1.385A.75.75,0,0,1,530.825,108.66Z" fill="#2b2a28"/>
    </g>
    <g id="Groupe_3941" data-name="Groupe 3941" transform="translate(627.084 1515.711)">
      <path id="Tracé_4272" data-name="Tracé 4272" d="M530.825,104.044a.75.75,0,0,1-.75-.75V101.91a.75.75,0,1,1,1.5,0v1.384A.75.75,0,0,1,530.825,104.044Z" fill="#2b2a28"/>
    </g>
    <g id="Groupe_3942" data-name="Groupe 3942" transform="translate(627.084 1515.711)">
      <path id="Tracé_4273" data-name="Tracé 4273" d="M549.876,110.766h-1.384a.75.75,0,0,1,0-1.5h1.384a.75.75,0,0,1,0,1.5Z" fill="#2b2a28"/>
    </g>
    <g id="Groupe_3943" data-name="Groupe 3943" transform="translate(627.084 1515.711)">
      <path id="Tracé_4274" data-name="Tracé 4274" d="M554.492,110.766h-1.385a.75.75,0,0,1,0-1.5h1.385a.75.75,0,0,1,0,1.5Z" fill="#2b2a28"/>
    </g>
    <g id="Groupe_3944" data-name="Groupe 3944" transform="translate(627.084 1515.711)">
      <path id="Tracé_4275" data-name="Tracé 4275" d="M551.492,113.766a.75.75,0,0,1-.75-.75v-1.384a.75.75,0,1,1,1.5,0v1.384A.75.75,0,0,1,551.492,113.766Z" fill="#2b2a28"/>
    </g>
    <g id="Groupe_3945" data-name="Groupe 3945" transform="translate(627.084 1515.711)">
      <path id="Tracé_4276" data-name="Tracé 4276" d="M551.492,109.15a.75.75,0,0,1-.75-.75v-1.384a.75.75,0,0,1,1.5,0V108.4A.75.75,0,0,1,551.492,109.15Z" fill="#2b2a28"/>
    </g>
    <g id="Groupe_3946" data-name="Groupe 3946" transform="translate(627.084 1515.711)">
      <path id="Tracé_4277" data-name="Tracé 4277" d="M541.875,148.769h-1.384a.75.75,0,0,1,0-1.5h1.384a.75.75,0,0,1,0,1.5Z" fill="#2b2a28"/>
    </g>
    <g id="Groupe_3947" data-name="Groupe 3947" transform="translate(627.084 1515.711)">
      <path id="Tracé_4278" data-name="Tracé 4278" d="M546.491,148.769h-1.385a.75.75,0,0,1,0-1.5h1.385a.75.75,0,0,1,0,1.5Z" fill="#2b2a28"/>
    </g>
    <g id="Groupe_3948" data-name="Groupe 3948" transform="translate(627.084 1515.711)">
      <path id="Tracé_4279" data-name="Tracé 4279" d="M543.491,151.769a.75.75,0,0,1-.75-.75v-1.384a.75.75,0,0,1,1.5,0v1.384A.75.75,0,0,1,543.491,151.769Z" fill="#2b2a28"/>
    </g>
    <g id="Groupe_3949" data-name="Groupe 3949" transform="translate(627.084 1515.711)">
      <path id="Tracé_4280" data-name="Tracé 4280" d="M543.491,147.154a.75.75,0,0,1-.75-.75v-1.385a.75.75,0,0,1,1.5,0V146.4A.75.75,0,0,1,543.491,147.154Z" fill="#2b2a28"/>
    </g>
    <g id="Groupe_3950" data-name="Groupe 3950" transform="translate(627.084 1515.711)">
      <path id="Tracé_4281" data-name="Tracé 4281" d="M502.872,142.769h-1.385a.75.75,0,1,1,0-1.5h1.385a.75.75,0,0,1,0,1.5Z" fill="#2b2a28"/>
    </g>
    <g id="Groupe_3951" data-name="Groupe 3951" transform="translate(627.084 1515.711)">
      <path id="Tracé_4282" data-name="Tracé 4282" d="M507.487,142.769H506.1a.75.75,0,0,1,0-1.5h1.384a.75.75,0,0,1,0,1.5Z" fill="#2b2a28"/>
    </g>
    <g id="Groupe_3952" data-name="Groupe 3952" transform="translate(627.084 1515.711)">
      <path id="Tracé_4283" data-name="Tracé 4283" d="M504.487,145.769a.75.75,0,0,1-.75-.75v-1.384a.75.75,0,1,1,1.5,0v1.384A.75.75,0,0,1,504.487,145.769Z" fill="#2b2a28"/>
    </g>
    <g id="Groupe_3953" data-name="Groupe 3953" transform="translate(627.084 1515.711)">
      <path id="Tracé_4284" data-name="Tracé 4284" d="M504.487,141.154a.75.75,0,0,1-.75-.75v-1.385a.75.75,0,1,1,1.5,0V140.4A.75.75,0,0,1,504.487,141.154Z" fill="#2b2a28"/>
    </g>
    <g id="Groupe_3954" data-name="Groupe 3954" transform="translate(627.084 1515.711)">
      <path id="Tracé_4285" data-name="Tracé 4285" d="M511.873,156.771h-1.385a.75.75,0,0,1,0-1.5h1.385a.75.75,0,1,1,0,1.5Z" fill="#2b2a28"/>
    </g>
    <g id="Groupe_3955" data-name="Groupe 3955" transform="translate(627.084 1515.711)">
      <path id="Tracé_4286" data-name="Tracé 4286" d="M516.488,156.771H515.1a.75.75,0,0,1,0-1.5h1.384a.75.75,0,0,1,0,1.5Z" fill="#2b2a28"/>
    </g>
    <g id="Groupe_3956" data-name="Groupe 3956" transform="translate(627.084 1515.711)">
      <path id="Tracé_4287" data-name="Tracé 4287" d="M513.488,159.771a.75.75,0,0,1-.75-.75v-1.384a.75.75,0,0,1,1.5,0v1.384A.75.75,0,0,1,513.488,159.771Z" fill="#2b2a28"/>
    </g>
    <g id="Groupe_3957" data-name="Groupe 3957" transform="translate(627.084 1515.711)">
      <path id="Tracé_4288" data-name="Tracé 4288" d="M513.488,155.155a.75.75,0,0,1-.75-.75v-1.384a.75.75,0,0,1,1.5,0V154.4A.75.75,0,0,1,513.488,155.155Z" fill="#2b2a28"/>
    </g>
  </g>
</svg>
