<svg xmlns="http://www.w3.org/2000/svg" width="84.997" height="79.445" viewBox="0 0 84.997 79.445">
  <g id="Groupe_3961" data-name="Groupe 3961" transform="translate(-482.501 -1611.089)">
    <g id="Groupe_3958" data-name="Groupe 3958" transform="translate(473.471 1281.12)" opacity="0.277">
      <circle id="Ellipse_91" data-name="Ellipse 91" cx="14" cy="14" r="14" transform="translate(30.034 329.97)" fill="#d4af37"/>
    </g>
    <g id="Groupe_3959" data-name="Groupe 3959" transform="translate(473.471 1281.12)" opacity="0.277">
      <circle id="Ellipse_92" data-name="Ellipse 92" cx="12" cy="12" r="12" transform="translate(9.031 355.663)" fill="#d4af37"/>
    </g>
    <g id="Groupe_3960" data-name="Groupe 3960" transform="translate(473.471 1281.12)" opacity="0.277">
      <circle id="Ellipse_93" data-name="Ellipse 93" cx="20" cy="20" r="20" transform="translate(54.028 369.415)" fill="#d4af37"/>
    </g>
    <path id="Rectangle_2198" data-name="Rectangle 2198" d="M2,0H62a2,2,0,0,1,2,2V50a0,0,0,0,1,0,0H0a0,0,0,0,1,0,0V2A2,2,0,0,1,2,0Z" transform="translate(493.248 1618.783)" fill="#d4af37"/>
    <path id="Rectangle_2199" data-name="Rectangle 2199" d="M0,0H58a1,1,0,0,1,1,1V45a0,0,0,0,1,0,0H0a0,0,0,0,1,0,0V0A0,0,0,0,1,0,0Z" transform="translate(493.248 1623.783)" fill="#fff"/>
    <path id="Tracé_4289" data-name="Tracé 4289" d="M83.777,388.413h-64a.75.75,0,0,1-.75-.75v-48a2.753,2.753,0,0,1,2.75-2.75h60a2.752,2.752,0,0,1,2.75,2.75v48A.75.75,0,0,1,83.777,388.413Zm-63.25-1.5h62.5v-47.25a1.251,1.251,0,0,0-1.25-1.25h-60a1.252,1.252,0,0,0-1.25,1.25Z" transform="translate(473.471 1281.12)" fill="#2b2a28"/>
    <circle id="Ellipse_94" data-name="Ellipse 94" cx="17" cy="17" r="17" transform="translate(508.249 1626.783)" fill="#fff"/>
    <path id="Tracé_4290" data-name="Tracé 4290" d="M68.778,362.663a16.989,16.989,0,0,0-30.843-9.844,16.983,16.983,0,0,1,23.687,23.688A16.966,16.966,0,0,0,68.778,362.663Z" transform="translate(473.471 1281.12)" fill="#d4af37"/>
    <path id="Tracé_4291" data-name="Tracé 4291" d="M51.778,380.413a17.75,17.75,0,1,1,17.75-17.75A17.771,17.771,0,0,1,51.778,380.413Zm0-34a16.25,16.25,0,1,0,16.25,16.25A16.269,16.269,0,0,0,51.778,346.413Z" transform="translate(473.471 1281.12)" fill="#2b2a28"/>
    <path id="Tracé_4292" data-name="Tracé 4292" d="M48.281,354.663v16l11-8Z" transform="translate(473.471 1281.12)" fill="#d4af37"/>
    <path id="Tracé_4293" data-name="Tracé 4293" d="M48.281,360.663v10L59,362.87Z" transform="translate(473.471 1281.12)" fill="#fff"/>
    <path id="Tracé_4294" data-name="Tracé 4294" d="M48.28,371.413a.751.751,0,0,1-.75-.75v-16a.75.75,0,0,1,1.191-.606l11,8a.75.75,0,0,1,0,1.213l-11,8A.753.753,0,0,1,48.28,371.413Zm.75-15.277V369.19l8.975-6.527Z" transform="translate(473.471 1281.12)" fill="#2b2a28"/>
    <path id="Rectangle_2200" data-name="Rectangle 2200" d="M0,0H64a0,0,0,0,1,0,0V6a2,2,0,0,1-2,2H2A2,2,0,0,1,0,6V0A0,0,0,0,1,0,0Z" transform="translate(493.248 1668.783)" fill="#d4af37"/>
    <path id="Rectangle_2201" data-name="Rectangle 2201" d="M0,0H59a0,0,0,0,1,0,0V4a0,0,0,0,1,0,0H2A2,2,0,0,1,0,2V0A0,0,0,0,1,0,0Z" transform="translate(493.248 1672.783)" fill="#fff"/>
    <path id="Tracé_4295" data-name="Tracé 4295" d="M81.777,396.413h-60a2.753,2.753,0,0,1-2.75-2.75v-6a.75.75,0,0,1,.75-.75h64a.75.75,0,0,1,.75.75v6A2.752,2.752,0,0,1,81.777,396.413Zm-61.25-8v5.25a1.252,1.252,0,0,0,1.25,1.25h60a1.251,1.251,0,0,0,1.25-1.25v-5.25Z" transform="translate(473.471 1281.12)" fill="#2b2a28"/>
    <rect id="Rectangle_2202" data-name="Rectangle 2202" width="40" height="6" transform="translate(505.248 1676.783)" fill="#d4af37"/>
    <path id="Rectangle_2203" data-name="Rectangle 2203" d="M0,0H36a1,1,0,0,1,1,1V3a0,0,0,0,1,0,0H0A0,0,0,0,1,0,3V0A0,0,0,0,1,0,0Z" transform="translate(505.248 1679.784)" fill="#fff"/>
    <path id="Tracé_4296" data-name="Tracé 4296" d="M71.777,402.414h-40a.75.75,0,0,1-.75-.75v-6a.75.75,0,0,1,.75-.75h40a.75.75,0,0,1,.75.75v6A.75.75,0,0,1,71.777,402.414Zm-39.25-1.5h38.5v-4.5h-38.5Z" transform="translate(473.471 1281.12)" fill="#2b2a28"/>
    <path id="Tracé_4297" data-name="Tracé 4297" d="M82.777,402.414h-62a.75.75,0,0,1,0-1.5h62a.75.75,0,0,1,0,1.5Z" transform="translate(473.471 1281.12)" fill="#2b2a28"/>
    <path id="Tracé_4298" data-name="Tracé 4298" d="M55.777,392.413h-8a.75.75,0,0,1,0-1.5h8a.75.75,0,1,1,0,1.5Z" transform="translate(473.471 1281.12)" fill="#2b2a28"/>
    <rect id="Rectangle_2204" data-name="Rectangle 2204" width="15" height="34" rx="1" transform="translate(537.248 1638.784)" fill="#d4af37"/>
    <path id="Rectangle_2205" data-name="Rectangle 2205" d="M0,0H11a1,1,0,0,1,1,1V31a0,0,0,0,1,0,0H1a1,1,0,0,1-1-1V0A0,0,0,0,1,0,0Z" transform="translate(537.248 1641.784)" fill="#fff"/>
    <path id="Tracé_4299" data-name="Tracé 4299" d="M77.778,392.414h-13a1.752,1.752,0,0,1-1.75-1.75v-32a1.752,1.752,0,0,1,1.75-1.75h13a1.752,1.752,0,0,1,1.75,1.75v32A1.752,1.752,0,0,1,77.778,392.414Zm-13-34a.25.25,0,0,0-.25.25v32a.25.25,0,0,0,.25.25h13a.25.25,0,0,0,.25-.25v-32a.25.25,0,0,0-.25-.25Z" transform="translate(473.471 1281.12)" fill="#2b2a28"/>
    <circle id="Ellipse_95" data-name="Ellipse 95" cx="1" cy="1" r="1" transform="translate(540.25 1641.785)" fill="#2b2a28"/>
    <path id="Tracé_4300" data-name="Tracé 4300" d="M69.678,366.415h-2.4a.75.75,0,0,1,0-1.5h2.4a.75.75,0,0,1,0,1.5Z" transform="translate(473.471 1281.12)" fill="#2b2a28"/>
    <path id="Tracé_4301" data-name="Tracé 4301" d="M75.278,366.415h-2.4a.75.75,0,0,1,0-1.5h2.4a.75.75,0,0,1,0,1.5Z" transform="translate(473.471 1281.12)" fill="#2b2a28"/>
    <path id="Tracé_4302" data-name="Tracé 4302" d="M69.678,370.416h-2.4a.75.75,0,0,1,0-1.5h2.4a.75.75,0,0,1,0,1.5Z" transform="translate(473.471 1281.12)" fill="#2b2a28"/>
    <path id="Tracé_4303" data-name="Tracé 4303" d="M75.278,370.416h-2.4a.75.75,0,0,1,0-1.5h2.4a.75.75,0,0,1,0,1.5Z" transform="translate(473.471 1281.12)" fill="#2b2a28"/>
    <path id="Tracé_4304" data-name="Tracé 4304" d="M69.678,374.416h-2.4a.75.75,0,0,1,0-1.5h2.4a.75.75,0,0,1,0,1.5Z" transform="translate(473.471 1281.12)" fill="#2b2a28"/>
    <path id="Tracé_4305" data-name="Tracé 4305" d="M75.278,374.416h-2.4a.75.75,0,0,1,0-1.5h2.4a.75.75,0,0,1,0,1.5Z" transform="translate(473.471 1281.12)" fill="#2b2a28"/>
    <path id="Tracé_4306" data-name="Tracé 4306" d="M69.678,378.416h-2.4a.75.75,0,0,1,0-1.5h2.4a.75.75,0,0,1,0,1.5Z" transform="translate(473.471 1281.12)" fill="#2b2a28"/>
    <path id="Tracé_4307" data-name="Tracé 4307" d="M75.278,378.416h-2.4a.75.75,0,0,1,0-1.5h2.4a.75.75,0,0,1,0,1.5Z" transform="translate(473.471 1281.12)" fill="#2b2a28"/>
    <path id="Tracé_4308" data-name="Tracé 4308" d="M67.778,382.414a.75.75,0,0,1-.53-1.28.783.783,0,0,1,1.06,0,.765.765,0,0,1,.22.53.751.751,0,0,1-.75.75Z" transform="translate(473.471 1281.12)" fill="#2b2a28"/>
    <path id="Tracé_4309" data-name="Tracé 4309" d="M70.528,381.664a.755.755,0,0,1,.75-.75h0a.755.755,0,0,1,.75.75h0a.749.749,0,0,1-.75.75h0A.749.749,0,0,1,70.528,381.664Z" transform="translate(473.471 1281.12)" fill="#2b2a28"/>
    <path id="Tracé_4310" data-name="Tracé 4310" d="M74.778,382.414a.751.751,0,0,1-.75-.75.761.761,0,0,1,.22-.53.75.75,0,0,1,1.28.53.749.749,0,0,1-.22.53A.769.769,0,0,1,74.778,382.414Z" transform="translate(473.471 1281.12)" fill="#2b2a28"/>
    <path id="Tracé_4311" data-name="Tracé 4311" d="M67.778,386.414a.8.8,0,0,1-.53-.21.786.786,0,0,1-.22-.54.761.761,0,0,1,.22-.53.75.75,0,0,1,1.28.53.751.751,0,0,1-.75.75Z" transform="translate(473.471 1281.12)" fill="#2b2a28"/>
    <path id="Tracé_4312" data-name="Tracé 4312" d="M70.528,385.664a.755.755,0,0,1,.75-.75h0a.755.755,0,0,1,.75.75h0a.749.749,0,0,1-.75.75h0A.749.749,0,0,1,70.528,385.664Z" transform="translate(473.471 1281.12)" fill="#2b2a28"/>
    <path id="Tracé_4313" data-name="Tracé 4313" d="M74.778,386.414a.8.8,0,0,1-.53-.21.786.786,0,0,1-.22-.54.761.761,0,0,1,.22-.53.75.75,0,0,1,1.28.53.751.751,0,0,1-.75.75Z" transform="translate(473.471 1281.12)" fill="#2b2a28"/>
    <path id="Tracé_4314" data-name="Tracé 4314" d="M15.777,386.413a.75.75,0,0,1-.75-.75v-16.7a.75.75,0,0,1,1.5,0v16.7A.75.75,0,0,1,15.777,386.413Z" transform="translate(473.471 1281.12)" fill="#2b2a28"/>
    <path id="Tracé_4315" data-name="Tracé 4315" d="M15.777,365.713a.75.75,0,0,1-.75-.75v-2.3a.75.75,0,0,1,1.5,0v2.3A.75.75,0,0,1,15.777,365.713Z" transform="translate(473.471 1281.12)" fill="#2b2a28"/>
    <path id="Tracé_4316" data-name="Tracé 4316" d="M87.784,371.411a.75.75,0,0,1-.75-.75v-12.7a.75.75,0,0,1,1.5,0v12.7A.75.75,0,0,1,87.784,371.411Z" transform="translate(473.471 1281.12)" fill="#2b2a28"/>
    <path id="Tracé_4317" data-name="Tracé 4317" d="M87.784,354.712a.75.75,0,0,1-.75-.75v-2.3a.75.75,0,0,1,1.5,0v2.3A.75.75,0,0,1,87.784,354.712Z" transform="translate(473.471 1281.12)" fill="#2b2a28"/>
  </g>
</svg>
