<svg xmlns="http://www.w3.org/2000/svg" width="79.258" height="78.371" viewBox="0 0 79.258 78.371">
  <g id="Groupe_4109" data-name="Groupe 4109" transform="translate(-903.372 -1609.395)">
    <g id="Groupe_4025" data-name="Groupe 4025" transform="translate(651.535 1517.479)" opacity="0.277">
      <circle id="Ellipse_106" data-name="Ellipse 106" cx="14" cy="14" r="14" transform="translate(272.586 91.917)" fill="#d4af37"/>
    </g>
    <g id="Groupe_4026" data-name="Groupe 4026" transform="translate(651.535 1517.479)" opacity="0.277">
      <circle id="Ellipse_107" data-name="Ellipse 107" cx="12" cy="12" r="12" transform="translate(307.094 119.858)" fill="#d4af37"/>
    </g>
    <g id="Groupe_4027" data-name="Groupe 4027" transform="translate(651.535 1517.479)" opacity="0.277">
      <circle id="Ellipse_108" data-name="Ellipse 108" cx="20" cy="20" r="20" transform="translate(251.836 130.288)" fill="#d4af37"/>
    </g>
    <g id="Groupe_4028" data-name="Groupe 4028" transform="translate(651.535 1517.479)">
      <path id="Tracé_4356" data-name="Tracé 4356" d="M324.834,139.222h-64l8-10h48Z" fill="#d4af37"/>
    </g>
    <g id="Groupe_4029" data-name="Groupe 4029" transform="translate(651.535 1517.479)">
      <path id="Tracé_4357" data-name="Tracé 4357" d="M316.753,136.221H263.236l5.6-7h44.4l4.3,5.375A1,1,0,0,1,316.753,136.221Z" fill="#fff"/>
    </g>
    <g id="Groupe_4030" data-name="Groupe 4030" transform="translate(651.535 1517.479)">
      <path id="Tracé_4358" data-name="Tracé 4358" d="M324.835,139.971h-64a.75.75,0,0,1-.585-1.219l8-10a.749.749,0,0,1,.585-.281h48a.749.749,0,0,1,.586.281l8,10a.75.75,0,0,1-.586,1.219Zm-62.439-1.5h60.879l-6.8-8.5H269.2Z" fill="#2b2a28"/>
    </g>
    <g id="Groupe_4031" data-name="Groupe 4031" transform="translate(651.535 1517.479)">
      <rect id="Rectangle_2208" data-name="Rectangle 2208" width="56" height="24.002" transform="translate(264.834 139.222)" fill="#d4af37"/>
    </g>
    <g id="Groupe_4032" data-name="Groupe 4032" transform="translate(651.535 1517.479)">
      <path id="Rectangle_2209" data-name="Rectangle 2209" d="M0,0H50a0,0,0,0,1,0,0V17a1,1,0,0,1-1,1H0a0,0,0,0,1,0,0V0A0,0,0,0,1,0,0Z" transform="translate(264.834 139.222)" fill="#fff"/>
    </g>
    <g id="Groupe_4033" data-name="Groupe 4033" transform="translate(651.535 1517.479)">
      <path id="Tracé_4359" data-name="Tracé 4359" d="M320.835,163.973h-56a.75.75,0,0,1-.75-.75v-24a.75.75,0,0,1,.75-.75h56a.75.75,0,0,1,.75.75v24A.75.75,0,0,1,320.835,163.973Zm-55.25-1.5h54.5v-22.5h-54.5Z" fill="#2b2a28"/>
    </g>
    <g id="Groupe_4034" data-name="Groupe 4034" transform="translate(651.535 1517.479)">
      <rect id="Rectangle_2210" data-name="Rectangle 2210" width="24" height="24.002" transform="translate(280.834 139.222)" fill="#d4af37"/>
    </g>
    <g id="Groupe_4035" data-name="Groupe 4035" transform="translate(651.535 1517.479)">
      <path id="Rectangle_2211" data-name="Rectangle 2211" d="M0,0H20a0,0,0,0,1,0,0V19a1,1,0,0,1-1,1H0a0,0,0,0,1,0,0V0A0,0,0,0,1,0,0Z" transform="translate(280.834 139.224)" fill="#fff"/>
    </g>
    <g id="Groupe_4036" data-name="Groupe 4036" transform="translate(651.535 1517.479)">
      <path id="Tracé_4360" data-name="Tracé 4360" d="M304.835,163.973h-24a.75.75,0,0,1-.75-.75v-24a.75.75,0,0,1,.75-.75h24a.75.75,0,0,1,.75.75v24A.75.75,0,0,1,304.835,163.973Zm-23.25-1.5h22.5v-22.5h-22.5Z" fill="#2b2a28"/>
    </g>
    <g id="Groupe_4037" data-name="Groupe 4037" transform="translate(651.535 1517.479)">
      <circle id="Ellipse_109" data-name="Ellipse 109" cx="2.25" cy="2.25" r="2.25" transform="translate(290.584 143.222)" fill="#fff"/>
    </g>
    <g id="Groupe_4039" data-name="Groupe 4039" transform="translate(651.535 1517.479)">
      <rect id="Rectangle_2212" data-name="Rectangle 2212" width="4" height="8" transform="translate(290.834 150.973)" fill="#fff"/>
    </g>
    <g id="Groupe_4043" data-name="Groupe 4043" transform="translate(651.535 1517.479)">
      <path id="Tracé_4365" data-name="Tracé 4365" d="M293.083,115.345l-4.277-1.123h-9.937l-4.278,1.123a3.692,3.692,0,0,0-2.755,3.572v10.305h24V118.917A3.693,3.693,0,0,0,293.083,115.345Z" fill="#fff"/>
    </g>
    <g id="Groupe_4044" data-name="Groupe 4044" transform="translate(651.535 1517.479)">
      <path id="Tracé_4366" data-name="Tracé 4366" d="M293.083,115.345l-2.449-.643-1.258,5.179a8.854,8.854,0,0,1-8.052,6.747l-9.488.593v2h24V118.917A3.692,3.692,0,0,0,293.083,115.345Z" fill="#d4af37"/>
    </g>
    <g id="Groupe_4045" data-name="Groupe 4045" transform="translate(651.535 1517.479)">
      <path id="Tracé_4367" data-name="Tracé 4367" d="M295.836,129.971h-24a.75.75,0,0,1-.75-.75v-10.3a4.446,4.446,0,0,1,3.315-4.3l4.277-1.123a.769.769,0,0,1,.191-.024h9.937a.769.769,0,0,1,.191.024l4.276,1.123h0a4.444,4.444,0,0,1,3.313,4.3v10.3A.75.75,0,0,1,295.836,129.971Zm-23.25-1.5h22.5v-9.554a2.944,2.944,0,0,0-2.194-2.846l-4.183-1.1h-9.744l-4.183,1.1a2.944,2.944,0,0,0-2.2,2.846Z" fill="#2b2a28"/>
    </g>
    <g id="Groupe_4046" data-name="Groupe 4046" transform="translate(651.535 1517.479)">
      <path id="Tracé_4368" data-name="Tracé 4368" d="M288.494,115.231a2.342,2.342,0,0,0,.312-1.009,3.849,3.849,0,0,1-2.053-2.689c-.032-.173-.057-1.264-.076-1.431l-5.687,0c-.022.19-.052,1.311-.091,1.515a3.7,3.7,0,0,1-2.031,2.6,2.38,2.38,0,0,0,.322,1.018c.968,1.816,4.646,2.73,4.646,2.73S287.532,117.06,288.494,115.231Z" fill="#fff"/>
    </g>
    <g id="Groupe_4047" data-name="Groupe 4047" transform="translate(651.535 1517.479)">
      <path id="Tracé_4369" data-name="Tracé 4369" d="M286.753,111.533c-.032-.173-.057-1.264-.076-1.431l-2.689,0a9.041,9.041,0,0,1-2.941,7.088,5.334,5.334,0,0,0,7.447-1.961,2.342,2.342,0,0,0,.312-1.009A3.849,3.849,0,0,1,286.753,111.533Z" fill="#d4af37"/>
    </g>
    <g id="Groupe_4048" data-name="Groupe 4048" transform="translate(651.535 1517.479)">
      <path id="Tracé_4370" data-name="Tracé 4370" d="M283.836,118.719a.733.733,0,0,1-.18-.022c-.41-.1-4.034-1.053-5.128-3.1a3.051,3.051,0,0,1-.41-1.354.748.748,0,0,1,.419-.689,2.938,2.938,0,0,0,1.625-2.073c.019-.128.034-.525.049-.86.012-.274.024-.514.034-.595a.751.751,0,0,1,.744-.666l5.687,0h0a.75.75,0,0,1,.745.667c.009.074.02.318.031.593.012.315.024.676.041.8a3.112,3.112,0,0,0,1.654,2.145.743.743,0,0,1,.408.679,3.021,3.021,0,0,1-.4,1.346h0c-1.088,2.066-4.731,3.015-5.143,3.117A.762.762,0,0,1,283.836,118.719Zm-4.12-4.12a3.044,3.044,0,0,0,.136.29c.621,1.163,2.979,2.024,3.985,2.3,1.052-.288,3.373-1.134,3.993-2.31a2.725,2.725,0,0,0,.133-.29,4.592,4.592,0,0,1-1.947-2.922,7.475,7.475,0,0,1-.055-.819l-4.259,0a8.089,8.089,0,0,1-.068.91A4.381,4.381,0,0,1,279.716,114.6Zm8.778.632h0Z" fill="#2b2a28"/>
    </g>
    <g id="Groupe_4049" data-name="Groupe 4049" transform="translate(651.535 1517.479)">
      <path id="Tracé_4371" data-name="Tracé 4371" d="M289.606,105.221a5.774,5.774,0,1,0-11.539,0c0,3.823,2.583,6.923,5.769,6.923S289.606,109.044,289.606,105.221Z" fill="#fff"/>
    </g>
    <g id="Groupe_4050" data-name="Groupe 4050" transform="translate(651.535 1517.479)">
      <path id="Tracé_4372" data-name="Tracé 4372" d="M285.46,99.426a6.282,6.282,0,0,1,1.145,3.794c0,3.824-2.583,6.924-5.769,6.924A4.86,4.86,0,0,1,279.67,110a5.348,5.348,0,0,0,4.166,2.142c3.187,0,5.77-3.1,5.77-6.924A5.574,5.574,0,0,0,285.46,99.426Z" fill="#d4af37"/>
    </g>
    <g id="Groupe_4051" data-name="Groupe 4051" transform="translate(651.535 1517.479)">
      <path id="Tracé_4373" data-name="Tracé 4373" d="M283.836,112.894c-3.594,0-6.519-3.442-6.519-7.674,0-3.973,2.681-6.75,6.519-6.75s6.52,2.777,6.52,6.75C290.356,109.452,287.431,112.894,283.836,112.894Zm0-12.924c-3,0-5.019,2.111-5.019,5.25,0,3.4,2.252,6.174,5.019,6.174s5.02-2.77,5.02-6.174C288.856,102.081,286.838,99.97,283.836,99.97Z" fill="#2b2a28"/>
    </g>
    <g id="Groupe_4052" data-name="Groupe 4052" transform="translate(651.785 1528.729)">
      <rect id="Rectangle_2213" data-name="Rectangle 2213" width="26" height="18" rx="2" transform="translate(293.834 105.22)" fill="#d4af37"/>
    </g>
    <g id="Groupe_4053" data-name="Groupe 4053" transform="translate(651.535 1529.117)">
      <path id="Rectangle_2214" data-name="Rectangle 2214" d="M2,0H23a0,0,0,0,1,0,0V14a1,1,0,0,1-1,1H0a0,0,0,0,1,0,0V2A2,2,0,0,1,2,0Z" transform="translate(293.835 105.22)" fill="#fff"/>
    </g>
    <g id="Groupe_4054" data-name="Groupe 4054" transform="translate(651.785 1528.729)">
      <path id="Tracé_4374" data-name="Tracé 4374" d="M317.834,123.97h-22a2.754,2.754,0,0,1-2.75-2.75v-14a2.752,2.752,0,0,1,2.75-2.75h22a2.752,2.752,0,0,1,2.75,2.75v14A2.754,2.754,0,0,1,317.834,123.97Zm-22-18a1.251,1.251,0,0,0-1.25,1.25v14a1.252,1.252,0,0,0,1.25,1.25h22a1.251,1.251,0,0,0,1.25-1.25v-14a1.25,1.25,0,0,0-1.25-1.25Z" fill="#2b2a28"/>
    </g>
    <g id="Groupe_4059" data-name="Groupe 4059" transform="translate(651.535 1517.479)">
      <path id="Tracé_4377" data-name="Tracé 4377" d="M276.836,129.971a.75.75,0,0,1-.75-.75v-6a.75.75,0,0,1,1.5,0v6A.75.75,0,0,1,276.836,129.971Z" fill="#2b2a28"/>
    </g>
    <g id="Groupe_4060" data-name="Groupe 4060" transform="translate(651.535 1517.479)">
      <path id="Tracé_4378" data-name="Tracé 4378" d="M290.838,129.971a.75.75,0,0,1-.75-.75v-6a.75.75,0,0,1,1.5,0v6A.75.75,0,0,1,290.838,129.971Z" fill="#2b2a28"/>
    </g>
    <g id="Groupe_4061" data-name="Groupe 4061" transform="translate(651.535 1517.479)">
      <path id="Tracé_4379" data-name="Tracé 4379" d="M283.836,128.972a.75.75,0,0,1-.75-.75V117.969a.75.75,0,1,1,1.5,0v10.253A.75.75,0,0,1,283.836,128.972Z" fill="#2b2a28"/>
    </g>
    <g id="Groupe_4062" data-name="Groupe 4062" transform="translate(650.785 1529.403)">
      <path id="Tracé_4380" data-name="Tracé 4380" d="M324.834,100.969h-13.7a.75.75,0,0,1,0-1.5h13.7a.75.75,0,0,1,0,1.5Z" fill="#2b2a28"/>
    </g>
    <g id="Groupe_4063" data-name="Groupe 4063" transform="translate(650.785 1529.403)">
      <path id="Tracé_4381" data-name="Tracé 4381" d="M307.135,100.969h-2.3a.75.75,0,0,1,0-1.5h2.3a.75.75,0,0,1,0,1.5Z" fill="#2b2a28"/>
    </g>
  </g>
</svg>
