<svg xmlns="http://www.w3.org/2000/svg" width="76.985" height="75.25" viewBox="0 0 76.985 75.25">
  <g id="Groupe_4635" data-name="Groupe 4635" transform="translate(-1544.508 -2590.375)">
    <circle id="Ellipse_38" data-name="Ellipse 38" cx="14" cy="14" r="14" transform="translate(1545.403 2590.375)" fill="#d4af37" opacity="0.284"/>
    <circle id="Ellipse_39" data-name="Ellipse 39" cx="12" cy="12" r="12" transform="translate(1544.508 2636.117)" fill="#d4af37" opacity="0.284"/>
    <circle id="Ellipse_40" data-name="Ellipse 40" cx="20" cy="20" r="20" transform="translate(1581.493 2625.625)" fill="#d4af37" opacity="0.284"/>
    <g id="Groupe_3834" data-name="Groupe 3834" transform="translate(1293.779 2256.992)">
      <circle id="Ellipse_41" data-name="Ellipse 41" cx="32" cy="32" r="32" transform="translate(256.688 338.382)" fill="#fff"/>
    </g>
    <g id="Groupe_3835" data-name="Groupe 3835" transform="translate(1293.779 2256.992)">
      <path id="Tracé_4046" data-name="Tracé 4046" d="M315.588,353.06a32,32,0,0,1-57.8,25.642,32,32,0,1,0,57.8-25.642Z" fill="#d4af37"/>
    </g>
    <g id="Groupe_3836" data-name="Groupe 3836" transform="translate(1293.779 2256.992)">
      <path id="Tracé_4047" data-name="Tracé 4047" d="M288.688,403.132a32.75,32.75,0,1,1,32.75-32.75A32.787,32.787,0,0,1,288.688,403.132Zm0-64a31.25,31.25,0,1,0,31.25,31.25A31.285,31.285,0,0,0,288.688,339.132Z" fill="#2b2a28"/>
    </g>
    <g id="Groupe_3837" data-name="Groupe 3837" transform="translate(1293.779 2256.992)">
      <path id="Tracé_4048" data-name="Tracé 4048" d="M293.024,351.567c1.177-6.385,9.421-2.422,9.421-2.422l-2.155,6.037-7.266-1.875Z" fill="#fff"/>
    </g>
    <g id="Groupe_3838" data-name="Groupe 3838" transform="translate(1293.779 2256.992)">
      <path id="Tracé_4049" data-name="Tracé 4049" d="M300.29,355.932a.755.755,0,0,1-.187-.024l-7.266-1.875a.752.752,0,0,1-.563-.726v-1.741a.681.681,0,0,1,.013-.135,4.817,4.817,0,0,1,2.5-3.677c3.12-1.587,7.783.62,7.981.716a.749.749,0,0,1,.38.927L301,355.433A.749.749,0,0,1,300.29,355.932Zm-6.516-3.206,6.04,1.558,1.686-4.725c-1.256-.494-4.145-1.429-6.034-.467a3.332,3.332,0,0,0-1.692,2.545Z" fill="#2b2a28"/>
    </g>
    <g id="Groupe_3839" data-name="Groupe 3839" transform="translate(1293.779 2256.992)">
      <path id="Tracé_4050" data-name="Tracé 4050" d="M284.621,351.567c-1.178-6.385-9.421-2.422-9.421-2.422l2.155,6.037,7.266-1.875Z" fill="#fff"/>
    </g>
    <g id="Groupe_3840" data-name="Groupe 3840" transform="translate(1293.779 2256.992)">
      <path id="Tracé_4051" data-name="Tracé 4051" d="M277.354,355.932a.751.751,0,0,1-.706-.5l-2.154-6.036a.748.748,0,0,1,.381-.927c.2-.1,4.86-2.3,7.98-.716a4.817,4.817,0,0,1,2.5,3.677.679.679,0,0,1,.013.135v1.741a.751.751,0,0,1-.562.726l-7.266,1.875A.762.762,0,0,1,277.354,355.932Zm-1.209-6.373,1.685,4.725,6.04-1.558v-1.089a3.331,3.331,0,0,0-1.691-2.545C280.29,348.132,277.4,349.066,276.145,349.559Z" fill="#2b2a28"/>
    </g>
    <g id="Groupe_3841" data-name="Groupe 3841" transform="translate(1293.779 2256.992)">
      <path id="Tracé_4052" data-name="Tracé 4052" d="M278.052,390.152a7.993,7.993,0,0,1-7.428-5.014,39.332,39.332,0,0,1-2.417-14.287c0-14.388,9.235-19.538,20.626-19.538h-.02c11.391,0,20.625,5.15,20.625,19.538a39.341,39.341,0,0,1-2.417,14.288,8,8,0,0,1-7.428,5.013Z" fill="#fff"/>
    </g>
    <g id="Groupe_3842" data-name="Groupe 3842" transform="translate(1293.779 2256.992)">
      <path id="Tracé_4053" data-name="Tracé 4053" d="M288.823,351.313c-5.1,0-9.752,1.044-13.349,3.475a27.714,27.714,0,0,1,9.348-1.475h0c11.387,0,20.616,5.154,20.616,19.538a39.359,39.359,0,0,1-2.417,14.288A7.936,7.936,0,0,1,301.05,390a7.974,7.974,0,0,0,5.971-4.865,39.341,39.341,0,0,0,2.417-14.288C309.438,356.467,300.21,351.315,288.823,351.313Z" fill="#d4af37"/>
    </g>
    <g id="Groupe_3843" data-name="Groupe 3843" transform="translate(1293.779 2256.992)">
      <path id="Tracé_4054" data-name="Tracé 4054" d="M299.593,390.9H278.052a8.7,8.7,0,0,1-8.125-5.486,39.842,39.842,0,0,1-2.47-14.565c0-13.077,7.582-20.282,21.353-20.29h.026c13.77.008,21.352,7.213,21.352,20.29a39.82,39.82,0,0,1-2.471,14.565A8.7,8.7,0,0,1,299.593,390.9Zm-10.771-38.841c-9.064,0-19.865,3.266-19.865,18.79a38.369,38.369,0,0,0,2.362,14.008,7.208,7.208,0,0,0,6.733,4.543h21.541a7.207,7.207,0,0,0,6.731-4.543,38.325,38.325,0,0,0,2.364-14.008C308.688,355.327,297.888,352.063,288.822,352.061Z" fill="#2b2a28"/>
    </g>
    <g id="Groupe_3844" data-name="Groupe 3844" transform="translate(1293.779 2256.992)">
      <path id="Tracé_4055" data-name="Tracé 4055" d="M305.636,350.749c-3.456-1.717-5.987-3.657-7.712-.182a6.988,6.988,0,1,0,12.516,6.218c.916-1.843.556-3.05-.644-3.831C308.809,352.311,305.636,350.749,305.636,350.749Z" fill="#fff"/>
    </g>
    <g id="Groupe_3845" data-name="Groupe 3845" transform="translate(1293.779 2256.992)">
      <path id="Tracé_4056" data-name="Tracé 4056" d="M309.8,352.954c-.987-.643-4.16-2.205-4.16-2.205-3.151-1.566-5.53-3.3-7.234-.967a27.429,27.429,0,0,1,4.234,1.967s3.173,1.562,4.159,2.205c1.2.781,1.561,1.988.645,3.831a7,7,0,0,1-2.634,2.871,7.018,7.018,0,0,0,5.634-3.871C311.356,354.942,311,353.735,309.8,352.954Z" fill="#d4af37"/>
    </g>
    <g id="Groupe_3846" data-name="Groupe 3846" transform="translate(1293.779 2256.992)">
      <path id="Tracé_4057" data-name="Tracé 4057" d="M304.146,361.448a7.681,7.681,0,0,1-3.423-.808,7.77,7.77,0,0,1-3.472-10.408,3.935,3.935,0,0,1,2.224-2.2c1.581-.512,3.286.381,5.263,1.413.4.207.807.421,1.231.632.156.077,3.227,1.592,4.235,2.247,1.134.739,2.213,2.169.908,4.795a7.8,7.8,0,0,1-6.966,4.329Zm-3.707-12.062a1.6,1.6,0,0,0-.5.073A2.566,2.566,0,0,0,298.6,350.9a6.266,6.266,0,0,0,2.8,8.4,6.179,6.179,0,0,0,4.765.317,6.252,6.252,0,0,0,3.613-3.162c.867-1.745.293-2.43-.383-2.869-.938-.61-4.05-2.144-4.081-2.16h0c-.434-.216-.853-.435-1.258-.646A9.507,9.507,0,0,0,300.439,349.386Z" fill="#2b2a28"/>
    </g>
    <g id="Groupe_3847" data-name="Groupe 3847" transform="translate(1293.779 2256.992)">
      <path id="Tracé_4058" data-name="Tracé 4058" d="M272.01,350.749c3.456-1.717,5.986-3.657,7.712-.182a6.989,6.989,0,1,1-12.518,6.218c-.915-1.843-.555-3.05.646-3.831C268.836,352.311,272.01,350.749,272.01,350.749Z" fill="#fff"/>
    </g>
    <g id="Groupe_3848" data-name="Groupe 3848" transform="translate(1293.779 2256.992)">
      <path id="Tracé_4059" data-name="Tracé 4059" d="M279.722,350.567c-1.083-2.181-2.485-2.228-4.232-1.536a3.828,3.828,0,0,1,1.232,1.536,6.958,6.958,0,0,1-4.738,9.958,6.935,6.935,0,0,0,4.6-.557A7.008,7.008,0,0,0,279.722,350.567Z" fill="#d4af37"/>
    </g>
    <g id="Groupe_3849" data-name="Groupe 3849" transform="translate(1293.779 2256.992)">
      <path id="Tracé_4060" data-name="Tracé 4060" d="M273.505,361.443a7.791,7.791,0,0,1-6.973-4.324c-1.3-2.627-.225-4.058.908-4.795,1.011-.657,4.1-2.179,4.237-2.248.424-.21.834-.424,1.229-.631,1.979-1.032,3.684-1.925,5.264-1.413a3.938,3.938,0,0,1,2.224,2.2,7.771,7.771,0,0,1-3.472,10.408A7.685,7.685,0,0,1,273.505,361.443Zm3.7-12.057a9.509,9.509,0,0,0-3.6,1.389c-.406.211-.825.43-1.258.646h0c-.032.016-3.145,1.55-4.082,2.16-.676.439-1.249,1.124-.383,2.87A6.239,6.239,0,1,0,279.05,350.9a2.568,2.568,0,0,0-1.344-1.441A1.593,1.593,0,0,0,277.2,349.386Zm-5.2,1.363h0Z" fill="#2b2a28"/>
    </g>
    <g id="Groupe_3850" data-name="Groupe 3850" transform="translate(1293.779 2256.992)">
      <path id="Tracé_4061" data-name="Tracé 4061" d="M288.813,391.217a4.941,4.941,0,0,1-.29,1.674,4.838,4.838,0,0,1-6.441,2.647,18.892,18.892,0,0,1-4.995-3.139,7.6,7.6,0,0,1-2.535-7.12c1.531-8.143,7.335-11.183,14.261-11.183s12.73,3.04,14.26,11.183a7.6,7.6,0,0,1-2.535,7.12,18.9,18.9,0,0,1-4.994,3.139,4.839,4.839,0,0,1-6.442-2.647A4.94,4.94,0,0,1,288.813,391.217Z" fill="#fff"/>
    </g>
    <g id="Groupe_3851" data-name="Groupe 3851" transform="translate(1293.779 2256.992)">
      <path id="Tracé_4062" data-name="Tracé 4062" d="M303.073,385.279c-1.53-8.143-7.334-11.183-14.26-11.183-4,0-7.62,1.023-10.264,3.449a17.117,17.117,0,0,1,7.264-1.448c6.925,0,12.73,3.039,14.26,11.182a7.6,7.6,0,0,1-2.535,7.12c-.183.158-.373.3-.559.45a19.388,19.388,0,0,0,3.559-2.45A7.6,7.6,0,0,0,303.073,385.279Z" fill="#d4af37"/>
    </g>
    <g id="Groupe_3852" data-name="Groupe 3852" transform="translate(1293.779 2256.992)">
      <path id="Tracé_4063" data-name="Tracé 4063" d="M284.023,396.68a5.727,5.727,0,0,1-2.233-.452,19.652,19.652,0,0,1-5.193-3.261,8.36,8.36,0,0,1-2.783-7.826c1.43-7.607,6.756-11.795,15-11.795s13.568,4.188,15,11.795a8.36,8.36,0,0,1-2.783,7.826,19.652,19.652,0,0,1-5.193,3.261,5.77,5.77,0,0,1-4.556-.035,5.316,5.316,0,0,1-2.466-2.16,5.318,5.318,0,0,1-2.467,2.16A5.783,5.783,0,0,1,284.023,396.68Zm4.79-21.834c-5.263,0-11.882,1.834-13.524,10.572a6.857,6.857,0,0,0,2.288,6.414,18.213,18.213,0,0,0,4.8,3.016,4.27,4.27,0,0,0,3.368-.028,3.77,3.77,0,0,0,2.075-2.183,4.186,4.186,0,0,0,.246-1.42.75.75,0,0,1,1.5,0,4.186,4.186,0,0,0,.245,1.42,3.77,3.77,0,0,0,2.075,2.183,4.27,4.27,0,0,0,3.368.028,18.213,18.213,0,0,0,4.8-3.016,6.857,6.857,0,0,0,2.288-6.414C300.694,376.68,294.075,374.846,288.813,374.846Z" fill="#2b2a28"/>
    </g>
    <g id="Groupe_3853" data-name="Groupe 3853" transform="translate(1293.779 2256.992)">
      <path id="Tracé_4064" data-name="Tracé 4064" d="M288.813,391.967a.75.75,0,0,1-.75-.75v-5.166a.75.75,0,0,1,1.5,0v5.166A.75.75,0,0,1,288.813,391.967Z" fill="#2b2a28"/>
    </g>
    <g id="Groupe_3854" data-name="Groupe 3854" transform="translate(1293.779 2256.992)">
      <path id="Tracé_4065" data-name="Tracé 4065" d="M288.813,379.537c-2.7,0-4.885.112-4.885,2.677s4.885,3.837,4.885,3.837,4.884-1.273,4.884-3.837S291.511,379.537,288.813,379.537Z" fill="#fff"/>
    </g>
    <g id="Groupe_3855" data-name="Groupe 3855" transform="translate(1293.779 2256.992)">
      <path id="Tracé_4066" data-name="Tracé 4066" d="M293.7,382.214c0-2.565-2.186-2.677-4.884-2.677-2.52,0-4.592.1-4.856,2.2a13.772,13.772,0,0,1,2.856-.2c2.7,0,4.884.112,4.884,2.677a2.017,2.017,0,0,1-.142.713C292.668,384.292,293.7,383.391,293.7,382.214Z" fill="#d4af37"/>
    </g>
    <g id="Groupe_3856" data-name="Groupe 3856" transform="translate(1293.779 2256.992)">
      <path id="Tracé_4067" data-name="Tracé 4067" d="M288.813,386.8a.724.724,0,0,1-.19-.025c-.557-.145-5.445-1.507-5.445-4.563,0-3.426,3.257-3.426,5.635-3.426s5.634,0,5.634,3.426c0,3.056-4.888,4.418-5.445,4.563A.722.722,0,0,1,288.813,386.8Zm0-6.514c-3.1,0-4.135.278-4.135,1.926,0,1.536,2.88,2.694,4.134,3.059,1.254-.366,4.135-1.528,4.135-3.059C292.947,380.565,291.915,380.287,288.813,380.287Z" fill="#2b2a28"/>
    </g>
    <g id="Groupe_3857" data-name="Groupe 3857" transform="translate(1293.779 2256.992)">
      <circle id="Ellipse_42" data-name="Ellipse 42" cx="0.75" cy="0.75" r="0.75" transform="translate(297.108 384.301)" fill="#2b2a28"/>
    </g>
    <g id="Groupe_3858" data-name="Groupe 3858" transform="translate(1293.779 2256.992)">
      <circle id="Ellipse_43" data-name="Ellipse 43" cx="0.75" cy="0.75" r="0.75" transform="translate(294.108 386.302)" fill="#2b2a28"/>
    </g>
    <g id="Groupe_3859" data-name="Groupe 3859" transform="translate(1293.779 2256.992)">
      <circle id="Ellipse_44" data-name="Ellipse 44" cx="0.75" cy="0.75" r="0.75" transform="translate(296.108 389.302)" fill="#2b2a28"/>
    </g>
    <g id="Groupe_3860" data-name="Groupe 3860" transform="translate(1293.779 2256.992)">
      <circle id="Ellipse_45" data-name="Ellipse 45" cx="0.75" cy="0.75" r="0.75" transform="translate(293.108 391.302)" fill="#2b2a28"/>
    </g>
    <g id="Groupe_3861" data-name="Groupe 3861" transform="translate(1293.779 2256.992)">
      <circle id="Ellipse_46" data-name="Ellipse 46" cx="0.75" cy="0.75" r="0.75" transform="translate(279.106 384.301)" fill="#2b2a28"/>
    </g>
    <g id="Groupe_3862" data-name="Groupe 3862" transform="translate(1293.779 2256.992)">
      <circle id="Ellipse_47" data-name="Ellipse 47" cx="0.75" cy="0.75" r="0.75" transform="translate(282.107 386.302)" fill="#2b2a28"/>
    </g>
    <g id="Groupe_3863" data-name="Groupe 3863" transform="translate(1293.779 2256.992)">
      <circle id="Ellipse_48" data-name="Ellipse 48" cx="0.75" cy="0.75" r="0.75" transform="translate(280.106 389.302)" fill="#2b2a28"/>
    </g>
    <g id="Groupe_3864" data-name="Groupe 3864" transform="translate(1293.779 2256.992)">
      <circle id="Ellipse_49" data-name="Ellipse 49" cx="0.75" cy="0.75" r="0.75" transform="translate(283.107 391.302)" fill="#2b2a28"/>
    </g>
    <g id="Groupe_3865" data-name="Groupe 3865" transform="translate(1293.779 2256.992)">
      <path id="Tracé_4068" data-name="Tracé 4068" d="M284.373,365.972c0,2.741-1.7,4.962-3.8,4.962s-3.8-2.221-3.8-4.962,1.7-3.722,3.8-3.722S284.373,363.23,284.373,365.972Z" fill="#fff"/>
    </g>
    <g id="Groupe_3866" data-name="Groupe 3866" transform="translate(1293.779 2256.992)">
      <path id="Tracé_4069" data-name="Tracé 4069" d="M280.573,362.25c-1.865,0-3.41.783-3.73,2.882a4.005,4.005,0,0,1,2.73-.882c2.1,0,3.8.981,3.8,3.722a6.3,6.3,0,0,1-.227,1.632,5.709,5.709,0,0,0,1.227-3.632C284.373,363.23,282.672,362.25,280.573,362.25Z" fill="#d4af37"/>
    </g>
    <g id="Groupe_3867" data-name="Groupe 3867" transform="translate(1293.779 2256.992)">
      <path id="Tracé_4070" data-name="Tracé 4070" d="M280.573,371.683c-2.509,0-4.55-2.562-4.55-5.711,0-2.843,1.659-4.473,4.55-4.473s4.549,1.63,4.549,4.473C285.122,369.121,283.081,371.683,280.573,371.683Zm0-8.684c-2.052,0-3.05.973-3.05,2.973,0,2.322,1.369,4.211,3.05,4.211s3.049-1.889,3.049-4.211C283.622,363.972,282.625,363,280.573,363Z" fill="#2b2a28"/>
    </g>
    <g id="Groupe_3868" data-name="Groupe 3868" transform="translate(1293.779 2256.992)">
      <circle id="Ellipse_50" data-name="Ellipse 50" cx="0.75" cy="0.75" r="0.75" transform="translate(279.823 365.299)" fill="#21365f"/>
    </g>
    <g id="Groupe_3869" data-name="Groupe 3869" transform="translate(1293.779 2256.992)">
      <path id="Tracé_4071" data-name="Tracé 4071" d="M300.658,365.972c0,2.741-1.7,4.962-3.8,4.962s-3.8-2.221-3.8-4.962,1.7-3.722,3.8-3.722S300.658,363.23,300.658,365.972Z" fill="#fff"/>
    </g>
    <g id="Groupe_3870" data-name="Groupe 3870" transform="translate(1293.779 2256.992)">
      <path id="Tracé_4072" data-name="Tracé 4072" d="M295.858,364.25c2.1,0,3.8.981,3.8,3.722a6.3,6.3,0,0,1-.227,1.632,5.709,5.709,0,0,0,1.227-3.632c0-2.742-1.7-3.722-3.8-3.722-1.865,0-3.409.783-3.73,2.881A4.01,4.01,0,0,1,295.858,364.25Z" fill="#d4af37"/>
    </g>
    <g id="Groupe_3871" data-name="Groupe 3871" transform="translate(1293.779 2256.992)">
      <circle id="Ellipse_51" data-name="Ellipse 51" cx="0.75" cy="0.75" r="0.75" transform="translate(296.108 365.299)" fill="#21365f"/>
    </g>
    <g id="Groupe_3872" data-name="Groupe 3872" transform="translate(1293.779 2256.992)">
      <path id="Tracé_4073" data-name="Tracé 4073" d="M296.858,371.683c-2.508,0-4.549-2.562-4.549-5.711,0-2.843,1.658-4.473,4.549-4.473s4.549,1.63,4.549,4.473C301.407,369.121,299.366,371.683,296.858,371.683Zm0-8.684c-2.051,0-3.049.973-3.049,2.973,0,2.322,1.368,4.211,3.049,4.211s3.049-1.889,3.049-4.211C299.907,363.972,298.91,363,296.858,363Z" fill="#2b2a28"/>
    </g>
    <g id="Groupe_3873" data-name="Groupe 3873" transform="translate(1293.779 2256.992)">
      <circle id="Ellipse_52" data-name="Ellipse 52" cx="2" cy="2" r="2" transform="translate(313.688 341.382)" fill="#fff"/>
    </g>
    <g id="Groupe_3874" data-name="Groupe 3874" transform="translate(1293.779 2256.992)">
      <path id="Tracé_4074" data-name="Tracé 4074" d="M315.687,346.132a2.75,2.75,0,1,1,2.75-2.75A2.753,2.753,0,0,1,315.687,346.132Zm0-4a1.25,1.25,0,1,0,1.25,1.25A1.25,1.25,0,0,0,315.687,342.132Z" fill="#2b2a28"/>
    </g>
    <g id="Groupe_3875" data-name="Groupe 3875" transform="translate(1293.779 2256.992)">
      <circle id="Ellipse_53" data-name="Ellipse 53" cx="2" cy="2" r="2" transform="translate(262.688 338.382)" fill="#fff"/>
    </g>
    <g id="Groupe_3876" data-name="Groupe 3876" transform="translate(1293.779 2256.992)">
      <path id="Tracé_4075" data-name="Tracé 4075" d="M264.688,343.132a2.75,2.75,0,1,1,2.75-2.75A2.753,2.753,0,0,1,264.688,343.132Zm0-4a1.25,1.25,0,1,0,1.25,1.25A1.25,1.25,0,0,0,264.688,339.132Z" fill="#2b2a28"/>
    </g>
    <g id="Groupe_3877" data-name="Groupe 3877" transform="translate(1293.779 2256.992)">
      <circle id="Ellipse_54" data-name="Ellipse 54" cx="2" cy="2" r="2" transform="translate(256.688 345.383)" fill="#fff"/>
    </g>
    <g id="Groupe_3878" data-name="Groupe 3878" transform="translate(1293.779 2256.992)">
      <path id="Tracé_4076" data-name="Tracé 4076" d="M258.688,350.132a2.75,2.75,0,1,1,2.75-2.75A2.753,2.753,0,0,1,258.688,350.132Zm0-4a1.25,1.25,0,1,0,1.25,1.25A1.25,1.25,0,0,0,258.688,346.132Z" fill="#2b2a28"/>
    </g>
    <g id="Groupe_3879" data-name="Groupe 3879" transform="translate(1293.779 2256.992)">
      <circle id="Ellipse_55" data-name="Ellipse 55" cx="2" cy="2" r="2" transform="translate(316.688 392.381)" fill="#fff"/>
    </g>
    <g id="Groupe_3880" data-name="Groupe 3880" transform="translate(1293.779 2256.992)">
      <path id="Tracé_4077" data-name="Tracé 4077" d="M318.688,397.131a2.75,2.75,0,1,1,2.75-2.75A2.753,2.753,0,0,1,318.688,397.131Zm0-4a1.25,1.25,0,1,0,1.25,1.25A1.25,1.25,0,0,0,318.688,393.131Z" fill="#2b2a28"/>
    </g>
    <g id="Groupe_3881" data-name="Groupe 3881" transform="translate(1293.779 2256.992)">
      <circle id="Ellipse_56" data-name="Ellipse 56" cx="2" cy="2" r="2" transform="translate(308.686 398.382)" fill="#fff"/>
    </g>
    <g id="Groupe_3882" data-name="Groupe 3882" transform="translate(1293.779 2256.992)">
      <path id="Tracé_4078" data-name="Tracé 4078" d="M310.687,403.132a2.75,2.75,0,1,1,2.75-2.75A2.753,2.753,0,0,1,310.687,403.132Zm0-4a1.25,1.25,0,1,0,1.25,1.25A1.25,1.25,0,0,0,310.687,399.132Z" fill="#2b2a28"/>
    </g>
    <g id="Groupe_3883" data-name="Groupe 3883" transform="translate(1293.779 2256.992)">
      <circle id="Ellipse_57" data-name="Ellipse 57" cx="2" cy="2" r="2" transform="translate(257.688 393.381)" fill="#fff"/>
    </g>
    <g id="Groupe_3884" data-name="Groupe 3884" transform="translate(1293.779 2256.992)">
      <path id="Tracé_4079" data-name="Tracé 4079" d="M259.688,398.131a2.75,2.75,0,1,1,2.75-2.75A2.753,2.753,0,0,1,259.688,398.131Zm0-4a1.25,1.25,0,1,0,1.25,1.25A1.25,1.25,0,0,0,259.688,394.131Z" fill="#2b2a28"/>
    </g>
  </g>
</svg>
