<svg xmlns="http://www.w3.org/2000/svg" width="77.515" height="78.639" viewBox="0 0 77.515 78.639">
  <g id="Groupe_3726" data-name="Groupe 3726" transform="translate(-694.284 -2473.917)">
    <circle id="Ellipse_23" data-name="Ellipse 23" cx="14" cy="14" r="14" transform="translate(694.284 2505.919)" fill="#d4af37" opacity="0.278"/>
    <circle id="Ellipse_24" data-name="Ellipse 24" cx="12" cy="12" r="12" transform="translate(730.498 2528.556)" fill="#d4af37" opacity="0.278"/>
    <circle id="Ellipse_25" data-name="Ellipse 25" cx="20" cy="20" r="20" transform="translate(731.799 2473.917)" fill="#d4af37" opacity="0.278"/>
    <g id="Groupe_3658" data-name="Groupe 3658" transform="translate(-156.827 2383.009)">
      <path id="Tracé_3914" data-name="Tracé 3914" d="M892.858,97.292a32,32,0,0,0-27.912,47.646l-4.088,16.351,16.349-4.088a32,32,0,1,0,15.651-59.909Z" fill="#fff"/>
    </g>
    <g id="Groupe_3659" data-name="Groupe 3659" transform="translate(-156.827 2383.009)">
      <path id="Tracé_3915" data-name="Tracé 3915" d="M916.886,108.17a31.838,31.838,0,0,1,4.97,17.424,32.2,32.2,0,0,1-32.132,31.7,31.826,31.826,0,0,1-14.84-3.721,2,2,0,0,0-1.426-.181l-11.333,2.833-1.268,5.067,16.35-4.088a31.993,31.993,0,0,0,39.679-49.031Z" fill="#d4af37"/>
    </g>
    <g id="Groupe_3660" data-name="Groupe 3660" transform="translate(-156.827 2383.009)">
      <path id="Tracé_3916" data-name="Tracé 3916" d="M892.858,162.042A32.774,32.774,0,0,1,877.1,158l-16.062,4.016a.75.75,0,0,1-.909-.91l4.015-16.062a32.75,32.75,0,1,1,28.712,17Zm-15.65-5.591a.743.743,0,0,1,.367.1A31.256,31.256,0,1,0,865.6,144.571a.748.748,0,0,1,.074.55l-3.784,15.137,15.136-3.783A.7.7,0,0,1,877.208,156.451Z" fill="#2b2a28"/>
    </g>
    <g id="Groupe_3661" data-name="Groupe 3661" transform="translate(-156.827 2383.009)">
      <circle id="Ellipse_26" data-name="Ellipse 26" cx="26.25" cy="26.25" r="26.25" transform="translate(866.608 103.042)" fill="#fff"/>
    </g>
    <g id="Groupe_3662" data-name="Groupe 3662" transform="translate(-156.827 2383.009)">
      <path id="Tracé_3917" data-name="Tracé 3917" d="M909.308,108.842a26.245,26.245,0,0,1-36.9,36.9,26.246,26.246,0,1,0,36.9-36.9Z" fill="#d4af37"/>
    </g>
    <g id="Groupe_3663" data-name="Groupe 3663" transform="translate(-156.827 2383.009)">
      <path id="Tracé_3918" data-name="Tracé 3918" d="M892.858,156.292a27,27,0,1,1,27-27A27.031,27.031,0,0,1,892.858,156.292Zm0-52.5a25.5,25.5,0,1,0,25.5,25.5A25.53,25.53,0,0,0,892.858,103.792Z" fill="#2b2a28"/>
    </g>
    <g id="Groupe_3664" data-name="Groupe 3664" transform="translate(-156.827 2383.009)">
      <path id="Tracé_3919" data-name="Tracé 3919" d="M896.358,129.293a3.5,3.5,0,1,1-3.5-3.5A3.5,3.5,0,0,1,896.358,129.293Z" fill="#fff"/>
    </g>
    <g id="Groupe_3665" data-name="Groupe 3665" transform="translate(-156.827 2383.009)">
      <path id="Tracé_3920" data-name="Tracé 3920" d="M894.115,126.035a3.458,3.458,0,0,1,.242,1.257,3.5,3.5,0,0,1-3.5,3.5,3.459,3.459,0,0,1-1.257-.243,3.495,3.495,0,1,0,4.515-4.514Z" fill="#d4af37"/>
    </g>
    <g id="Groupe_3666" data-name="Groupe 3666" transform="translate(-156.827 2383.009)">
      <path id="Tracé_3921" data-name="Tracé 3921" d="M892.858,133.542a4.25,4.25,0,1,1,4.25-4.25A4.255,4.255,0,0,1,892.858,133.542Zm0-7a2.75,2.75,0,1,0,2.75,2.75A2.753,2.753,0,0,0,892.858,126.542Z" fill="#2b2a28"/>
    </g>
    <g id="Groupe_3667" data-name="Groupe 3667" transform="translate(-156.827 2383.009)">
      <path id="Tracé_3922" data-name="Tracé 3922" d="M899.376,123.523a.746.746,0,0,1-.53-.218,8.477,8.477,0,0,0-11.976,0,.75.75,0,0,1-1.061-1.061,9.978,9.978,0,0,1,14.1,0,.749.749,0,0,1-.53,1.279Z" fill="#2b2a28"/>
    </g>
    <g id="Groupe_3668" data-name="Groupe 3668" transform="translate(-156.827 2383.009)">
      <path id="Tracé_3923" data-name="Tracé 3923" d="M903.45,119.45a.744.744,0,0,1-.53-.22,14.247,14.247,0,0,0-20.123,0,.75.75,0,1,1-1.061-1.06,15.746,15.746,0,0,1,22.244,0,.75.75,0,0,1-.53,1.28Z" fill="#2b2a28"/>
    </g>
    <g id="Groupe_3669" data-name="Groupe 3669" transform="translate(-156.827 2383.009)">
      <path id="Tracé_3924" data-name="Tracé 3924" d="M907.523,115.377a.75.75,0,0,1-.53-.22,19.992,19.992,0,0,0-28.27,0,.75.75,0,0,1-1.061-1.061,21.517,21.517,0,0,1,30.392,0,.75.75,0,0,1-.531,1.281Z" fill="#2b2a28"/>
    </g>
    <g id="Groupe_3670" data-name="Groupe 3670" transform="translate(-156.827 2383.009)">
      <circle id="Ellipse_27" data-name="Ellipse 27" cx="15" cy="15" r="15" transform="translate(894.857 131.292)" fill="#fff"/>
    </g>
    <g id="Groupe_3671" data-name="Groupe 3671" transform="translate(-156.827 2383.009)">
      <path id="Tracé_3925" data-name="Tracé 3925" d="M918.273,133.876a15,15,0,0,1-20.832,20.832,15,15,0,1,0,20.832-20.832Z" fill="#d4af37"/>
    </g>
    <g id="Groupe_3672" data-name="Groupe 3672" transform="translate(-156.827 2383.009)">
      <path id="Tracé_3926" data-name="Tracé 3926" d="M909.858,162.042a15.75,15.75,0,1,1,15.75-15.75A15.769,15.769,0,0,1,909.858,162.042Zm0-30a14.25,14.25,0,1,0,14.25,14.25A14.267,14.267,0,0,0,909.858,132.042Z" fill="#2b2a28"/>
    </g>
    <g id="Groupe_3673" data-name="Groupe 3673" transform="translate(-156.827 2383.009)">
      <path id="Tracé_3927" data-name="Tracé 3927" d="M919.641,144.7l-3.931-3.931-7.529,7.5-4.175-4.176-3.931,3.931,8.105,8.105Z" fill="#fff"/>
    </g>
    <g id="Groupe_3674" data-name="Groupe 3674" transform="translate(-156.827 2383.009)">
      <path id="Tracé_3928" data-name="Tracé 3928" d="M917.682,146.653l-1.512-1.511a.652.652,0,0,0-.921,0l-6.607,6.582a.656.656,0,0,1-.922,0l-3.253-3.254a.654.654,0,0,0-.923,0l-1.512,1.512,6.149,6.149Z" fill="#d4af37"/>
    </g>
    <g id="Groupe_3675" data-name="Groupe 3675" transform="translate(-156.827 2383.009)">
      <path id="Tracé_3929" data-name="Tracé 3929" d="M908.181,156.88a.746.746,0,0,1-.531-.22l-8.105-8.105a.75.75,0,0,1,0-1.061l3.93-3.93a.75.75,0,0,1,1.061,0l3.646,3.646,7-6.973a.75.75,0,0,1,1.059,0l3.931,3.931a.747.747,0,0,1,0,1.06l-11.46,11.432A.744.744,0,0,1,908.181,156.88Zm-7.045-8.856,7.046,7.046,10.4-10.371-2.87-2.871-7,6.973a.749.749,0,0,1-1.06,0l-3.644-3.644Z" fill="#2b2a28"/>
    </g>
    <g id="Groupe_3676" data-name="Groupe 3676" transform="translate(-156.827 2383.009)">
      <path id="Tracé_3930" data-name="Tracé 3930" d="M907,125.162h-1.384a.75.75,0,0,1,0-1.5H907a.75.75,0,0,1,0,1.5Z" fill="#2b2a28"/>
    </g>
    <g id="Groupe_3677" data-name="Groupe 3677" transform="translate(-156.827 2383.009)">
      <path id="Tracé_3931" data-name="Tracé 3931" d="M911.612,125.162h-1.385a.75.75,0,0,1,0-1.5h1.385a.75.75,0,0,1,0,1.5Z" fill="#2b2a28"/>
    </g>
    <g id="Groupe_3678" data-name="Groupe 3678" transform="translate(-156.827 2383.009)">
      <path id="Tracé_3932" data-name="Tracé 3932" d="M908.612,128.162a.75.75,0,0,1-.75-.75v-1.384a.75.75,0,1,1,1.5,0v1.384A.75.75,0,0,1,908.612,128.162Z" fill="#2b2a28"/>
    </g>
    <g id="Groupe_3679" data-name="Groupe 3679" transform="translate(-156.827 2383.009)">
      <path id="Tracé_3933" data-name="Tracé 3933" d="M908.612,123.548a.751.751,0,0,1-.75-.75v-1.386a.75.75,0,1,1,1.5,0V122.8A.751.751,0,0,1,908.612,123.548Z" fill="#2b2a28"/>
    </g>
    <g id="Groupe_3680" data-name="Groupe 3680" transform="translate(-156.827 2383.009)">
      <path id="Tracé_3934" data-name="Tracé 3934" d="M917,101.16h-1.384a.75.75,0,1,1,0-1.5H917a.75.75,0,0,1,0,1.5Z" fill="#2b2a28"/>
    </g>
    <g id="Groupe_3681" data-name="Groupe 3681" transform="translate(-156.827 2383.009)">
      <path id="Tracé_3935" data-name="Tracé 3935" d="M921.613,101.16h-1.385a.75.75,0,1,1,0-1.5h1.385a.75.75,0,0,1,0,1.5Z" fill="#2b2a28"/>
    </g>
    <g id="Groupe_3682" data-name="Groupe 3682" transform="translate(-156.827 2383.009)">
      <path id="Tracé_3936" data-name="Tracé 3936" d="M918.613,104.16a.75.75,0,0,1-.75-.75v-1.384a.75.75,0,0,1,1.5,0v1.384A.75.75,0,0,1,918.613,104.16Z" fill="#2b2a28"/>
    </g>
    <g id="Groupe_3683" data-name="Groupe 3683" transform="translate(-156.827 2383.009)">
      <path id="Tracé_3937" data-name="Tracé 3937" d="M918.613,99.545a.75.75,0,0,1-.75-.75V97.41a.75.75,0,0,1,1.5,0v1.385A.75.75,0,0,1,918.613,99.545Z" fill="#2b2a28"/>
    </g>
    <g id="Groupe_3684" data-name="Groupe 3684" transform="translate(-156.827 2383.009)">
      <path id="Tracé_3938" data-name="Tracé 3938" d="M873.993,132.164h-1.385a.75.75,0,0,1,0-1.5h1.385a.75.75,0,0,1,0,1.5Z" fill="#2b2a28"/>
    </g>
    <g id="Groupe_3685" data-name="Groupe 3685" transform="translate(-156.827 2383.009)">
      <path id="Tracé_3939" data-name="Tracé 3939" d="M878.608,132.164h-1.383a.75.75,0,0,1,0-1.5h1.383a.75.75,0,0,1,0,1.5Z" fill="#2b2a28"/>
    </g>
    <g id="Groupe_3686" data-name="Groupe 3686" transform="translate(-156.827 2383.009)">
      <path id="Tracé_3940" data-name="Tracé 3940" d="M875.608,135.164a.75.75,0,0,1-.75-.75v-1.385a.75.75,0,0,1,1.5,0v1.385A.75.75,0,0,1,875.608,135.164Z" fill="#2b2a28"/>
    </g>
    <g id="Groupe_3687" data-name="Groupe 3687" transform="translate(-156.827 2383.009)">
      <path id="Tracé_3941" data-name="Tracé 3941" d="M875.608,130.549a.751.751,0,0,1-.75-.75v-1.385a.75.75,0,1,1,1.5,0V129.8A.751.751,0,0,1,875.608,130.549Z" fill="#2b2a28"/>
    </g>
    <g id="Groupe_3688" data-name="Groupe 3688" transform="translate(-156.827 2383.009)">
      <path id="Tracé_3942" data-name="Tracé 3942" d="M884.994,144.165h-1.385a.75.75,0,0,1,0-1.5h1.385a.75.75,0,0,1,0,1.5Z" fill="#2b2a28"/>
    </g>
    <g id="Groupe_3689" data-name="Groupe 3689" transform="translate(-156.827 2383.009)">
      <path id="Tracé_3943" data-name="Tracé 3943" d="M889.609,144.165h-1.384a.75.75,0,0,1,0-1.5h1.384a.75.75,0,0,1,0,1.5Z" fill="#2b2a28"/>
    </g>
    <g id="Groupe_3690" data-name="Groupe 3690" transform="translate(-156.827 2383.009)">
      <path id="Tracé_3944" data-name="Tracé 3944" d="M886.609,147.165a.751.751,0,0,1-.75-.75v-1.384a.75.75,0,0,1,1.5,0v1.384A.751.751,0,0,1,886.609,147.165Z" fill="#2b2a28"/>
    </g>
    <g id="Groupe_3691" data-name="Groupe 3691" transform="translate(-156.827 2383.009)">
      <path id="Tracé_3945" data-name="Tracé 3945" d="M886.609,142.549a.75.75,0,0,1-.75-.75v-1.384a.75.75,0,0,1,1.5,0V141.8A.75.75,0,0,1,886.609,142.549Z" fill="#2b2a28"/>
    </g>
  </g>
</svg>
