<svg xmlns="http://www.w3.org/2000/svg" width="76.985" height="75.25" viewBox="0 0 76.985 75.25">
  <g id="Groupe_4636" data-name="Groupe 4636" transform="translate(-1300.508 -5.965)">
    <circle id="Ellipse_38" data-name="Ellipse 38" cx="14" cy="14" r="14" transform="translate(1301.403 5.965)" fill="#d4af37" opacity="0.284"/>
    <path id="Tracé_4048" data-name="Tracé 4048" d="M293.024,351.567c1.177-6.385,9.421-2.422,9.421-2.422l-2.155,6.037-7.266-1.875Z" transform="translate(1049.779 -327.418)" fill="#fff"/>
    <path id="Tracé_4050" data-name="Tracé 4050" d="M284.621,351.567c-1.178-6.385-9.421-2.422-9.421-2.422l2.155,6.037,7.266-1.875Z" transform="translate(1049.779 -327.418)" fill="#fff"/>
    <path id="Tracé_4058" data-name="Tracé 4058" d="M272.01,350.749c3.456-1.717,5.986-3.657,7.712-.182a6.989,6.989,0,1,1-12.518,6.218c-.915-1.843-.555-3.05.646-3.831C268.836,352.311,272.01,350.749,272.01,350.749Z" transform="translate(1049.779 -327.418)" fill="#fff"/>
    <path id="Tracé_4068" data-name="Tracé 4068" d="M284.373,365.972c0,2.741-1.7,4.962-3.8,4.962s-3.8-2.221-3.8-4.962,1.7-3.722,3.8-3.722S284.373,363.23,284.373,365.972Z" transform="translate(1049.779 -327.418)" fill="#fff"/>
    <path id="Tracé_4071" data-name="Tracé 4071" d="M300.658,365.972c0,2.741-1.7,4.962-3.8,4.962s-3.8-2.221-3.8-4.962,1.7-3.722,3.8-3.722S300.658,363.23,300.658,365.972Z" transform="translate(1049.779 -327.418)" fill="#fff"/>
    <circle id="Ellipse_52" data-name="Ellipse 52" cx="2" cy="2" r="2" transform="translate(1363.467 13.965)" fill="#fff"/>
    <path id="Tracé_4074" data-name="Tracé 4074" d="M315.687,346.132a2.75,2.75,0,1,1,2.75-2.75A2.753,2.753,0,0,1,315.687,346.132Zm0-4a1.25,1.25,0,1,0,1.25,1.25A1.25,1.25,0,0,0,315.687,342.132Z" transform="translate(1049.779 -327.418)" fill="#2b2a28"/>
    <circle id="Ellipse_53" data-name="Ellipse 53" cx="2" cy="2" r="2" transform="translate(1312.468 10.965)" fill="#fff"/>
    <path id="Tracé_4075" data-name="Tracé 4075" d="M264.688,343.132a2.75,2.75,0,1,1,2.75-2.75A2.753,2.753,0,0,1,264.688,343.132Zm0-4a1.25,1.25,0,1,0,1.25,1.25A1.25,1.25,0,0,0,264.688,339.132Z" transform="translate(1049.779 -327.418)" fill="#2b2a28"/>
    <circle id="Ellipse_54" data-name="Ellipse 54" cx="2" cy="2" r="2" transform="translate(1306.467 17.965)" fill="#fff"/>
    <path id="Tracé_4076" data-name="Tracé 4076" d="M258.688,350.132a2.75,2.75,0,1,1,2.75-2.75A2.753,2.753,0,0,1,258.688,350.132Zm0-4a1.25,1.25,0,1,0,1.25,1.25A1.25,1.25,0,0,0,258.688,346.132Z" transform="translate(1049.779 -327.418)" fill="#2b2a28"/>
    <path id="Tracé_4269" data-name="Tracé 4269" d="M529.209,105.66h-1.384a.75.75,0,0,1,0-1.5h1.384a.75.75,0,0,1,0,1.5Z" transform="translate(793.683 -74.695)" fill="#2b2a28"/>
    <path id="Tracé_4269-2" data-name="Tracé 4269" d="M529.209,105.66h-1.384a.75.75,0,0,1,0-1.5h1.384a.75.75,0,0,1,0,1.5Z" transform="translate(819.563 -76.137)" fill="#2b2a28"/>
    <path id="Tracé_4270" data-name="Tracé 4270" d="M533.825,105.66H532.44a.75.75,0,0,1,0-1.5h1.385a.75.75,0,0,1,0,1.5Z" transform="translate(793.683 -74.695)" fill="#2b2a28"/>
    <path id="Tracé_4270-2" data-name="Tracé 4270" d="M533.825,105.66H532.44a.75.75,0,0,1,0-1.5h1.385a.75.75,0,0,1,0,1.5Z" transform="translate(819.563 -76.137)" fill="#2b2a28"/>
    <path id="Tracé_4271" data-name="Tracé 4271" d="M530.825,108.66a.75.75,0,0,1-.75-.75v-1.385a.75.75,0,0,1,1.5,0v1.385A.75.75,0,0,1,530.825,108.66Z" transform="translate(793.683 -74.695)" fill="#2b2a28"/>
    <path id="Tracé_4271-2" data-name="Tracé 4271" d="M530.825,108.66a.75.75,0,0,1-.75-.75v-1.385a.75.75,0,0,1,1.5,0v1.385A.75.75,0,0,1,530.825,108.66Z" transform="translate(819.563 -76.137)" fill="#2b2a28"/>
    <path id="Tracé_4272" data-name="Tracé 4272" d="M530.825,104.044a.75.75,0,0,1-.75-.75V101.91a.75.75,0,1,1,1.5,0v1.384A.75.75,0,0,1,530.825,104.044Z" transform="translate(793.683 -74.695)" fill="#2b2a28"/>
    <path id="Tracé_4272-2" data-name="Tracé 4272" d="M530.825,104.044a.75.75,0,0,1-.75-.75V101.91a.75.75,0,1,1,1.5,0v1.384A.75.75,0,0,1,530.825,104.044Z" transform="translate(819.563 -76.137)" fill="#2b2a28"/>
    <circle id="Ellipse_39" data-name="Ellipse 39" cx="12" cy="12" r="12" transform="translate(1300.508 51.711)" fill="#d4af37" opacity="0.284"/>
    <circle id="Ellipse_40" data-name="Ellipse 40" cx="20" cy="20" r="20" transform="translate(1337.493 41.215)" fill="#d4af37" opacity="0.284"/>
    <g id="Groupe_3834" data-name="Groupe 3834" transform="translate(1049.779 -327.418)">
      <circle id="Ellipse_41" data-name="Ellipse 41" cx="32" cy="32" r="32" transform="translate(256.688 338.382)" fill="#fff"/>
    </g>
    <g id="Groupe_3835" data-name="Groupe 3835" transform="translate(1049.779 -327.418)">
      <path id="Tracé_4046" data-name="Tracé 4046" d="M315.588,353.06a32,32,0,0,1-57.8,25.642,32,32,0,1,0,57.8-25.642Z" fill="#d4af37"/>
    </g>
    <g id="Groupe_3836" data-name="Groupe 3836" transform="translate(1049.779 -327.418)">
      <path id="Tracé_4047" data-name="Tracé 4047" d="M288.688,403.132a32.75,32.75,0,1,1,32.75-32.75A32.787,32.787,0,0,1,288.688,403.132Zm0-64a31.25,31.25,0,1,0,31.25,31.25A31.285,31.285,0,0,0,288.688,339.132Z" fill="#2b2a28"/>
    </g>
    <g id="Groupe_3879" data-name="Groupe 3879" transform="translate(1049.779 -327.418)">
      <circle id="Ellipse_55" data-name="Ellipse 55" cx="2" cy="2" r="2" transform="translate(316.688 392.381)" fill="#fff"/>
    </g>
    <g id="Groupe_3880" data-name="Groupe 3880" transform="translate(1049.779 -327.418)">
      <path id="Tracé_4077" data-name="Tracé 4077" d="M318.688,397.131a2.75,2.75,0,1,1,2.75-2.75A2.753,2.753,0,0,1,318.688,397.131Zm0-4a1.25,1.25,0,1,0,1.25,1.25A1.25,1.25,0,0,0,318.688,393.131Z" fill="#2b2a28"/>
    </g>
    <g id="Groupe_3881" data-name="Groupe 3881" transform="translate(1049.779 -327.418)">
      <circle id="Ellipse_56" data-name="Ellipse 56" cx="2" cy="2" r="2" transform="translate(308.686 398.382)" fill="#fff"/>
    </g>
    <g id="Groupe_3882" data-name="Groupe 3882" transform="translate(1049.779 -327.418)">
      <path id="Tracé_4078" data-name="Tracé 4078" d="M310.687,403.132a2.75,2.75,0,1,1,2.75-2.75A2.753,2.753,0,0,1,310.687,403.132Zm0-4a1.25,1.25,0,1,0,1.25,1.25A1.25,1.25,0,0,0,310.687,399.132Z" fill="#2b2a28"/>
    </g>
    <g id="Groupe_3883" data-name="Groupe 3883" transform="translate(1049.779 -327.418)">
      <circle id="Ellipse_57" data-name="Ellipse 57" cx="2" cy="2" r="2" transform="translate(257.688 393.381)" fill="#fff"/>
    </g>
    <g id="Groupe_3884" data-name="Groupe 3884" transform="translate(1049.779 -327.418)">
      <path id="Tracé_4079" data-name="Tracé 4079" d="M259.688,398.131a2.75,2.75,0,1,1,2.75-2.75A2.753,2.753,0,0,1,259.688,398.131Zm0-4a1.25,1.25,0,1,0,1.25,1.25A1.25,1.25,0,0,0,259.688,394.131Z" fill="#2b2a28"/>
    </g>
    <g id="Groupe_3971" data-name="Groupe 3971" transform="translate(798.865 -52.137)">
      <path id="Tracé_4269-3" data-name="Tracé 4269" d="M529.209,105.66h-1.384a.75.75,0,0,1,0-1.5h1.384a.75.75,0,0,1,0,1.5Z" fill="#2b2a28"/>
    </g>
    <g id="Groupe_3972" data-name="Groupe 3972" transform="translate(798.865 -52.137)">
      <path id="Tracé_4270-3" data-name="Tracé 4270" d="M533.825,105.66H532.44a.75.75,0,0,1,0-1.5h1.385a.75.75,0,0,1,0,1.5Z" fill="#2b2a28"/>
    </g>
    <g id="Groupe_3973" data-name="Groupe 3973" transform="translate(798.865 -52.137)">
      <path id="Tracé_4271-3" data-name="Tracé 4271" d="M530.825,108.66a.75.75,0,0,1-.75-.75v-1.385a.75.75,0,0,1,1.5,0v1.385A.75.75,0,0,1,530.825,108.66Z" fill="#2b2a28"/>
    </g>
    <g id="Groupe_3974" data-name="Groupe 3974" transform="translate(798.865 -52.137)">
      <path id="Tracé_4272-3" data-name="Tracé 4272" d="M530.825,104.044a.75.75,0,0,1-.75-.75V101.91a.75.75,0,1,1,1.5,0v1.384A.75.75,0,0,1,530.825,104.044Z" fill="#2b2a28"/>
    </g>
  </g>
</svg>
