<svg xmlns="http://www.w3.org/2000/svg" width="78.198" height="78.725" viewBox="0 0 78.198 78.725">
  <g id="Groupe_4567" data-name="Groupe 4567" transform="translate(-136 -1618)">
    <circle id="Ellipse_183" data-name="Ellipse 183" cx="14" cy="14" r="14" transform="translate(156.948 1618)" fill="#efead0"/>
    <circle id="Ellipse_184" data-name="Ellipse 184" cx="12" cy="12" r="12" transform="translate(190.198 1640.178)" fill="#efead0"/>
    <circle id="Ellipse_185" data-name="Ellipse 185" cx="20" cy="20" r="20" transform="translate(136 1656.725)" fill="#efead0"/>
    <g id="Groupe_4570" data-name="Groupe 4570" transform="translate(-357.952 1525.707)">
      <rect id="Rectangle_2373" data-name="Rectangle 2373" width="40" height="62" transform="translate(513.199 99.293)" fill="#d4af37"/>
    </g>
    <g id="Groupe_4571" data-name="Groupe 4571" transform="translate(-357.952 1525.707)">
      <path id="Rectangle_2374" data-name="Rectangle 2374" d="M0,0H35a0,0,0,0,1,0,0V56a1,1,0,0,1-1,1H0a0,0,0,0,1,0,0V0A0,0,0,0,1,0,0Z" transform="translate(513.202 99.293)" fill="#fff"/>
    </g>
    <g id="Groupe_4572" data-name="Groupe 4572" transform="translate(-357.952 1525.707)">
      <path id="Tracé_4950" data-name="Tracé 4950" d="M553.2,162.042h-40a.75.75,0,0,1-.75-.75v-62a.751.751,0,0,1,.75-.75h40a.751.751,0,0,1,.75.75v62A.75.75,0,0,1,553.2,162.042Zm-39.25-1.5h38.5v-60.5h-38.5Z" fill="#2b2a28"/>
    </g>
    <g id="Groupe_4573" data-name="Groupe 4573" transform="translate(-357.952 1525.707)">
      <rect id="Rectangle_2375" data-name="Rectangle 2375" width="8" height="64" transform="translate(553.199 97.293)" fill="#d4af37"/>
    </g>
    <g id="Groupe_4574" data-name="Groupe 4574" transform="translate(-357.952 1525.707)">
      <path id="Rectangle_2376" data-name="Rectangle 2376" d="M0,0H5A0,0,0,0,1,5,0V60a1,1,0,0,1-1,1H0a0,0,0,0,1,0,0V0A0,0,0,0,1,0,0Z" transform="translate(553.199 97.293)" fill="#fff"/>
    </g>
    <g id="Groupe_4575" data-name="Groupe 4575" transform="translate(-357.952 1525.707)">
      <path id="Tracé_4951" data-name="Tracé 4951" d="M561.2,162.042h-8a.75.75,0,0,1-.75-.75v-64a.751.751,0,0,1,.75-.75h8a.751.751,0,0,1,.75.75v64A.75.75,0,0,1,561.2,162.042Zm-7.25-1.5h6.5v-62.5h-6.5Z" fill="#2b2a28"/>
    </g>
    <g id="Groupe_4576" data-name="Groupe 4576" transform="translate(-357.952 1525.707)">
      <rect id="Rectangle_2377" data-name="Rectangle 2377" width="8" height="64" transform="translate(505.202 97.293)" fill="#d4af37"/>
    </g>
    <g id="Groupe_4577" data-name="Groupe 4577" transform="translate(-357.952 1525.707)">
      <path id="Rectangle_2378" data-name="Rectangle 2378" d="M0,0H5A0,0,0,0,1,5,0V60a1,1,0,0,1-1,1H0a0,0,0,0,1,0,0V0A0,0,0,0,1,0,0Z" transform="translate(505.202 97.293)" fill="#fff"/>
    </g>
    <g id="Groupe_4578" data-name="Groupe 4578" transform="translate(-357.952 1525.707)">
      <path id="Tracé_4952" data-name="Tracé 4952" d="M513.2,162.042h-8a.75.75,0,0,1-.75-.75v-64a.751.751,0,0,1,.75-.75h8a.751.751,0,0,1,.75.75v64A.75.75,0,0,1,513.2,162.042Zm-7.25-1.5h6.5v-62.5h-6.5Z" fill="#2b2a28"/>
    </g>
    <g id="Groupe_4579" data-name="Groupe 4579" transform="translate(-357.952 1525.707)">
      <path id="Tracé_4953" data-name="Tracé 4953" d="M565.2,162.042h-64a.75.75,0,0,1,0-1.5h64a.75.75,0,0,1,0,1.5Z" fill="#2b2a28"/>
    </g>
    <g id="Groupe_4580" data-name="Groupe 4580" transform="translate(-357.952 1525.707)">
      <path id="Tracé_4954" data-name="Tracé 4954" d="M532.2,120.049a.764.764,0,0,1-.53-.221.787.787,0,0,1-.22-.539.744.744,0,0,1,.22-.52.762.762,0,0,1,1.06-.01.761.761,0,0,1,.01,1.06A.758.758,0,0,1,532.2,120.049Z" fill="#2b2a28"/>
    </g>
    <g id="Groupe_4581" data-name="Groupe 4581" transform="translate(-357.952 1525.707)">
      <path id="Tracé_4955" data-name="Tracé 4955" d="M531.447,153.5a.748.748,0,0,1,.75-.75h0a.742.742,0,0,1,.75.75h0a.75.75,0,0,1-.75.75h0A.756.756,0,0,1,531.447,153.5Zm0-3.8a.749.749,0,0,1,.75-.75h0a.743.743,0,0,1,.75.75h0a.749.749,0,0,1-.75.75h0A.755.755,0,0,1,531.447,149.7Zm0-3.8a.749.749,0,0,1,.75-.75h0a.743.743,0,0,1,.75.75h0a.749.749,0,0,1-.75.75h0A.755.755,0,0,1,531.447,145.9Zm0-3.8a.748.748,0,0,1,.75-.75h0a.742.742,0,0,1,.75.75h0a.749.749,0,0,1-.75.75h0A.755.755,0,0,1,531.447,142.1Zm0-3.8a.749.749,0,0,1,.75-.75h0a.743.743,0,0,1,.75.75h0a.749.749,0,0,1-.75.75h0A.755.755,0,0,1,531.447,138.3Zm0-3.8a.748.748,0,0,1,.75-.75h0a.742.742,0,0,1,.75.75h0a.75.75,0,0,1-.75.75h0A.756.756,0,0,1,531.447,134.5Zm0-3.8a.749.749,0,0,1,.75-.75h0a.743.743,0,0,1,.75.75h0a.749.749,0,0,1-.75.75h0A.755.755,0,0,1,531.447,130.7Zm0-3.8a.749.749,0,0,1,.75-.75h0a.743.743,0,0,1,.75.75h0a.749.749,0,0,1-.75.75h0A.755.755,0,0,1,531.447,126.9Zm0-3.8a.748.748,0,0,1,.75-.75h0a.742.742,0,0,1,.75.75h0a.749.749,0,0,1-.75.75h0A.755.755,0,0,1,531.447,123.1Z" fill="#2b2a28"/>
    </g>
    <g id="Groupe_4582" data-name="Groupe 4582" transform="translate(-357.952 1525.707)">
      <path id="Tracé_4956" data-name="Tracé 4956" d="M532.2,158.049a.753.753,0,0,1-.75-.75.749.749,0,0,1,.22-.53.774.774,0,0,1,1.06,0,.75.75,0,0,1-.53,1.28Z" fill="#2b2a28"/>
    </g>
    <g id="Groupe_4583" data-name="Groupe 4583" transform="translate(-357.952 1525.707)">
      <path id="Tracé_4957" data-name="Tracé 4957" d="M536.2,121.049a.771.771,0,0,1-.75-.75.773.773,0,0,1,.22-.54.8.8,0,0,1,1.06,0,.773.773,0,0,1,.22.54.765.765,0,0,1-.22.529A.746.746,0,0,1,536.2,121.049Z" fill="#2b2a28"/>
    </g>
    <g id="Groupe_4584" data-name="Groupe 4584" transform="translate(-357.952 1525.707)">
      <path id="Tracé_4958" data-name="Tracé 4958" d="M535.447,154.5a.748.748,0,0,1,.75-.75h0a.742.742,0,0,1,.75.75h0a.75.75,0,0,1-.75.75h0A.756.756,0,0,1,535.447,154.5Zm0-3.8a.749.749,0,0,1,.75-.75h0a.743.743,0,0,1,.75.75h0a.749.749,0,0,1-.75.75h0A.755.755,0,0,1,535.447,150.7Zm0-3.8a.749.749,0,0,1,.75-.75h0a.743.743,0,0,1,.75.75h0a.749.749,0,0,1-.75.75h0A.755.755,0,0,1,535.447,146.9Zm0-3.8a.748.748,0,0,1,.75-.75h0a.742.742,0,0,1,.75.75h0a.749.749,0,0,1-.75.75h0A.755.755,0,0,1,535.447,143.1Zm0-3.8a.749.749,0,0,1,.75-.75h0a.743.743,0,0,1,.75.75h0a.749.749,0,0,1-.75.75h0A.755.755,0,0,1,535.447,139.3Zm0-3.8a.748.748,0,0,1,.75-.75h0a.742.742,0,0,1,.75.75h0a.75.75,0,0,1-.75.75h0A.756.756,0,0,1,535.447,135.5Zm0-3.8a.749.749,0,0,1,.75-.75h0a.743.743,0,0,1,.75.75h0a.749.749,0,0,1-.75.75h0A.755.755,0,0,1,535.447,131.7Zm0-3.8a.749.749,0,0,1,.75-.75h0a.743.743,0,0,1,.75.75h0a.749.749,0,0,1-.75.75h0A.755.755,0,0,1,535.447,127.9Zm0-3.808a.746.746,0,0,1,.75-.74h0a.74.74,0,0,1,.75.74h0a.751.751,0,0,1-.75.76h0A.758.758,0,0,1,535.447,124.09Z" fill="#2b2a28"/>
    </g>
    <g id="Groupe_4585" data-name="Groupe 4585" transform="translate(-357.952 1525.707)">
      <path id="Tracé_4959" data-name="Tracé 4959" d="M536.2,159.049a.753.753,0,0,1-.75-.75.749.749,0,0,1,.22-.53.763.763,0,0,1,1.06,0,.75.75,0,0,1-.53,1.28Z" fill="#2b2a28"/>
    </g>
    <g id="Groupe_4586" data-name="Groupe 4586" transform="translate(-357.952 1525.707)">
      <path id="Tracé_4960" data-name="Tracé 4960" d="M540.2,120.049a.736.736,0,0,1-.74-.76.734.734,0,0,1,.21-.52.762.762,0,0,1,1.06-.01.755.755,0,0,1-.53,1.29Z" fill="#2b2a28"/>
    </g>
    <g id="Groupe_4587" data-name="Groupe 4587" transform="translate(-357.952 1525.707)">
      <path id="Tracé_4961" data-name="Tracé 4961" d="M539.447,153.5a.751.751,0,0,1,.76-.75h0a.74.74,0,0,1,.74.75h0a.748.748,0,0,1-.74.75h0A.758.758,0,0,1,539.447,153.5Zm0-3.8a.751.751,0,0,1,.76-.75h0a.741.741,0,0,1,.74.75h0a.747.747,0,0,1-.74.75h0A.758.758,0,0,1,539.447,149.7Zm0-3.8a.751.751,0,0,1,.76-.75h0a.741.741,0,0,1,.74.75h0a.747.747,0,0,1-.74.75h0A.758.758,0,0,1,539.447,145.9Zm0-3.8a.751.751,0,0,1,.76-.75h0a.74.74,0,0,1,.74.75h0a.747.747,0,0,1-.74.75h0A.758.758,0,0,1,539.447,142.1Zm0-3.8a.751.751,0,0,1,.76-.75h0a.741.741,0,0,1,.74.75h0a.747.747,0,0,1-.74.75h0A.758.758,0,0,1,539.447,138.3Zm0-3.8a.751.751,0,0,1,.76-.75h0a.74.74,0,0,1,.74.75h0a.748.748,0,0,1-.74.75h0A.758.758,0,0,1,539.447,134.5Zm0-3.8a.751.751,0,0,1,.76-.75h0a.741.741,0,0,1,.74.75h0a.747.747,0,0,1-.74.75h0A.758.758,0,0,1,539.447,130.7Zm0-3.8a.751.751,0,0,1,.76-.75h0a.741.741,0,0,1,.74.75h0a.747.747,0,0,1-.74.75h0A.758.758,0,0,1,539.447,126.9Zm0-3.8a.751.751,0,0,1,.76-.75h0a.74.74,0,0,1,.74.75h0a.747.747,0,0,1-.74.75h0A.758.758,0,0,1,539.447,123.1Z" fill="#2b2a28"/>
    </g>
    <g id="Groupe_4588" data-name="Groupe 4588" transform="translate(-357.952 1525.707)">
      <path id="Tracé_4962" data-name="Tracé 4962" d="M540.2,158.049a.741.741,0,0,1-.52-.221.723.723,0,0,1-.22-.529.74.74,0,0,1,.21-.53.774.774,0,0,1,1.06,0,.749.749,0,0,1,.22.53.8.8,0,0,1-.21.529A.787.787,0,0,1,540.2,158.049Z" fill="#2b2a28"/>
    </g>
    <g id="Groupe_4589" data-name="Groupe 4589" transform="translate(-357.952 1525.707)">
      <path id="Tracé_4963" data-name="Tracé 4963" d="M524.2,120.049a.764.764,0,0,1-.53-.221.787.787,0,0,1-.22-.539.744.744,0,0,1,.22-.52.762.762,0,0,1,1.06-.01.786.786,0,0,1,.22.53.749.749,0,0,1-.22.53A.719.719,0,0,1,524.2,120.049Z" fill="#2b2a28"/>
    </g>
    <g id="Groupe_4590" data-name="Groupe 4590" transform="translate(-357.952 1525.707)">
      <path id="Tracé_4964" data-name="Tracé 4964" d="M523.447,153.5a.748.748,0,0,1,.75-.75h0a.742.742,0,0,1,.75.75h0a.75.75,0,0,1-.75.75h0A.756.756,0,0,1,523.447,153.5Zm0-3.8a.749.749,0,0,1,.75-.75h0a.743.743,0,0,1,.75.75h0a.749.749,0,0,1-.75.75h0A.755.755,0,0,1,523.447,149.7Zm0-3.8a.749.749,0,0,1,.75-.75h0a.743.743,0,0,1,.75.75h0a.749.749,0,0,1-.75.75h0A.755.755,0,0,1,523.447,145.9Zm0-3.8a.748.748,0,0,1,.75-.75h0a.742.742,0,0,1,.75.75h0a.749.749,0,0,1-.75.75h0A.755.755,0,0,1,523.447,142.1Zm0-3.8a.749.749,0,0,1,.75-.75h0a.743.743,0,0,1,.75.75h0a.749.749,0,0,1-.75.75h0A.755.755,0,0,1,523.447,138.3Zm0-3.8a.748.748,0,0,1,.75-.75h0a.742.742,0,0,1,.75.75h0a.75.75,0,0,1-.75.75h0A.756.756,0,0,1,523.447,134.5Zm0-3.8a.749.749,0,0,1,.75-.75h0a.743.743,0,0,1,.75.75h0a.749.749,0,0,1-.75.75h0A.755.755,0,0,1,523.447,130.7Zm0-3.8a.749.749,0,0,1,.75-.75h0a.743.743,0,0,1,.75.75h0a.749.749,0,0,1-.75.75h0A.755.755,0,0,1,523.447,126.9Zm0-3.8a.748.748,0,0,1,.75-.75h0a.742.742,0,0,1,.75.75h0a.749.749,0,0,1-.75.75h0A.755.755,0,0,1,523.447,123.1Z" fill="#2b2a28"/>
    </g>
    <g id="Groupe_4591" data-name="Groupe 4591" transform="translate(-357.952 1525.707)">
      <path id="Tracé_4965" data-name="Tracé 4965" d="M524.2,158.049a.746.746,0,0,1-.53-.221.765.765,0,0,1-.22-.529.749.749,0,0,1,.22-.53.774.774,0,0,1,1.06,0,.749.749,0,0,1,.22.53.8.8,0,0,1-.21.529A.787.787,0,0,1,524.2,158.049Z" fill="#2b2a28"/>
    </g>
    <g id="Groupe_4592" data-name="Groupe 4592" transform="translate(-357.952 1525.707)">
      <path id="Tracé_4966" data-name="Tracé 4966" d="M528.2,121.049a.764.764,0,0,1-.53-.221.781.781,0,0,1-.22-.529.749.749,0,0,1,.22-.53.773.773,0,0,1,1.06-.01.791.791,0,0,1,.22.54.779.779,0,0,1-.21.52A.758.758,0,0,1,528.2,121.049Z" fill="#2b2a28"/>
    </g>
    <g id="Groupe_4593" data-name="Groupe 4593" transform="translate(-357.952 1525.707)">
      <path id="Tracé_4967" data-name="Tracé 4967" d="M527.447,154.5a.748.748,0,0,1,.75-.75h0a.742.742,0,0,1,.75.75h0a.75.75,0,0,1-.75.75h0A.756.756,0,0,1,527.447,154.5Zm0-3.8a.749.749,0,0,1,.75-.75h0a.743.743,0,0,1,.75.75h0a.749.749,0,0,1-.75.75h0A.755.755,0,0,1,527.447,150.7Zm0-3.8a.749.749,0,0,1,.75-.75h0a.743.743,0,0,1,.75.75h0a.749.749,0,0,1-.75.75h0A.755.755,0,0,1,527.447,146.9Zm0-3.8a.748.748,0,0,1,.75-.75h0a.742.742,0,0,1,.75.75h0a.749.749,0,0,1-.75.75h0A.755.755,0,0,1,527.447,143.1Zm0-3.8a.749.749,0,0,1,.75-.75h0a.743.743,0,0,1,.75.75h0a.749.749,0,0,1-.75.75h0A.755.755,0,0,1,527.447,139.3Zm0-3.8a.748.748,0,0,1,.75-.75h0a.742.742,0,0,1,.75.75h0a.75.75,0,0,1-.75.75h0A.756.756,0,0,1,527.447,135.5Zm0-3.8a.749.749,0,0,1,.75-.75h0a.743.743,0,0,1,.75.75h0a.749.749,0,0,1-.75.75h0A.755.755,0,0,1,527.447,131.7Zm0-3.8a.749.749,0,0,1,.75-.75h0a.743.743,0,0,1,.75.75h0a.749.749,0,0,1-.75.75h0A.755.755,0,0,1,527.447,127.9Zm0-3.808a.746.746,0,0,1,.75-.74h0a.74.74,0,0,1,.75.74h0a.751.751,0,0,1-.75.76h0A.758.758,0,0,1,527.447,124.09Z" fill="#2b2a28"/>
    </g>
    <g id="Groupe_4594" data-name="Groupe 4594" transform="translate(-357.952 1525.707)">
      <path id="Tracé_4968" data-name="Tracé 4968" d="M528.2,159.049a.753.753,0,0,1-.75-.75.749.749,0,0,1,.22-.53.763.763,0,0,1,1.06,0,.749.749,0,0,1,.22.53.765.765,0,0,1-.22.529A.746.746,0,0,1,528.2,159.049Z" fill="#2b2a28"/>
    </g>
    <g id="Groupe_4595" data-name="Groupe 4595" transform="translate(-357.952 1525.707)">
      <path id="Tracé_4969" data-name="Tracé 4969" d="M532.2,111.043a.75.75,0,0,1-.75-.75,6.758,6.758,0,0,1,6.75-6.75h15a.75.75,0,0,1,0,1.5h-15a5.256,5.256,0,0,0-5.25,5.25A.75.75,0,0,1,532.2,111.043Z" fill="#2b2a28"/>
    </g>
    <g id="Groupe_4596" data-name="Groupe 4596" transform="translate(-357.952 1525.707)">
      <path id="Rectangle_2379" data-name="Rectangle 2379" d="M5,0H15a5,5,0,0,1,5,5V6a0,0,0,0,1,0,0H0A0,0,0,0,1,0,6V5A5,5,0,0,1,5,0Z" transform="translate(522.2 110.293)" fill="#d4af37"/>
    </g>
    <g id="Groupe_4597" data-name="Groupe 4597" transform="translate(-357.952 1525.707)">
      <path id="Rectangle_2380" data-name="Rectangle 2380" d="M5,0h5a5,5,0,0,1,5,5V6a0,0,0,0,1,0,0H0A0,0,0,0,1,0,6V5A5,5,0,0,1,5,0Z" transform="translate(522.2 110.293)" fill="#fff"/>
    </g>
    <g id="Groupe_4598" data-name="Groupe 4598" transform="translate(-357.952 1525.707)">
      <path id="Tracé_4970" data-name="Tracé 4970" d="M542.2,117.044h-20a.751.751,0,0,1-.75-.75v-1a5.757,5.757,0,0,1,5.75-5.75h10a5.756,5.756,0,0,1,5.75,5.75v1A.751.751,0,0,1,542.2,117.044Zm-19.25-1.5h18.5v-.25a4.255,4.255,0,0,0-4.25-4.25h-10a4.255,4.255,0,0,0-4.25,4.25Z" fill="#2b2a28"/>
    </g>
    <g id="Groupe_4599" data-name="Groupe 4599" transform="translate(-357.952 1525.707)">
      <path id="Tracé_4971" data-name="Tracé 4971" d="M543.2,117.044h-22a.75.75,0,0,1,0-1.5h22a.75.75,0,0,1,0,1.5Z" fill="#2b2a28"/>
    </g>
    <g id="Groupe_4600" data-name="Groupe 4600" transform="translate(-357.952 1525.707)">
      <path id="Tracé_4972" data-name="Tracé 4972" d="M501.2,130.039a.75.75,0,0,1-.75-.75v-13.7a.75.75,0,1,1,1.5,0v13.7A.75.75,0,0,1,501.2,130.039Z" fill="#2b2a28"/>
    </g>
    <g id="Groupe_4601" data-name="Groupe 4601" transform="translate(-357.952 1525.707)">
      <path id="Tracé_4973" data-name="Tracé 4973" d="M501.2,112.34a.75.75,0,0,1-.75-.75v-2.3a.75.75,0,1,1,1.5,0v2.3A.75.75,0,0,1,501.2,112.34Z" fill="#2b2a28"/>
    </g>
    <g id="Groupe_4602" data-name="Groupe 4602" transform="translate(-357.952 1525.707)">
      <path id="Tracé_4974" data-name="Tracé 4974" d="M565.208,149.041a.75.75,0,0,1-.75-.75v-19.7a.75.75,0,0,1,1.5,0v19.7A.75.75,0,0,1,565.208,149.041Z" fill="#2b2a28"/>
    </g>
    <g id="Groupe_4603" data-name="Groupe 4603" transform="translate(-357.952 1525.707)">
      <path id="Tracé_4975" data-name="Tracé 4975" d="M565.208,125.341a.75.75,0,0,1-.75-.75v-2.3a.75.75,0,0,1,1.5,0v2.3A.75.75,0,0,1,565.208,125.341Z" fill="#2b2a28"/>
    </g>
  </g>
</svg>
