<svg xmlns="http://www.w3.org/2000/svg" width="75.506" height="76.775" viewBox="0 0 75.506 76.775">
  <g id="Groupe_4108" data-name="Groupe 4108" transform="translate(-1327.63 -1608.063)">
    <circle id="Ellipse_110" data-name="Ellipse 110" cx="14" cy="14" r="14" transform="translate(1327.63 1625.82)" fill="#d4af37" opacity="0.276"/>
    <circle id="Ellipse_111" data-name="Ellipse 111" cx="12" cy="12" r="12" transform="translate(1370.55 1660.838)" fill="#d4af37" opacity="0.276"/>
    <circle id="Ellipse_112" data-name="Ellipse 112" cx="20" cy="20" r="20" transform="translate(1354.979 1608.063)" fill="#d4af37" opacity="0.276"/>
    <g id="Groupe_4067" data-name="Groupe 4067" transform="translate(487.947 1276.376)">
      <rect id="Rectangle_2215" data-name="Rectangle 2215" width="40" height="64" rx="6" transform="translate(850.437 338.439)" fill="#d4af37"/>
    </g>
    <g id="Groupe_4068" data-name="Groupe 4068" transform="translate(487.947 1276.376)">
      <path id="Rectangle_2216" data-name="Rectangle 2216" d="M6,0H34a0,0,0,0,1,0,0V46A12,12,0,0,1,22,58H0a0,0,0,0,1,0,0V6A6,6,0,0,1,6,0Z" transform="translate(850.437 338.439)" fill="#fff"/>
    </g>
    <g id="Groupe_4069" data-name="Groupe 4069" transform="translate(487.947 1276.376)">
      <path id="Tracé_4382" data-name="Tracé 4382" d="M884.437,403.188h-28a6.758,6.758,0,0,1-6.75-6.75v-52a6.759,6.759,0,0,1,6.75-6.75h28a6.758,6.758,0,0,1,6.75,6.75v52A6.758,6.758,0,0,1,884.437,403.188Zm-28-64a5.257,5.257,0,0,0-5.25,5.25v52a5.256,5.256,0,0,0,5.25,5.25h28a5.256,5.256,0,0,0,5.25-5.25v-52a5.256,5.256,0,0,0-5.25-5.25Z" fill="#2b2a28"/>
    </g>
    <g id="Groupe_4070" data-name="Groupe 4070" transform="translate(487.947 1276.376)">
      <path id="Tracé_4383" data-name="Tracé 4383" d="M911.437,351.438h-41a7,7,0,0,0-7,7h0a7,7,0,0,0,7,7h41a3,3,0,0,0,3-3v-8A3,3,0,0,0,911.437,351.438Z" fill="#fff"/>
    </g>
    <g id="Groupe_4071" data-name="Groupe 4071" transform="translate(487.947 1276.376)">
      <path id="Tracé_4384" data-name="Tracé 4384" d="M911.437,351.438h-1v8a2,2,0,0,1-2,2H864.12a6.992,6.992,0,0,0,6.317,4h41a3,3,0,0,0,3-3v-8A3,3,0,0,0,911.437,351.438Z" fill="#d4af37"/>
    </g>
    <g id="Groupe_4072" data-name="Groupe 4072" transform="translate(487.947 1276.376)">
      <path id="Tracé_4385" data-name="Tracé 4385" d="M911.438,366.188h-41a7.75,7.75,0,0,1,0-15.5h41a3.754,3.754,0,0,1,3.75,3.75v8A3.755,3.755,0,0,1,911.438,366.188Zm-41-14a6.25,6.25,0,0,0,0,12.5h41a2.253,2.253,0,0,0,2.25-2.25v-8a2.252,2.252,0,0,0-2.25-2.25Z" fill="#2b2a28"/>
    </g>
    <g id="Groupe_4073" data-name="Groupe 4073" transform="translate(487.947 1276.376)">
      <circle id="Ellipse_113" data-name="Ellipse 113" cx="2" cy="2" r="2" transform="translate(882.439 342.436)" fill="#fff"/>
    </g>
    <g id="Groupe_4074" data-name="Groupe 4074" transform="translate(487.947 1276.376)">
      <path id="Tracé_4386" data-name="Tracé 4386" d="M884.439,347.186a2.75,2.75,0,1,1,2.75-2.75A2.753,2.753,0,0,1,884.439,347.186Zm0-4a1.25,1.25,0,1,0,1.25,1.25A1.252,1.252,0,0,0,884.439,343.186Z" fill="#2b2a28"/>
    </g>
    <g id="Groupe_4075" data-name="Groupe 4075" transform="translate(487.947 1276.376)">
      <circle id="Ellipse_114" data-name="Ellipse 114" cx="2" cy="2" r="2" transform="translate(854.437 342.436)" fill="#fff"/>
    </g>
    <g id="Groupe_4076" data-name="Groupe 4076" transform="translate(487.947 1276.376)">
      <path id="Tracé_4387" data-name="Tracé 4387" d="M856.436,347.186a2.75,2.75,0,1,1,2.75-2.75A2.753,2.753,0,0,1,856.436,347.186Zm0-4a1.25,1.25,0,1,0,1.25,1.25A1.252,1.252,0,0,0,856.436,343.186Z" fill="#2b2a28"/>
    </g>
    <g id="Groupe_4077" data-name="Groupe 4077" transform="translate(487.947 1276.376)">
      <circle id="Ellipse_115" data-name="Ellipse 115" cx="2" cy="2" r="2" transform="translate(882.439 394.441)" fill="#fff"/>
    </g>
    <g id="Groupe_4078" data-name="Groupe 4078" transform="translate(487.947 1276.376)">
      <path id="Tracé_4388" data-name="Tracé 4388" d="M884.439,399.191a2.75,2.75,0,1,1,2.75-2.75A2.753,2.753,0,0,1,884.439,399.191Zm0-4a1.25,1.25,0,1,0,1.25,1.25A1.252,1.252,0,0,0,884.439,395.191Z" fill="#2b2a28"/>
    </g>
    <g id="Groupe_4079" data-name="Groupe 4079" transform="translate(487.947 1276.376)">
      <circle id="Ellipse_116" data-name="Ellipse 116" cx="2" cy="2" r="2" transform="translate(854.437 394.441)" fill="#fff"/>
    </g>
    <g id="Groupe_4080" data-name="Groupe 4080" transform="translate(487.947 1276.376)">
      <path id="Tracé_4389" data-name="Tracé 4389" d="M856.436,399.191a2.75,2.75,0,1,1,2.75-2.75A2.753,2.753,0,0,1,856.436,399.191Zm0-4a1.25,1.25,0,1,0,1.25,1.25A1.252,1.252,0,0,0,856.436,395.191Z" fill="#2b2a28"/>
    </g>
    <g id="Groupe_4081" data-name="Groupe 4081" transform="translate(487.947 1276.376)">
      <path id="Tracé_4390" data-name="Tracé 4390" d="M864.4,393.438h.52l-.483-.138Z" fill="#bdc3d8"/>
    </g>
    <g id="Groupe_4082" data-name="Groupe 4082" transform="translate(487.947 1276.376)">
      <path id="Tracé_4391" data-name="Tracé 4391" d="M877.437,378.26a7,7,0,1,0-10.6,6l-2.445,9.181h12l-2.432-9.137A6.991,6.991,0,0,0,877.437,378.26Z" fill="#fff"/>
    </g>
    <g id="Groupe_4083" data-name="Groupe 4083" transform="translate(487.947 1276.376)">
      <path id="Tracé_4392" data-name="Tracé 4392" d="M873.964,384.3a6.994,6.994,0,0,0-2.881-13.008,6.985,6.985,0,0,1,.425,11.654.979.979,0,0,0-.356,1.051l2.554,9.44h2.69Z" fill="#d4af37"/>
    </g>
    <g id="Groupe_4084" data-name="Groupe 4084" transform="translate(487.947 1276.376)">
      <path id="Tracé_4393" data-name="Tracé 4393" d="M876.4,394.188h-12a.75.75,0,0,1-.724-.943l2.3-8.656a7.681,7.681,0,0,1-3.288-6.329,7.75,7.75,0,1,1,12.142,6.378l2.292,8.607a.75.75,0,0,1-.725.943Zm-11.025-1.5h10.05l-2.183-8.195a.751.751,0,0,1,.346-.841,6.247,6.247,0,1,0-9.4-5.392,6.2,6.2,0,0,0,3.039,5.354.749.749,0,0,1,.338.836Z" fill="#2b2a28"/>
    </g>
    <g id="Groupe_4085" data-name="Groupe 4085" transform="translate(487.947 1276.376)">
      <path id="Tracé_4394" data-name="Tracé 4394" d="M894.483,369.438a8.819,8.819,0,0,0-8.5,6.493H863.844a6.815,6.815,0,0,0,.007,4.659h22.13a8.819,8.819,0,1,0,8.5-11.152Zm0,12.864a4.042,4.042,0,1,1,4.041-4.042A4.042,4.042,0,0,1,894.483,382.3Z" fill="#fff"/>
    </g>
    <g id="Groupe_4086" data-name="Groupe 4086" transform="translate(487.947 1276.376)">
      <path id="Tracé_4395" data-name="Tracé 4395" d="M895.113,369.47a8.8,8.8,0,0,1,3.192,6.79c0,.216-.018.426-.033.638a8.8,8.8,0,0,1-8.79,8.184c-.2,0-.406-.012-.606-.025a8.814,8.814,0,1,0,6.237-15.587Z" fill="#d4af37"/>
    </g>
    <g id="Groupe_4087" data-name="Groupe 4087" transform="translate(487.947 1276.376)">
      <path id="Tracé_4396" data-name="Tracé 4396" d="M894.483,387.832a9.59,9.59,0,0,1-9.055-6.492H863.852a.752.752,0,0,1-.707-.5,7.573,7.573,0,0,1-.008-5.16.748.748,0,0,1,.707-.5h21.584a9.569,9.569,0,1,1,9.055,12.651ZM864.4,379.84h21.579a.75.75,0,0,1,.724.552,8.073,8.073,0,1,0,0-4.263.751.751,0,0,1-.724.552H864.4a6.147,6.147,0,0,0-.208,1.579A6.077,6.077,0,0,0,864.4,379.84Zm30.08,3.212a4.792,4.792,0,1,1,4.791-4.792A4.8,4.8,0,0,1,894.483,383.052Zm0-8.083a3.292,3.292,0,1,0,3.291,3.291A3.295,3.295,0,0,0,894.483,374.969Z" fill="#2b2a28"/>
    </g>
    <g id="Groupe_4088" data-name="Groupe 4088" transform="translate(487.947 1276.376)">
      <path id="Tracé_4397" data-name="Tracé 4397" d="M887.223,356.186H872.437a.75.75,0,0,1,0-1.5h14.786a.75.75,0,0,1,0,1.5Z" fill="#2b2a28"/>
    </g>
    <g id="Groupe_4089" data-name="Groupe 4089" transform="translate(487.947 1276.376)">
      <path id="Tracé_4398" data-name="Tracé 4398" d="M893.437,356.186h-2.213a.75.75,0,0,1,0-1.5h2.213a.75.75,0,0,1,0,1.5Z" fill="#2b2a28"/>
    </g>
    <g id="Groupe_4090" data-name="Groupe 4090" transform="translate(487.947 1276.376)">
      <path id="Tracé_4399" data-name="Tracé 4399" d="M854.433,381.974a.75.75,0,0,1-.75-.75V370.439a.75.75,0,0,1,1.5,0v10.785A.75.75,0,0,1,854.433,381.974Z" fill="#2b2a28"/>
    </g>
    <g id="Groupe_4091" data-name="Groupe 4091" transform="translate(487.947 1276.376)">
      <path id="Tracé_4400" data-name="Tracé 4400" d="M854.433,388.188a.75.75,0,0,1-.75-.75v-2.214a.75.75,0,0,1,1.5,0v2.214A.75.75,0,0,1,854.433,388.188Z" fill="#2b2a28"/>
    </g>
    <g id="Groupe_4092" data-name="Groupe 4092" transform="translate(487.947 1276.376)">
      <path id="Tracé_4401" data-name="Tracé 4401" d="M895.822,342.186h-1.385a.75.75,0,0,1,0-1.5h1.385a.75.75,0,0,1,0,1.5Z" fill="#2b2a28"/>
    </g>
    <g id="Groupe_4093" data-name="Groupe 4093" transform="translate(487.947 1276.376)">
      <path id="Tracé_4402" data-name="Tracé 4402" d="M900.437,342.186h-1.383a.75.75,0,0,1,0-1.5h1.383a.75.75,0,0,1,0,1.5Z" fill="#2b2a28"/>
    </g>
    <g id="Groupe_4094" data-name="Groupe 4094" transform="translate(487.947 1276.376)">
      <path id="Tracé_4403" data-name="Tracé 4403" d="M897.437,345.186a.75.75,0,0,1-.75-.75v-1.383a.75.75,0,0,1,1.5,0v1.383A.75.75,0,0,1,897.437,345.186Z" fill="#2b2a28"/>
    </g>
    <g id="Groupe_4095" data-name="Groupe 4095" transform="translate(487.947 1276.376)">
      <path id="Tracé_4404" data-name="Tracé 4404" d="M897.437,340.571a.75.75,0,0,1-.75-.75v-1.385a.75.75,0,0,1,1.5,0v1.385A.75.75,0,0,1,897.437,340.571Z" fill="#2b2a28"/>
    </g>
    <g id="Groupe_4096" data-name="Groupe 4096" transform="translate(487.947 1276.376)">
      <path id="Tracé_4405" data-name="Tracé 4405" d="M909.824,345.188h-1.385a.75.75,0,0,1,0-1.5h1.385a.75.75,0,0,1,0,1.5Z" fill="#2b2a28"/>
    </g>
    <g id="Groupe_4097" data-name="Groupe 4097" transform="translate(487.947 1276.376)">
      <path id="Tracé_4406" data-name="Tracé 4406" d="M914.439,345.188h-1.384a.75.75,0,0,1,0-1.5h1.384a.75.75,0,0,1,0,1.5Z" fill="#2b2a28"/>
    </g>
    <g id="Groupe_4098" data-name="Groupe 4098" transform="translate(487.947 1276.376)">
      <path id="Tracé_4407" data-name="Tracé 4407" d="M911.439,348.188a.751.751,0,0,1-.75-.75v-1.385a.75.75,0,0,1,1.5,0v1.385A.751.751,0,0,1,911.439,348.188Z" fill="#2b2a28"/>
    </g>
    <g id="Groupe_4099" data-name="Groupe 4099" transform="translate(487.947 1276.376)">
      <path id="Tracé_4408" data-name="Tracé 4408" d="M911.439,343.572a.75.75,0,0,1-.75-.75v-1.384a.75.75,0,0,1,1.5,0v1.384A.75.75,0,0,1,911.439,343.572Z" fill="#2b2a28"/>
    </g>
    <g id="Groupe_4100" data-name="Groupe 4100" transform="translate(487.947 1276.376)">
      <path id="Tracé_4409" data-name="Tracé 4409" d="M906.823,388.191h-1.384a.75.75,0,0,1,0-1.5h1.384a.75.75,0,0,1,0,1.5Z" fill="#2b2a28"/>
    </g>
    <g id="Groupe_4101" data-name="Groupe 4101" transform="translate(487.947 1276.376)">
      <path id="Tracé_4410" data-name="Tracé 4410" d="M911.439,388.191h-1.384a.75.75,0,0,1,0-1.5h1.384a.75.75,0,0,1,0,1.5Z" fill="#2b2a28"/>
    </g>
    <g id="Groupe_4102" data-name="Groupe 4102" transform="translate(487.947 1276.376)">
      <path id="Tracé_4411" data-name="Tracé 4411" d="M908.439,391.191a.75.75,0,0,1-.75-.75v-1.384a.75.75,0,0,1,1.5,0v1.384A.75.75,0,0,1,908.439,391.191Z" fill="#2b2a28"/>
    </g>
    <g id="Groupe_4103" data-name="Groupe 4103" transform="translate(487.947 1276.376)">
      <path id="Tracé_4412" data-name="Tracé 4412" d="M908.439,386.576a.75.75,0,0,1-.75-.75v-1.385a.75.75,0,0,1,1.5,0v1.385A.75.75,0,0,1,908.439,386.576Z" fill="#2b2a28"/>
    </g>
    <g id="Groupe_4104" data-name="Groupe 4104" transform="translate(487.947 1276.376)">
      <path id="Tracé_4413" data-name="Tracé 4413" d="M897.822,400.192h-1.384a.75.75,0,0,1,0-1.5h1.384a.75.75,0,0,1,0,1.5Z" fill="#2b2a28"/>
    </g>
    <g id="Groupe_4105" data-name="Groupe 4105" transform="translate(487.947 1276.376)">
      <path id="Tracé_4414" data-name="Tracé 4414" d="M902.438,400.192h-1.384a.75.75,0,0,1,0-1.5h1.384a.75.75,0,0,1,0,1.5Z" fill="#2b2a28"/>
    </g>
    <g id="Groupe_4106" data-name="Groupe 4106" transform="translate(487.947 1276.376)">
      <path id="Tracé_4415" data-name="Tracé 4415" d="M899.438,403.192a.75.75,0,0,1-.75-.75v-1.384a.75.75,0,0,1,1.5,0v1.384A.75.75,0,0,1,899.438,403.192Z" fill="#2b2a28"/>
    </g>
    <g id="Groupe_4107" data-name="Groupe 4107" transform="translate(487.947 1276.376)">
      <path id="Tracé_4416" data-name="Tracé 4416" d="M899.438,398.577a.75.75,0,0,1-.75-.75v-1.385a.75.75,0,0,1,1.5,0v1.385A.75.75,0,0,1,899.438,398.577Z" fill="#2b2a28"/>
    </g>
  </g>
</svg>
